/* XPM */
static char *c50edd3447b84112d43c38147978c0296fbDvbNyePjvwKLG[] = {
/* columns rows colors chars-per-pixel */
"64 64 7 1 ",
"  c #1B2632",
". c #353641",
"X c #3D3E4C",
"o c #4F4B4F",
"O c gray36",
"+ c #747474",
"@ c #898989",
/* pixels */
"++OO@@OO++OO++OOoo..++++........XX++++++@@OO++OOXX..OOOO++OO....",
"++OO@@OO++OO++OOoo..++++........XX++++++@@OO++OOXX..OOOO++OO....",
"..OOOO++++++OO@@oo........XX....XX++OO@@OOOOOOXX......XX........",
"..OOOO++++++OO@@oo........XX....XX++OO@@OOOOOOXX......XX........",
"XXOO++@@@@OO++OO....XX..ooooOOoo..XX++OO++OOXX..XX..........OOoo",
"XXOO++@@@@OO++OO....XX..ooooOOoo..XX++OO++OOXX..XX..........OOoo",
"XX..++++@@@@++XX......ooOOoo++OO++..XXXXXXXXXXXXXXXXXXXX..ooooOO",
"XX..++++@@@@++XX......ooOOoo++OO++..XXXXXXXXXXXXXXXXXXXX..ooooOO",
"ooXXXXXX++++XX....XX++ooooOOooOOooOO....XXXX@@OO++OO..XXOOooOOOO",
"ooXXXXXX++++XX....XX++ooooOOooOOooOO....XXXX@@OO++OO..XXOOooOOOO",
"ooXXXX....XX........ooOO++ooOO++++OO..XX..@@@@@@@@++@@XX..ooooOO",
"ooXXXX....XX........ooOO++ooOO++++OO..XX..@@@@@@@@++@@XX..ooooOO",
"OOoo....OO++@@OO..XXooOOooOO++++++oo....++OO@@@@OO@@++OO  ..OOoo",
"OOoo....OO++@@OO..XXooOOooOO++++++oo....++OO@@@@OO@@++OO  ..OOoo",
"oo..XXOO@@@@++OO++XXXXoo++OOoo++oooo....@@++++OO@@@@OOOO..  ..oo",
"oo..XXOO@@@@++OO++XXXXoo++OOoo++oooo....@@++++OO@@@@OOOO..  ..oo",
"oo..++OO++OO@@++OOOO..XXOOooOOOOOO..XX..++@@++@@++++OO++XX      ",
"oo..++OO++OO@@++OOOO..XXOOooOOOOOO..XX..++@@++@@++++OO++XX      ",
"    OO@@OO@@++@@OOXX  XXXX................++OO++OOOO@@OOXXXX    ",
"    OO@@OO@@++@@OOXX  XXXX................++OO++OOOO@@OOXXXX    ",
"  ..++@@@@++@@OOOO@@XXXX..XX....XX....XX....OOOO@@OOOOXXXX  OOOO",
"  ..++@@@@++@@OOOO@@XXXX..XX....XX....XX....OOOO@@OOOOXXXX  OOOO",
"    OOOO++@@OO@@++    XXXX........OOOO++....XX++OOXXXXXXOOOOooXX",
"    OOOO++@@OO@@++    XXXX........OOOO++....XX++OOXXXXXXOOOOooXX",
"  ..  ++@@@@OO@@OO  XX  XX......OO++OOOO++....XXXX..XXooooOOXXXX",
"  ..  ++@@@@OO@@OO  XX  XX......OO++OOOO++....XXXX..XXooooOOXXXX",
"OOOO    OOOO++          XX  ..OOOOOO++OOOO++....XXXXooOOooXXXXOO",
"OOOO    OOOO++          XX  ..OOOOOO++OOOO++....XXXXooOOooXXXXOO",
"++++....          ooooooXXXX..OO++OOOO++++OO++      ooooXXXX++++",
"++++....          ooooooXXXX..OO++OOOO++++OO++      ooooXXXX++++",
"OOOO++  ....  ooooooOOoooo..XXOO++OO++OO++++..      oo..  ++OO++",
"OOOO++  ....  ooooooOOoooo..XXOO++OO++OO++++..      oo..  ++OO++",
"++OOOO++  ..ooooOOooOO++OOXXXX++OO++++++OO++      ......OO++++OO",
"++OOOO++  ..ooooOOooOO++OOXXXX++OO++++++OO++      ......OO++++OO",
"OOOO++OOXX..oooo++OO++OOooOO..XX++++OO++++      ....  ..++++OOOO",
"OOOO++OOXX..oooo++OO++OOooOO..XX++++OO++++      ....  ..++++OOOO",
"++OOXX..XXXXooOOoo++++++++OOXXXXXX++++    ..  ..  ......OOOOOO++",
"++OOXX..XXXXooOOoo++++++++OOXXXXXX++++    ..  ..  ......OOOOOO++",
"OO..XXXXXX..XXooOOOO++++OO..XX......  ......++++++++..  ..ooooOO",
"OO..XXXXXX..XXooOOOO++++OO..XX......  ......++++++++..  ..ooooOO",
"XXXXooOO++XXXX  oo++OOOOOO......OO......  ++++OOOO++++......OOoo",
"XXXXooOO++XXXX  oo++OOOOOO......OO......  ++++OOOO++++......OOoo",
"OOoo++OOOOoo  XX  OOOO......OO++OOOO....++++OO++OOOO++++....  ..",
"OOoo++OOOOoo  XX  OOOO......OO++OOOO....++++OO++OOOO++++....  ..",
"ooOOOO++OOOO++      ..  ..++OOOO++OOoo..++++++OOOO++OO++    ....",
"ooOOOO++OOOO++      ..  ..++OOOO++OOoo..++++++OOOO++OO++    ....",
"OOoo++OO++oo++      ....OOOOOO++++++OO....++OO++OOOOOO        ..",
"OOoo++OO++oo++      ....OOOOOO++++++OO....++OO++OOOOOO        ..",
"  OOOO++++++OO++  XXXXXX++OOoo++oo++oo....++++OOOO++..  ..      ",
"  OOOO++++++OO++  XXXXXX++OOoo++oo++oo....++++OOOO++..  ..      ",
"  oo++oo++OOOOXX..  XX..XXoo++++++oooo..  ..++++OO  ....    ..  ",
"  oo++oo++OOOOXX..  XX..XXoo++++++oooo..  ..++++OO  ....    ..  ",
"    OO++OO++..XX  ++++OOXX..oo++oooo  ......        ..OO++OO    ",
"    OO++OO++..XX  ++++OOXX..oo++oooo  ......        ..OO++OO    ",
"  ..  ..XX..XX..++OO++++++  ..oooo......      ......OOOOOOOOOO  ",
"  ..  ..XX..XX..++OO++++++  ..oooo......      ......OOOOOOOOOO  ",
"    ..........OOOOOOOO++OO    ......  ..++++  ..  OOOO++++++OOOO",
"    ..........OOOOOOOO++OO    ......  ..++++  ..  OOOO++++++OOOO",
"  ....OOOOOO....OO++OO++++++    ....++++OO++++oo..++OO++OO++OO++",
"  ....OOOOOO....OO++OO++++++    ....++++OO++++oo..++OO++OO++OO++",
"....OOOOOO@@OO..OOOOOO++OO++    ..@@@@OO@@OO++ooooOO++++++OOOOOO",
"....OOOOOO@@OO..OOOOOO++OO++    ..@@@@OO@@OO++ooooOO++++++OOOOOO",
"..@@OO++OO++OOooooOO++OO++OO    ++++@@@@OO@@OO++ooOOOO++OO++OO..",
"..@@OO++OO++OOooooOO++OO++OO    ++++@@@@OO@@OO++ooOOOO++OO++OO.."
};
