/* XPM */
static char *_9c6a9e78756492ecd72b72ef31d954f95vzekPHE0cyf7NW[] = {
/* columns rows colors chars-per-pixel */
"64 64 7 1 ",
"  c #160F10",
". c #1F121B",
"X c #27221C",
"o c #312C36",
"O c #3C3947",
"+ c #4E4B54",
"@ c #57545E",
/* pixels */
"XXOOOOoo................XX..XXXXXXooooooooooooOOOOOOoo..ooooooXX",
"XXOOOOoo................XX..XXXXXXooooooooooooOOOOOOoo..ooooooXX",
"XXooXXXXXX..........XXXX..  XXooooooooooooooooOOOOOOOOoo..oooooo",
"XXooXXXXXX..........XXXX..  XXooooooooooooooooOOOOOOOOoo..oooooo",
"ooXXooooooXXXXXXXXXX....  XXooooooooooooooooOOOOOOOOOOOOoo..oooo",
"ooXXooooooXXXXXXXXXX....  XXooooooooooooooooOOOOOOOOOOOOoo..oooo",
"oooooooo..  ........      XXooooooooooooooooOOOOOOOOOOOOoo..oooo",
"oooooooo..  ........      XXooooooooooooooooOOOOOOOOOOOOoo..oooo",
"oooo    ..XXXXXXXXXXXX..  XXooooooooooooooOOOOOOOOOOooooXX..  oo",
"oooo    ..XXXXXXXXXXXX..  XXooooooooooooooOOOOOOOOOOooooXX..  oo",
"..  ..XXXXooooooooooOOXX..ooooooooooooOOOOOOOOOOOO++....XX....  ",
"..  ..XXXXooooooooooOOXX..ooooooooooooOOOOOOOOOOOO++....XX....  ",
"....XXooooooooooOOOOOOOOXXooooooooooOOOOOOOOOO++@@........XX....",
"....XXooooooooooOOOOOOOOXXooooooooooOOOOOOOOOO++@@........XX....",
"..XXooooooOOOOOOOOOOOOOOXXooooooooooOOOOOO++@@............XX....",
"..XXooooooOOOOOOOOOOOOOOXXooooooooooOOOOOO++@@............XX....",
"  ooooOOOOOO++OOOOOOOOOOXXooooooooOOOO++++XXXX............XX....",
"  ooooOOOOOO++OOOOOOOOOOXXooooooooOOOO++++XXXX............XX....",
"ooOOOOOOOO++@@++OOOOOOXX..ooOOOOOOXXXXXXXXXXXX..........XX......",
"ooOOOOOOOO++@@++OOOOOOXX..ooOOOOOOXXXXXXXXXXXX..........XX......",
"OOOOOO++@@@@++OOOOOOOOXX....ooXXXXXXXXXXXXXXXX..........XX......",
"OOOOOO++@@@@++OOOOOOOOXX....ooXXXXXXXXXXXXXXXX..........XX......",
"OOOOOOOO++OOOOOOOOOOOOooXX..ooXXXXXXXXXXXXXXXX..........XX......",
"OOOOOOOO++OOOOOOOOOOOOooXX..ooXXXXXXXXXXXXXXXX..........XX......",
"OOOOOOOOOOOOOOooooooooXXXX....ooXXXXXXXXXXXX..........XX......oo",
"OOOOOOOOOOOOOOooooooooXXXX....ooXXXXXXXXXXXX..........XX......oo",
"ooOOOOOOooooooXXXXXXXXXX  ..ooXXooooXXXXXXXX..........XX......oo",
"ooOOOOOOooooooXXXXXXXXXX  ..ooXXooooXXXXXXXX..........XX......oo",
"XXXXXXXXXXXXXXXXXXXXXXXX  ooooooXX..ooooXXXX......XXXX......XXoo",
"XXXXXXXXXXXXXXXXXXXXXXXX  ooooooXX..ooooXXXX......XXXX......XXoo",
"..XXXXXXXXXXXXXXXXXXXX    ooOOOOoooo  ..ooooXXXXXX....  XXXXoooo",
"..XXXXXXXXXXXXXXXXXXXX    ooOOOOoooo  ..ooooXXXXXX....  XXXXoooo",
"  ..XXXXXXXXXXXXXXXXOO  ooOOOOOOOOoooo      ......  XXXXXXXXoo  ",
"  ..XXXXXXXXXXXXXXXXOO  ooOOOOOOOOoooo      ......  XXXXXXXXoo  ",
"  oo....XXXXXXXXOOOO  ooooooOOOOooOOoo  ....      XXXXXXXXXXXX  ",
"  oo....XXXXXXXXOOOO  ooooooOOOOooOOoo  ....      XXXXXXXXXXXX  ",
"ooOOoo  ..XXOOOO......XXXXooooOOOOoo....    ooooXXXXXXXXXXXXXX  ",
"ooOOoo  ..XXOOOO......XXXXooooOOOOoo....    ooooXXXXXXXXXXXXXX  ",
"ooOOOOoooo........  ....XXXXXXXXXX..  OOOOOOOOOOooooXXXXXXXX  ..",
"ooOOOOoooo........  ....XXXXXXXXXX..  OOOOOOOOOOooooXXXXXXXX  ..",
"..oooooo..  ooooXXXX    ..XXXX....ooOOOO++++OOOOOOOOooooooXX  ..",
"..oooooo..  ooooXXXX    ..XXXX....ooOOOO++++OOOOOOOOooooooXX  ..",
"  ..XXXXooooooooooooooXX  ......ooooOOOOOO@@@@++OOOOOOOOOOoo  ..",
"  ..XXXXooooooooooooooXX  ......ooooOOOOOO@@@@++OOOOOOOOOOoo  ..",
"..XXooooooooooooooOOOOOOOO    XX....ooooOOOO++@@++OOOOOOoo  ....",
"..XXooooooooooooooOOOOOOOO    XX....ooooOOOO++@@++OOOOOOoo  ....",
"XXooooooooooooOOOOOOOOOOOOOO..XX........ooooOOOOOOOOOOOOoo......",
"XXooooooooooooOOOOOOOOOOOOOO..XX........ooooOOOOOOOOOOOOoo......",
"ooooooooooOOOOOOOOOOOOOOOOOO..XX............ooOOOOOOOOoo......XX",
"ooooooooooOOOOOOOOOOOOOOOOOO..XX............ooOOOOOOOOoo......XX",
"ooooooOOOOOOOO++OOOOOOOOOOoo  ..XX............ooooOO..........XX",
"ooooooOOOOOOOO++OOOOOOOOOOoo  ..XX............ooooOO..........XX",
"ooOOOOOOOO++@@@@++OOOOOOooXXXX  ..XXXX......XXXX............  oo",
"ooOOOOOOOO++@@@@++OOOOOOooXXXX  ..XXXX......XXXX............  oo",
"OOOOOO++@@@@++++OOOOOOoo......XX......XXXXXX............      OO",
"OOOOOO++@@@@++++OOOOOOoo......XX......XXXXXX............      OO",
"OOOOOOOO++++OOOOOOoooo........XX  ..  ............    oooooo..OO",
"OOOOOOOO++++OOOOOOoooo........XX  ..  ............    oooooo..OO",
"OOOOOOOOOOOOOOoooo............XX    ........    XXooooooooXXXX..",
"OOOOOOOOOOOOOOoooo............XX    ........    XXooooooooXXXX..",
"OOOOOOOOOOOOoo................XX  ....    XXXXXXooooooooooooXXXX",
"OOOOOOOOOOOOoo................XX  ....    XXXXXXooooooooooooXXXX",
"ooOOOOOOoooo................XX    XXXXXXXXooooooXXOOooooooooooXX",
"ooOOOOOOoooo................XX    XXXXXXXXooooooXXOOooooooooooXX"
};
