/* XPM */
static char *d869d65efce44340d7bcbd94c3afb4275ZSIZIMB3LSJsO6n[] = {
/* columns rows colors chars-per-pixel */
"64 64 40 1 ",
"  c #271E11",
". c #2C2213",
"X c #2F2413",
"o c #312614",
"O c #362A15",
"+ c #3F3F3F",
"@ c #41311A",
"# c #632805",
"$ c #773007",
"% c #556809",
"& c #5E720D",
"* c #737B0D",
"= c #7C623E",
"- c #0C6B50",
"; c #0E7C5D",
": c #1B5D65",
"> c #2A4E7A",
", c #444444",
"< c #494949",
"1 c #911111",
"2 c #BC1616",
"3 c #CE1818",
"4 c #897E08",
"5 c #8C6D40",
"6 c #957341",
"7 c #987D4A",
"8 c #758E11",
"9 c #118E6B",
"0 c #998D09",
"q c #A89B0A",
"w c #A8844D",
"e c #A28551",
"r c #B89156",
"t c #BF9B64",
"y c #CCA66C",
"u c #315B8E",
"i c #3163A3",
"p c #898989",
"a c #9F9F9F",
"s c gray71",
/* pixels */
"557777777766666666======66666666667777777777777777776666777777rr",
"557777777766666666======66666666667777777777777777776666777777rr",
"66  ..........XXOOXX..........  ........XXXXXX      XXXXXX..  tt",
"66  ..........XXOOXX..........  ........XXXXXX      XXXXXX..  tt",
"77..XXOOOOOOOOOOOOOOOOOOXXXX......OOOOOOOOOOOOOOXXuuuuuu>>XX..tt",
"77..XXOOOOOOOOOOOOOOOOOOXXXX......OOOOOOOOOOOOOOXXuuuuuu>>XX..tt",
"77XXOOOO@@@@@@@@@@@@@@OOOOOOOOOOOOOO@@00000044@@OOuuiiuu>>OOXXtt",
"77XXOOOO@@@@@@@@@@@@@@OOOOOOOOOOOOOO@@00000044@@OOuuiiuu>>OOXXtt",
"66XXOO@@@@@@@@22222211@@OOOOOOOOOOOO@@00000044@@OOuuiiuu>>OOXXtt",
"66XXOO@@@@@@@@22222211@@OOOOOOOOOOOO@@00000044@@OOuuiiuu>>OOXXtt",
"==OOOO@@@@@@OO22332211@@@@@@OO@@@@&&&&00qqqq44@@@@uuiiuu>>OOOOrr",
"==OOOO@@@@@@OO22332211@@@@@@OO@@@@&&&&00qqqq44@@@@uuiiuu>>OOOOrr",
"66222211@@$$##22332211@@@@@@@@@@@@88&&aasssspp2211uuiiuu>>99;;rr",
"66222211@@$$##22332211@@@@@@@@@@@@88&&aasssspp2211uuiiuu>>99;;rr",
"77223311OO$$##22332211uuuuuu@@@@8888&&aasssspp2211uuiiuu>>99;;tt",
"77223311OO$$##22332211uuuuuu@@@@8888&&aasssspp2211uuiiuu>>99;;tt",
"77223311OO$$##22332211uuiiuuOOXX88&&%%00qqqq442211uuiiuu>>99;;yy",
"77223311OO$$##22332211uuiiuuOOXX88&&%%00qqqq442211uuiiuu>>99;;yy",
"77223311OO$$##22332211uuiiuuXX..88&&OO00qqqq442211uuiiuu>>99;;yy",
"77223311OO$$##22332211uuiiuuXX..88&&OO00qqqq442211uuiiuu>>99;;yy",
"77223311##$$##22332211uuiiuu..88&&%%OO00qqqq441111uuiiuu>>99;;tt",
"77223311##$$##22332211uuiiuu..88&&%%OO00qqqq441111uuiiuu>>99;;tt",
"66223311$$####22332211uuiiuu..88&&%%OO00qqqq441111uuiiuu>>99;;rr",
"66223311$$####22332211uuiiuu..88&&%%OO00qqqq441111uuiiuu>>99;;rr",
"66ppsspp<<++@@22332211uuiiuu8888&&OOXX00qqqq4411$$uuiiuu>>99;;tt",
"66ppsspp<<++@@22332211uuiiuu8888&&OOXX00qqqq4411$$uuiiuu>>99;;tt",
"661111$$####@@111111$$uuii>>&&&&%%OOXX444444**$$$$uuuuuu>>;;;;tt",
"661111$$####@@111111$$uuii>>&&&&%%OOXX444444**$$$$uuuuuu>>;;;;tt",
"66$$$$$$####OO$$$$$$$$>>>>>>%%%%OOXXXX********$$$$>>>>>>>>----rr",
"66$$$$$$####OO$$$$$$$$>>>>>>%%%%OOXXXX********$$$$>>>>>>>>----rr",
"eerrrrrrttttttttyyyyyyyyttttttttrrrrrrrrttttyyyyttttttrrrrrrrrrr",
"eerrrrrrttttttttyyyyyyyyttttttttrrrrrrrrttttyyyyttttttrrrrrrrrrr",
"ww66666666667777777777777777666666====666677777777666666====66rr",
"ww66666666667777777777777777666666====666677777777666666====66rr",
"77      XXXX      XXOOOOoo....ooooOOOO....      ......    ..  tt",
"77      XXXX      XXOOOOoo....ooooOOOO....      ......    ..  tt",
"77  XXXXXXXXXXXXOOOOOOOO&&&&&&%%OO111111oo..  ................yy",
"77  XXXXXXXXXXXXOOOOOOOO&&&&&&%%OO111111oo..  ................yy",
"7722222211OOOOOOuuuuuu>>&&88&&%%11332211OOOOOOOOOOOOOOOOOOOO..tt",
"7722222211OOOOOOuuuuuu>>&&88&&%%11332211OOOOOOOOOOOOOOOOOOOO..tt",
"6622332211OO@@@@uuiiuu>>&&88&&%%11332211..@@@@&&&&&&%%@@@@OOOOrr",
"6622332211OO@@@@uuiiuu>>&&88&&%%11332211..@@@@&&&&&&%%@@@@OOOOrr",
"==ppssaapp;;;;--uuiiuu>>&&88&&%%$$222211..OO@@&&88&&%%;;;;;;--rr",
"==ppssaapp;;;;--uuiiuu>>&&88&&%%$$222211..OO@@&&88&&%%;;;;;;--rr",
"==ppssaapp;;99--uuiiuu>>&&88&&%%$$11222211..@@&&88&&%%;;99;;--rr",
"==ppssaapp;;99--uuiiuu>>&&88&&%%$$11222211..@@&&88&&%%;;99;;--rr",
"6622332211;;99--uuiiuu>>,,<<,,++$$11222211..OO&&88&&%%aassaapptt",
"6622332211;;99--uuiiuu>>,,<<,,++$$11222211..OO&&88&&%%aassaapptt",
"6622332211;;99--uuiiuu>>,,<<,,++OO$$222211..OO&&88&&%%aassaapptt",
"6622332211;;99--uuiiuu>>,,<<,,++OO$$222211..OO&&88&&%%aassaapptt",
"6622332211;;99--uuiiuu>>,,<<,,++OO$$222211..OO&&88&&%%aassaapprr",
"6622332211;;99--uuiiuu>>,,<<,,++OO$$222211..OO&&88&&%%aassaapprr",
"==22332211;;99--aassaapp,,<<,,++OO$$11222211..&&88&&%%;;99;;--rr",
"==22332211;;99--aassaapp,,<<,,++OO$$11222211..&&88&&%%;;99;;--rr",
"==22332211;;99--uuiiuu>>&&88&&%%OO$$112222pp..&&88&&%%;;99;;--rr",
"==22332211;;99--uuiiuu>>&&88&&%%OO$$112222pp..&&88&&%%;;99;;--rr",
"6622222211;;;;--uuiiuu>>&&88&&%%@@OOppppss11..&&88&&%%;;;;;;--rr",
"6622222211;;;;--uuiiuu>>&&88&&%%@@OOppppss11..&&88&&%%;;;;;;--rr",
"6611111111aappppuuuuuu>>&&&&&&%%@@OO$$11111111&&&&&&%%--------tt",
"6611111111aappppuuuuuu>>&&&&&&%%@@OO$$11111111&&&&&&%%--------tt",
"77$$$$$$$$::::::>>>>>>>>%%%%%%%%OOOO$$$$1111OO%%%%%%%%::::::::tt",
"77$$$$$$$$::::::>>>>>>>>%%%%%%%%OOOO$$$$1111OO%%%%%%%%::::::::tt",
"eettyyyyyyttttttrrrrrrrrrrttrrrrrrrrttttttyyyyyyttttrrrrrrtttttt",
"eettyyyyyyttttttrrrrrrrrrrttrrrrrrrrttttttyyyyyyttttrrrrrrtttttt"
};
