/* XPM */
static char *_7b86f396fa84e72825104e03512482bHTzvNabt9aOSPAFO[] = {
/* columns rows colors chars-per-pixel */
"64 64 9 1 ",
"  c #733F31",
". c #7C4536",
"X c #8F503F",
"o c #9B5643",
"O c #B1624D",
"+ c #8B6E67",
"@ c #C66851",
"# c #A2867D",
"$ c #A9948D",
/* pixels */
"OO@@@@OOOOOOoo++@@@@OOOOOO@@OOOO@@@@@@OOOOOOoo##@@@@@@OOOOOOOOOO",
"OO@@@@OOOOOOoo++@@@@OOOOOO@@OOOO@@@@@@OOOOOOoo##@@@@@@OOOOOOOOOO",
"ooooooooooooXX++..XXooooooooooooooooooooooooXX##..oooooooooooooo",
"ooooooooooooXX++..XXooooooooooooooooooooooooXX##..oooooooooooooo",
"ooooooooooooXX##..XXooooooooooooooooooooooooXX##..oooooooooooooo",
"ooooooooooooXX##..XXooooooooooooooooooooooooXX##..oooooooooooooo",
"XXooooooooXXXX##..XXXXooooooooooooooooooXXXXXX##..XXooooooooooXX",
"XXooooooooXXXX##..XXXXooooooooooooooooooXXXXXX##..XXooooooooooXX",
"XXXXXXXXXX..  $$....XXXXXXooooooooXXXXXXXXXX  ##..XXXXooooXXXXXX",
"XXXXXXXXXX..  $$....XXXXXXooooooooXXXXXXXXXX  ##..XXXXooooXXXXXX",
"  XXXX......  $$  ....XXXXXXXXXXXXXXXX........##  ..XXXXXXXX..  ",
"  XXXX......  $$  ....XXXXXXXXXXXXXXXX........##  ..XXXXXXXX..  ",
"    ....      $$    ..XX......XXXX......      ##  ....XXXX....  ",
"    ....      $$    ..XX......XXXX......      ##  ....XXXX....  ",
"++++++++####$$$$####++++++++++++++++########$$$$####++++++++++++",
"++++++++####$$$$####++++++++++++++++########$$$$####++++++++++++",
"@@@@OOOO@@@@@@OOOOooooOO@@@@oo##@@@@OOOO@@@@OOOOooooOO@@@@OOoo++",
"@@@@OOOO@@@@@@OOOOooooOO@@@@oo##@@@@OOOO@@@@OOOOooooOO@@@@OOoo++",
"..OOOOOOooooooooooooooooOOOO..##..OOOOooooooooooooooooooOOOO..++",
"..OOOOOOooooooooooooooooOOOO..##..OOOOooooooooooooooooooOOOO..++",
"..OOooooooooooooooooooooXXOO..##..XXooooooooooooooooooooooXX..##",
"..OOooooooooooooooooooooXXOO..##..XXooooooooooooooooooooooXX..##",
"..ooooooooooooooooooXXXXXXXX..##..XXXXXXooooooooooXXXXXXXXXX..##",
"..ooooooooooooooooooXXXXXXXX..##..XXXXXXooooooooooXXXXXXXXXX..##",
"..XXooooooooooXXXXXXXXXXXX..  $$....XXXXXXXXXXXXXXXXXXXXXX..  ##",
"..XXooooooooooXXXXXXXXXXXX..  $$....XXXXXXXXXXXXXXXXXXXXXX..  ##",
"....XXXXooooXXXXXXXXXXXX....  $$  ..XXXXXXXXXXXXXXXXXX......  ##",
"....XXXXooooXXXXXXXXXXXX....  $$  ..XXXXXXXXXXXXXXXXXX......  ##",
"......XXXXXX......XX......    $$    ....XXXX....XXXX......    $$",
"......XXXXXX......XX......    $$    ....XXXX....XXXX......    $$",
"####++++++++++++++++########$$$$########++++++++++++++++####$$$$",
"####++++++++++++++++########$$$$########++++++++++++++++####$$$$",
"OOOOooOOOOOOoo##@@@@OOOOOO@@@@OOooooOOOO@@@@oo##@@@@OO@@@@@@OOOO",
"OOOOooOOOOOOoo##@@@@OOOOOO@@@@OOooooOOOO@@@@oo##@@@@OO@@@@@@OOOO",
"OOooooooooOOXX##XXOOOOooooooooooooooooOOOOOO..##XXOOOOoooo@@@@OO",
"OOooooooooOOXX##XXOOOOooooooooooooooooOOOOOO..##XXOOOOoooo@@@@OO",
"ooooooooooooXX##XXooooooooooooooooooooooooXX..##XXoooooooooooooo",
"ooooooooooooXX##XXooooooooooooooooooooooooXX..##XXoooooooooooooo",
"ooooooooooooXX##XXXXooooooooooooooooooooXXXX..##XXXXoooooooooooo",
"ooooooooooooXX##XXXXooooooooooooooooooooXXXX..##XXXXoooooooooooo",
"XXooooooooXXXX##XXXXXXooooooooooooooXXXXXXXX..$$..XXooooooooXXXX",
"XXooooooooXXXX##XXXXXXooooooooooooooXXXXXXXX..$$..XXooooooooXXXX",
"XXXXooooXX..  ##..XXXXXXXXooooXXXXXXXXXXXXXX..$$..XXXXooXXXXXX..",
"XXXXooooXX..  ##..XXXXXXXXooooXXXXXXXXXXXXXX..$$..XXXXooXXXXXX..",
"..XXXX......  ##..........XXXXXX......XXXX..  $$....XXXXXX......",
"..XXXX......  ##..........XXXXXX......XXXX..  $$....XXXXXX......",
"++++########$$$$####++++++++++++++++++++####$$$$####++++++++++++",
"++++########$$$$####++++++++++++++++++++####$$$$####++++++++++++",
"ooOOOO@@@@OOOOOOOOooooOOOOOOoo++@@OOOO@@@@OOOOooooooOOOOOOOOoo##",
"ooOOOO@@@@OOOOOOOOooooOOOOOOoo++@@OOOO@@@@OOOOooooooOOOOOOOOoo##",
"..OO@@@@ooooooooooooooooooOOXX++XXOO@@@@ooooooooooooooooOOOO..##",
"..OO@@@@ooooooooooooooooooOOXX++XXOO@@@@ooooooooooooooooOOOO..##",
"..XXXXooooooooooooooooooooooXX##XXoooooooooooooooooooooooooo..##",
"..XXXXooooooooooooooooooooooXX##XXoooooooooooooooooooooooooo..##",
"....XXXXooooooooooooooooooooXX##XXXXoooooooooooooooooooooooo..##",
"....XXXXooooooooooooooooooooXX##XXXXoooooooooooooooooooooooo..##",
"  ..XXXXXXXXooooooooooooXXXXXX$$XXXXXXoooooooooooooooooooo..  $$",
"  ..XXXXXXXXooooooooooooXXXXXX$$XXXXXXoooooooooooooooooooo..  $$",
"  ....XXXXXXXXXXXXooooXXXXXX  $$XXXXXXXXXXXXoooooooo........  $$",
"  ....XXXXXXXXXXXXooooXXXXXX  $$XXXXXXXXXXXXoooooooo........  $$",
"    ..    ..........      ..  $$    ........        ......    $$",
"    ..    ..........      ..  $$    ........        ......    $$",
"####++++++++++++++++++++####$$$$########++++++++++++####$$$$$$$$",
"####++++++++++++++++++++####$$$$########++++++++++++####$$$$$$$$"
};
