/* XPM */
static char *f4ecd83d004846b9a1bb964f07704dedSm7uWJvmMevRI5MQ[] = {
/* columns rows colors chars-per-pixel */
"64 64 229 2 ",
"   c #000000",
".  c #090406",
"X  c #0C0509",
"o  c #0B0A0C",
"O  c #070608",
"+  c #120A0E",
"@  c #14060F",
"#  c #130B12",
"$  c #1B0C14",
"%  c #1B0A15",
"&  c #0E1214",
"*  c #131213",
"=  c #1B1316",
"-  c #18171B",
";  c #0D0B10",
":  c #240E18",
">  c #22121A",
",  c #29131F",
"<  c #28191B",
"1  c #3A1619",
"2  c #352B1A",
"3  c #33311A",
"4  c #1D1722",
"5  c #2A1924",
"6  c #331C24",
"7  c #3A1D2B",
"8  c #371626",
"9  c #351831",
"0  c #1F3925",
"q  c #232123",
"w  c #2C262A",
"e  c #2B2729",
"r  c #312A2C",
"t  c #3B2B2C",
"y  c #342527",
"u  c #3D352D",
"i  c #39392A",
"p  c #372A31",
"a  c #343333",
"s  c #3D3B3C",
"d  c #2B3230",
"f  c #411B2B",
"g  c #461B34",
"h  c #410D2C",
"j  c #651D2C",
"k  c #442434",
"l  c #462A37",
"z  c #562B34",
"x  c #44343B",
"c  c #463736",
"v  c #583234",
"b  c #4D2B2C",
"n  c #663932",
"m  c #693833",
"M  c #743635",
"N  c #265A09",
"B  c #34491C",
"V  c #325A1D",
"C  c #2B5315",
"Z  c #2C6419",
"A  c #2B6815",
"S  c #31681E",
"D  c #317016",
"F  c #284A26",
"G  c #374629",
"H  c #295324",
"J  c #2C5C23",
"K  c #255222",
"L  c #365827",
"P  c #3D4A35",
"I  c #3B5535",
"U  c #187129",
"Y  c #2D6921",
"T  c #2D6624",
"R  c #346424",
"E  c #316C22",
"W  c #396928",
"Q  c #377622",
"!  c #3D703C",
"~  c #5E4D18",
"^  c #434939",
"/  c #57483E",
"(  c #4D593B",
")  c #424F2A",
"_  c #784431",
"`  c #75472F",
"'  c #447826",
"]  c #446A3D",
"[  c #576939",
"{  c #487338",
"}  c #5B7A3D",
"|  c #626B32",
" . c #61752E",
".. c #6C4E1F",
"X. c #3E3743",
"o. c #493945",
"O. c #513646",
"+. c #4C3E50",
"@. c #3B4349",
"#. c #3B794C",
"$. c #4C464A",
"%. c #584446",
"&. c #4B5448",
"*. c #4C4F52",
"=. c #525356",
"-. c #4E4E59",
";. c #664744",
":. c #486946",
">. c #4B7449",
",. c #477856",
"<. c #557956",
"1. c #566B46",
"2. c #535C61",
"3. c #735F6E",
"4. c #4E686A",
"5. c #556A6F",
"6. c #5C7762",
"7. c #536B75",
"8. c #636A6C",
"9. c #63796B",
"0. c #676774",
"q. c #7B7B6F",
"w. c #786E4F",
"e. c #831723",
"r. c #A43E32",
"t. c #E83636",
"y. c #F4353A",
"u. c #9A5A2F",
"i. c #834B30",
"p. c #904C2D",
"a. c #A45F2F",
"s. c #A75038",
"d. c #936C3B",
"f. c #BB6B3C",
"g. c #B96E2F",
"h. c #D27D2C",
"j. c #C47931",
"k. c #9E3E41",
"l. c #A83F4C",
"z. c #D93D41",
"x. c #C73547",
"c. c #E83B43",
"v. c #F53E49",
"b. c #96464A",
"n. c #BE595D",
"m. c #AE4F49",
"M. c #875F74",
"N. c #BC5F66",
"B. c #887C61",
"V. c #987B72",
"C. c #B3656B",
"Z. c #B27179",
"A. c #CE5556",
"S. c #EA4B4D",
"D. c #CC6B44",
"F. c #CB6F77",
"G. c #3E9421",
"H. c #508C1F",
"J. c #4A8725",
"K. c #548B29",
"L. c #538F27",
"P. c #599329",
"I. c #5D9D25",
"U. c #5F823E",
"Y. c #649E2B",
"T. c #699934",
"R. c #688535",
"E. c #5EA428",
"W. c #6DAB2C",
"Q. c #68A72A",
"!. c #71AD2D",
"~. c #74B32C",
"^. c #79BB2D",
"/. c #73BA28",
"(. c #6DA731",
"). c #6FB92A",
"_. c #7CC72A",
"`. c #358549",
"'. c #538F5C",
"]. c #5B8265",
"[. c #509175",
"{. c #698775",
"}. c #8F9232",
"|. c #DB832C",
" X c #E6882A",
".X c #F68F27",
"XX c #5C7B85",
"oX c #78768A",
"OX c #9E7B84",
"+X c #A57A87",
"@X c #B07583",
"#X c #31B190",
"$X c #5D8389",
"%X c #559386",
"&X c #73898A",
"*X c #618C98",
"=X c #68908E",
"-X c #55AA8F",
";X c #569DA0",
":X c #7E9BA7",
">X c #6699A7",
",X c #63A5A9",
"<X c #7AA1AE",
"1X c #69B6B9",
"2X c #6FACB2",
"3X c #66C5BC",
"4X c #64C0A7",
"5X c #6EBBC7",
"6X c #6BC5C6",
"7X c #73CBDB",
"8X c #71D3D9",
"9X c #6FD0D5",
"0X c #76DBE8",
"qX c #76CFE4",
"wX c #78EDF7",
"eX c #868D9A",
"rX c #82979D",
"tX c #958590",
"yX c #8595A2",
"uX c #8298A6",
"iX c #8B9AAB",
"pX c #8899A9",
"aX c #8F97AD",
"sX c #8BA3B3",
"dX c #95A7BB",
"fX c #97AAC2",
"gX c #95AFC9",
"hX c #85C9D8",
"jX c #83F3FF",
/* pixels */
"                                                                                                                                ",
"                                                                                                                                ",
"                                                                                                                                ",
"                                                                                                                                ",
"                                                              o s q   e -.&     O e O                                           ",
"                                                              a k o.e O.XX-   * r 2.e                                           ",
"                                                              a k g k g x r d $.$X6Xa                                           ",
"                                                              + k 1 2 f k $.*.*X5X4.<                                           ",
"                                                            O 1 o.%X,.$.P f =.$.$.^                                             ",
"                                                          . 7 1 '.wXqX6X1Xl c $X7.>                                             ",
"                                                          X i A I *X,XwXwX>X%.$Xo.                                              ",
"                                                            l ! 7.: G $.4.,.$.o.-                                               ",
"                                                          = f -XwXB.;XO.B B -.$.q                                               ",
"                                                          : 3 1X+Xe.XXwX,.1 o.*.q                                               ",
"                                                    X . X # L [ c.j O.5X*.8 k 5.4.O                                             ",
"                                                # : +.3.&.L S Z s.c.v.k.d g o.p -                                               ",
"                                              @ P 9.eXdXrX{.S U [.w.m.%.* x o.                                                  ",
"                                                y c oXsXpXdX{.~ `.#XU T 8.=.#                                                   ",
"                                                5 h +.yXsX<XZ.c.p.i.p.V.gXpXX.                                                  ",
"                                                + t 6 ( rXrXuXN.c.c.S.iXuXiX8.O                                                 ",
"                                              X 2 D G N 6.dX:XN.t.A.N.:X6.6.0.O                                                 ",
"                                            @ i -X`.b t W uX<XN.t.OX:XaX^ <.0.O                                                 ",
"                                            < '.jX-X2 c A 6.iXOXC.Z.2XaX&.<.0.                                                  ",
"                                          # L 1X0X,X1 R Z Y yX<XeXtXuXpX&.<.0.O                                                 ",
"                                          : :.8X9X4.8 L Z <.pXyX:X:X:XiX-.:.aX*.o                                               ",
"                                        X 2 ! 9X6Xe $ L S <.dXyX:XyX+XOXL ,.fX&X-                                               ",
"                                        + B -X0X1X< > R S { {.iXpXn.A.XXB Z &XeXe O                                             ",
"                                        + G 6X5Xa   , G S 9.{ #.+Xt.A.3.p N &XfX8.O                                             ",
"                                        y V 6X*Xo   , l Z W iX>.&XN.t.b.d V { pXeX$.q O                                         ",
"                                        u D 3X>Xo O 8 g P A >.rX2XC.y.b.; 5 A {.dXdX0.o                                         ",
"                                        t S 3X*X  X k k k L N &XgX@Xc.b.o   < >.oX( %X@.                                        ",
"                                      X 3 [.0X,X* X G R l i Z ].&X&XZ.b.&     x B -X9X6X@.O                                     ",
"                                      6 N %XqX0X,Xp V E Y S R J D Q eXM.o     > C 3XqX0X,X-                                     ",
"                                      < #.8X1X$X5X:.Z W R J R R S I.'.6.i     X ) V.{.-XqX4.*                                   ",
"                                      > [ hX%X5 r c Q ' Q.' L E H P.I.H.1.    + ) s.7 0 B.F.2.                                  ",
"                                      q ..S.o.    r E.W.~.~.J.J ' W.Q.W.1.      6 %.  8 r.z.c                                   ",
"                                      = ( z.;.  O r J.~.!.~.P.J W.!.!.(.u             > 8 r O                                   ",
"                                        - c y   O u Y Q.~.~.K.L Q.W./.} X                                                       ",
"                                                O u Y ' !.~.K.J (.W./.} #                                                       ",
"                                                  i T ' ~.~.L.S W.!./.U.#                                                       ",
"                                                O t S Y P.^.K.K J.^.T.r O                                                       ",
"                                                  X i K J._.| d Q ^.T.4                                                         ",
"                                                    5 F J._.| G I.~.W.( o                                                       ",
"                                                  @ G Y P._. .d J.~._.} o                                                       ",
"                                                  @ G J.^.!.$.G E Q./.T.a                                                       ",
"                                                  > F Q.).(.5 < H J.~./.{ O                                                     ",
"                                                  u H.!./.'.@ < J I.~.W.}.( O                                                   ",
"                                                < F L._.R.$   X i E Q.~.j.w.q                                                   ",
"                                              % L E Q.~.^ O     @ G E E.A.f.!                                                   ",
"                                            . 7 F J._.R.4         w H G.j.f.d.7                                                 ",
"                                            y L R Q.W.^             t H | S.S.l.-                                               ",
"                                          # G p ) ).W.s             9 z M M x.D.I O                                             ",
"                                          > c g L Q./.$.            y ) M v v K.{ ;                                             ",
"                                        X b p.M K J.T.q           + L G z n _ p.;.o                                             ",
"                                        + M a.m t ' 1.O     . O . 8 r y n m i..Xd.*                                             ",
"                                          b i.i.n 9 9 / = 7 l k k k # 5 v v _ h. Xc                                             ",
"                                      X < 8 _ u.` u.g.|.X.g k k k k p z v z _ |. X%.$ .                                         ",
"                                      5 k p m i.u.|.|.f.X.f k k k k z v z u.|.|. X;.9 5                                         ",
"                                        % > % 6 n v v v l k g k l 7 i.a.j. X|.h.d.w o                                           ",
"                                                X O X X X 5 t 7 7 7 M u.h.h.|.g.o.                                              ",
"                                                                    < m n n m z #                                               ",
"                                                                                                                                ",
"                                                                                                                                ",
"                                                                                                                                "
};
