/* XPM */
static char *_ec38c9ad8b7401fb4e8c16f2f38805bS10S8JBmbbjQzX46[] = {
/* columns rows colors chars-per-pixel */
"64 64 152 2 ",
"   c #000000",
".  c #050902",
"X  c #090C05",
"o  c #0D1206",
"O  c #0F1508",
"+  c #101A06",
"@  c #111709",
"#  c #141E09",
"$  c #102203",
"%  c #162D04",
"&  c #1C260E",
"*  c #1A3406",
"=  c #193902",
"-  c #21300F",
";  c #232E13",
":  c #253113",
">  c #293515",
",  c #234309",
"<  c #325A0F",
"1  c #33421A",
"2  c #3A4C1E",
"3  c #325313",
"4  c #365A13",
"5  c #395B16",
"6  c #34650C",
"7  c #39730D",
"8  c #376310",
"9  c #386411",
"0  c #3D4F20",
"q  c #3F5221",
"w  c #437B14",
"e  c #4C791E",
"r  c #415522",
"t  c #455A24",
"y  c #495E26",
"u  c #4D6527",
"i  c #4E6927",
"p  c #4F6629",
"a  c #506729",
"s  c #51692A",
"d  c #547727",
"f  c #57712D",
"g  c #5A752F",
"h  c #557828",
"j  c #5A7E2A",
"k  c #5D7931",
"l  c #617E32",
"z  c #358202",
"x  c #3A8605",
"c  c #3C8807",
"v  c #3E8908",
"b  c #40810D",
"n  c #438D0B",
"m  c #47900E",
"M  c #48910F",
"N  c #4C9412",
"B  c #509715",
"V  c #529916",
"C  c #569C19",
"Z  c #599F1C",
"A  c #5CA11E",
"S  c #548322",
"D  c #5B9721",
"F  c #5B9821",
"G  c #638F2D",
"H  c #619229",
"J  c #638133",
"K  c #6A8937",
"L  c #729E36",
"P  c #74973C",
"I  c #75993D",
"U  c #799D3E",
"Y  c #5FA320",
"T  c #62A623",
"R  c #66A925",
"E  c #68AA27",
"W  c #6BAD2A",
"Q  c #70AF2C",
"!  c #6FB02C",
"~  c #72B22E",
"^  c #79A63B",
"/  c #7AA93A",
"(  c #76B531",
")  c #78B733",
"_  c #7BBA35",
"`  c #7DB439",
"'  c #7FBC38",
"]  c #7CA241",
"[  c #81BE3A",
"{  c #86C23D",
"}  c #88C43F",
"|  c #80A643",
" . c #82A944",
".. c #83B141",
"X. c #8AB745",
"o. c #8BBB46",
"O. c #8DB649",
"+. c #8DB849",
"@. c #8BC641",
"#. c #8EC943",
"$. c #92CC46",
"%. c #95C34D",
"&. c #98C74F",
"*. c #95CE48",
"=. c #98CF4A",
"-. c #96D04A",
";. c #99D34B",
":. c #9AD24B",
">. c #98D14B",
",. c #99D24C",
"<. c #9AD34C",
"1. c #9BD24C",
"2. c #9CD34D",
"3. c #9CD44D",
"4. c #9CD54D",
"5. c #9CD44E",
"6. c #9DD44E",
"7. c #9DD54E",
"8. c #9DD64F",
"9. c #9ED64F",
"0. c #9FD74F",
"q. c #9BD34C",
"w. c #9BC951",
"e. c #9CC950",
"r. c #9CCA51",
"t. c #9FD351",
"y. c #9FD650",
"u. c #9FD451",
"i. c #A0D351",
"p. c #A0D650",
"a. c #A1D751",
"s. c #A2D752",
"d. c #A3D753",
"f. c #A2D354",
"g. c #A4D555",
"h. c #A4D755",
"j. c #A1D652",
"k. c #A1D850",
"l. c #A1D851",
"z. c #A2D952",
"x. c #A3D952",
"c. c #A3DA52",
"v. c #A3DA53",
"b. c #A4D853",
"n. c #A4DA53",
"m. c #A3DA52",
"M. c #A9DF57",
"N. c #A9DF57",
"B. c #ABDE59",
"V. c #AADC58",
"C. c #AFE35B",
"Z. c #AFE35B",
/* pixels */
"                                                                                                                                ",
"                                                                                                                                ",
"                                                            . $ $ .                                                             ",
"                                                          # F B N F #                                                           ",
"                                                          h ) E E ) h                                                           ",
"                                                          i $.{ { $.i                                                           ",
"                                                          X &.c.b.%.X                 & S w =                                   ",
"                                    % 3 @                   a C.C.a                   / ( T N 8                                 ",
"                                  9 V W L                   2 C.C.0                   *.{ ( W W o                               ",
"                                o ( ~ { %.          . : t j I %.%.I f t ; .           f.5.@.} [ .                               ",
"                                  L *.c.p.    X r ] p.b.u.6.0.4.6.6.u.c.n.u.U t X   & C.C.Z.X.>                                 ",
"                                    t B.C.i J p.c.6.*.*.$.$.#.} #.#.#.$.$.-.5.c.f.l  .C.C.k                                     ",
"                                      f =.c.8.c.u.8.8.-.} { { { [ [ { #.,.-.8.*.>.p.d.e.+.                                      ",
"                                    : %.p.<.k.#.[ _ { -.} ) ~ ( ( ( ) *.~ R _ <.@.$.=.n.d.U q .                                 ",
"                                  y d.,.*.,.*.) R A W [ 4.~ R R W W ' { C x R $.[ } $.p.#.} @.o.:                               ",
"                o .             a b.,.$.@.1.} W N v C ~ $._ A A T T W #.R C ~ *.( _ $.$.) W W _ %.;                             ",
"              9 W [ >         g n.>.$.@.[ =.@.E N v A ~ $.~ A A A A A { } { *.) ! ~ { *.! V M A _ @..                           ",
"            = N W } X.      y n.>.#.[ _ ~ [ *.) R A R [ ;.A A V N V N A R ! T A T E ! -._ A c m W } 0 @ i 4 .                   ",
"            w T ( #.B.k   ; b.>.#.{ _ ( W E *.$.[ _ { -.~ N N N N N N V V V A C A T E } #.! A V E @.P ..' R 7 .                 ",
"            S ( { 6.C.C.+.%.u.$.} _ ( W E Y A [ ;.4.$.R M M M M m m M M M N B V C A A E #.#._ ~ ) #.b.u.[ R N *                 ",
"            & / %.p.C.C.e.p.$.} [ ~ Q R Y Z C B N N m m m m v m m m m m m m N N B C A A R } -.$.-.c.c.Z.@.( R 4                 ",
"                    &  .n.>.#.{ ) Q E Y Z C B N m m m v v v v c V ( { _ T m m M N B V A Y E ! { #.#.>.M.c.@.[ -                 ",
"                      J u.$.{ ) ~ E T Z C B N m m v v v c c c [ 4.-.#.$.<.$.B m m N B C A Y E ~ ) { $.u. .u :                   ",
"                    X t.>.#.{ ( W R A Z B N M n m v v c c c [ -.} ' ) _ { *.*.m m m N V C A R ! ( { @.>.t..                     ",
"                    t p.$.} ) #.1.6.*.~ N M m v v v c c x N 8.} ) R Y R ~ { ;.( v m N N V A Y E ( ) @.$.p.r                     ",
"                    ] 5.#.{ <.$.[ _ { >.~ m m v v c x x x ( *.' R A M V Y ) } -.v m m M B C A T W ( [ #.6.U                     ",
"                    t.-.@.#.*.) T A W ' <.M v c c c z z z [ $.) A M x v A ~ } k.v v n m N V A Y E ( ' @.>.t..                   ",
"                  : n.*.} -.} E N n C ~ *.A v c x x x z z ) *.) R N m m A ( } 4.v v v m N B C A R ( ) @.*.v.;                   ",
"                  t p.$.{ *.} W N n A ! *.A c c z x z z z A <.{ ~ A A A E [ -.[ c v v m M N [ #.$.#.) { $.p.r                   ",
"      # h i X     g u.$.{ @.*.) T A E [ -.m c c c z z z z z $.*.[ ( ~ ( _ } 4.N x c v m M ! @.E E { @.[ $.u.g     X i h #       ",
"    . F ) $.%.a 2 P 6.#.[ ( >.#.{ _ { -.! c c x z z z z z z m -.;.} } } -.4.A c x c v m M { ( m M ( *.[ #.1.P 2 a &.$.) D .     ",
"    $ N W } c.C.C.%.6.#.[ ( W } -.4.$.T m c c x z z z z z z z z ~ -.8.;.[ N z x x v v v M ) ' A Y ' #.[ $.1.%.C.C.n.{ W N $     ",
"    $ N W { c.C.C.%.u.#.[ ( E T A V N N v c c x z z z z z z z z z z z z z z z z x c c v M V #.} { $.) [ #.6.%.C.C.c.{ E N $     ",
"    . D ) $.%.p 2 I 6.#.[ ( W T A V N N v c c x z z z z 7 z z z z z z z z z z z x c v m M N V R ~ ! ) [ #.6.P 2 a %.$.) F .     ",
"      # h i X     g u.#.[ ) W R A V N v v v c c x z z z z z z z z z z z z z z x x c v v M N A A Y ! ) [ $.6.g     X i h #       ",
"                  t t.$.@.) W R A V V N M M c c x x z z z z z z z z z z z z x x c c m m M N A A R ! ) { $.p.r                   ",
"                  ; n.*.@.) Q E A C V M T $.;.-.( c z z z x z z z z z z z x x x x c v M M N A A E ! ) } *.c.;                   ",
"                  . t.=.@.[ ( E Y A V ~ -.{ _ { $.{ x x z z z z z z z z z x x x m ( } ' Y V A A E ( [ @.-.u..                   ",
"                    U 6.#.[ ( W R A A ;.[ W A T ) $.Y x z z z z z z x z x x x V -.#.} } ;.' A R ! ) { @.4.U                     ",
"                    t c.$.@._ ~ E A ! -.( C v N W @.' x x x x z x x x x x c v #.} ~ R ! [ -.! E ~ _ { *.c.q                     ",
"                    X f.,.#.' ( ! T ~ $.) C v N W } [ c c c c x x x x c v v A ;.) A M V ! } @.! ( [ @.>.t.X                     ",
"                  o 1 I u.$.@.) ~ E R ;.[ E A R ) *.E c c c c c x c c c v v Y $.~ V x N E } $.~ _ } $.6.K                       ",
"                & [ $.v.M.-.#.[ ) ! R ' -.{ _ { #.#.m v v c v v v v v v v m C ;._ T V A ~ #.@.) [ @.>.M.V.K t t t o             ",
"                9 ! ) #.Z.u.$.@.' ) ! R ~ ;.;.-._ N m m m m m v m v m m m M M } $.) ! ) } 4.) ' @.*.p.C.C.C.N.,.#.` @           ",
"                , V W { u.t.y.$.{ _ ( ! R A A A V B N N N m m m m m N M N N N A } ;.$.;.;.' _ } $.t.r.B.C.C.,.@.) ~ 5           ",
"                . b R ' @.> u.>.#.{ _ ~ ! R A A A C V B N B ! { [ ~ N N N V C A A E ' ) ( ) { @.=.p.; & w.M.#.) R Z <           ",
"                  + e G ;   y v.;.#.{ _ ) ! E T A A A A A -.@.[ [ #.-.Y A A A Y R E ! ( ' { #.$.n.t     1 p.@.~ A n %           ",
"                              g 0.;.#.} ' ) ~ ! E T A A $.} ! A A ! } #.A Y Y W ! ~ ) ' { #.-.Z.f         ^ } ! Z 6             ",
"                                a M.>.$.@.[ ) ( ~ ! W R 5.' A n n Y ' 1.E E W ( ( ) [ @.$.,.b.k           X S H 3 .             ",
"                                  t p.6.$.@.{ [ _ ) ~ ~ >.{ R B B R [ ,.~ ( ) ) [ { #.*.,.d.t                                   ",
"                                    ; %.c.,.%.#.} [ ' ) { >.[ ( ( [ *.@.) [ [ } #.$.,.p.%.;                                     ",
"                                      O.e.v.8.<.*.$.@.} { @.5.,.,.,.#.[ } @.#.$.,.u.d.&.+.                                      ",
"                                    k C.C.| l t.p.1.=.*.$.$.#.#.#.#.$.$.-.>.6.c.t.l ] C.C.g                                     ",
"                                > X.Z.C.C.&   X t U t.n.p.6.6.6.6.6.u.p.b.r.U q X   & C.C.B.o.>                                 ",
"                              . [ @.#.1.f.          . ; t f I %.%.I g q ; .           f.,.#.@.[ .                               ",
"                              o Q W ( { *.                  2 C.C.2                   =.@.( E Q o                               ",
"                                8 N Y ) /                   a C.C.p                   / ) Y N 9                                 ",
"                                  = w S &                 X &.c.n.%.X                 & S w =                                   ",
"                                                          i $.{ } #.i                                                           ",
"                                                          h ) W W ) d                                                           ",
"                                                          # D N N D #                                                           ",
"                                                            . $ $ .                                                             ",
"                                                                                                                                ",
"                                                                                                                                "
};
