/* XPM */
static char *_f088cc48e284f44d3d85b388fdef7f29p2HrDi893TALf06[] = {
/* columns rows colors chars-per-pixel */
"64 64 125 2 ",
"   c #000000",
".  c #0A030D",
"X  c #111A0A",
"o  c #0F0414",
"O  c #140517",
"+  c #110419",
"@  c #19061C",
"#  c #190624",
"$  c #1F082C",
"%  c #270A2C",
"&  c #280A2D",
"*  c #250C33",
"=  c #270A39",
"-  c #2A0B3D",
";  c #300C37",
":  c #340D3B",
">  c #2E4419",
",  c #436324",
"<  c #547C2D",
"1  c #310C47",
"2  c #3D0F44",
"3  c #320C48",
"4  c #331047",
"5  c #3E1544",
"6  c #3C0F57",
"7  c #3C0F58",
"8  c #3E105A",
"9  c #401644",
"0  c #411248",
"q  c #421848",
"w  c #451265",
"e  c #4C136F",
"r  c #5F186B",
"t  c #4F1473",
"y  c #501474",
"u  c #55167B",
"i  c #61186D",
"p  c #681A75",
"a  c #558B2F",
"s  c #568C30",
"d  c #5C8D32",
"f  c #5C9333",
"g  c #608E33",
"h  c #639535",
"j  c #639936",
"k  c #679D38",
"l  c #689F38",
"z  c #6BA23A",
"x  c #70A73C",
"c  c #73AA3E",
"v  c #749C46",
"b  c #718B52",
"n  c #77AE40",
"m  c #78AF40",
"M  c #7CB442",
"N  c #80B745",
"B  c #82BA45",
"V  c #82B946",
"C  c #82BA46",
"Z  c #83BA46",
"A  c #82BB46",
"S  c #83BB46",
"D  c #83BB47",
"F  c #81B945",
"G  c #83BC46",
"H  c #85BC47",
"J  c #85BD47",
"K  c #86BD47",
"L  c #85BE47",
"P  c #86BE47",
"I  c #87BE47",
"U  c #83BB46",
"Y  c #86BD48",
"T  c #87BE48",
"R  c #86BD48",
"E  c #88BF48",
"W  c #88BF48",
"Q  c #87C048",
"!  c #88C048",
"~  c #88C049",
"^  c #89C049",
"/  c #88C149",
"(  c #89C149",
")  c #8AC149",
"_  c #89C249",
"`  c #8AC249",
"'  c #8BC249",
"]  c #89C14A",
"[  c #8AC24A",
"{  c #8AC34A",
"}  c #8BC34A",
"|  c #8BC34A",
" . c #5E1889",
".. c #5E1889",
"X. c #61188E",
"o. c #61198E",
"O. c #61198E",
"+. c #661A95",
"@. c #671A95",
"#. c #671A95",
"$. c #691B99",
"%. c #6A1B99",
"&. c #6A1B9A",
"*. c #6A1B9A",
"=. c #6A3884",
"-. c #6B3884",
";. c #6C3984",
":. c #6C3987",
">. c #6D3B86",
",. c #6B3885",
"<. c #6D3989",
"1. c #9425A7",
"2. c #9425A7",
"3. c #9625A9",
"4. c #9626AA",
"5. c #9726AA",
"6. c #9726AB",
"7. c #9626AA",
"8. c #9B27AF",
"9. c #9C27AF",
"0. c #9B27AF",
"q. c #9931A7",
"w. c #9931A7",
"e. c #9C27B0",
"r. c #9C27B0",
/* pixels */
"                                                                                                                                ",
"                                                                                                                                ",
"                                                                                                                                ",
"                                                                                                                                ",
"                                                                                                                                ",
"                                                          O i p p i O                                                           ",
"                                                          i 9.e.e.e.r                                                           ",
"                                                          ; 4.e.e.4.;                                                           ",
"                                                            : e.e.:                                                             ",
"                                            . 1 t %         : e.e.:         - y 1 .                                             ",
"                                          w +.%.%.u         : e.e.:         O.&.&.#.6                                           ",
"                            . .         # &.@.%.$.-         : e.e.:         1 &.&.&.&.o         O .                             ",
"                          & 2.6.#         t ..%.%.* > < h l z l z l l h < > - &.&. .w         @ 2.2.&                           ",
"                        & 6.e.e.&           + >.b z z k l z l l l l l k l z z b >..           & 9.9.4.&                         ",
"                      . 2.e.e.9.0         X d z k z k z l z x c c c z z l z l l l d X         2 9.9.9.2..                       ",
"                      . 4.e.e.e.r.0     , z k k z z m M ` } } } } } } ` B c z l k l l ,     0 8.e.8.9.4..                       ",
"                        @ % 2 r.r.8.q h k l l z M ` { } } } } } } } { ` } } } M z z k z g 5 r.e.8.0 % @                         ",
"                              2 8.q.v k k l c ' } } } } ` } } } M z B ` } } } } } c l k l v w.r.2                               ",
"                                5 v k z z K } } } } B f s N } } f s f ` } } } } } } B z l l v q                                 ",
"                                h k l z I } } } } } n s s m } } l s z } } M f z } } ` T z l l g                                 ",
"                      +       , l l z I } } B c ` { ` z c ` } } ` ` } } } z s s K } } } R z l l ,       $                       ",
"                    7 %.w   X z l z B } } K s s c } { { ` } } } } } } } ` B f k ` } } } } B l l z X   y %.8                     ",
"                  . #.&. .. d z l c } } } Z s s n } } } } } B T } } } } ` ` } ` ` ` K ` } } M l l d + O.%.#..                   ",
"                  3 &.%.%.;.k z z } } } } } N M } } } } } z a s W } } B L } } ` ` M a f ` } W z k z ;.%.&.&.1                   ",
"                  y %.%.%.b z k F } } } } } } } } } } } } z a a T } D s s M ` ` } c s s N } } M l l b %.%.%.e                   ",
"                  -  .1 - z k z ' } G f f ' } } } x x } ` Q c B } } M s s c } } } W z x } } } } z l z * - u $                   ",
"                        > z l m } } x a a F } } c a a M } } } } } } } M n ` } } } } } } } } } } n l k >                         ",
"                        < l l Z } } F h z } } } M a f L } } } } } } } } ` } ` W } } } } W W } } B l l <                         ",
"                        h z l } } } } } } } } } } Q ' ` } } } } } } } } } } z s z } } R s s D } ` l l h                         ",
"          O i ;         l l z } } } } } } } } } } } } } } } } } } } } } } } h s f } } N s s n } ` z l l         ; r O           ",
"          i e.6.: : : : z l x } } K z M } } } c c ` } } } } } } } } } } } } M j n } } } z l W } } x l z : : : : 8.8.i           ",
"          p e.e.e.e.e.e.l l c } } z a s } } M s a M } } } } } } } } } } } } } } } } } } } } } } } n l l e.e.e.e.e.9.p           ",
"          p e.9.r.r.r.r.k z c } } z s f } } N s s B } } } } } } } } } } } } } } } } } } } } } } } c z z e.e.e.e.e.e.p           ",
"          i e.4.: : : : z k c } } ` M T } } } M M } } } } } } } } } } } } } B z M } } } c c } } } c k k : : : : 4.e.i           ",
"          O r ;         l l z } } } } } } } } } } } ` } } } } } } } } } } } h s j } } M s a M } ' z z k         ; r O           ",
"                        h l z ` } } } ` ` } } } } M T } } } } } } } } } } } j s z } } F s a B } Q z z h                         ",
"                        < z l Z } } M s h ` } } n a s T } } } } } } } ` } } ` N } } } } F Z } } F k l <                         ",
"                        > l l c } } z s s T } } n s s B } ` } } } } } M M ` } } } } } } } } } } c z l >                         ",
"                  $ u - $ z l z ` } T k z } } } ` n m ` } D c D } } n s s M } } } } c M } } } } z z z 1 3  .-                   ",
"                  t %.%.%.b l l M } } } } } } } } } ` ` } f s f } } n s s B } } } z a a ' } } M z k b #.%.%.t                   ",
"                  3 %.&.&.:.l l z ` { { { ` c n } } } } } k s f } } } M R ` ` } } x s d } } ` z l k >.%.%.%.1                   ",
"                  . #.%.O.+ d k l M ` ` } M a s M } } } } ` N ` } } } } } } } } } W M T } } c z l d .  .%.+..                   ",
"                    8 %.t   X z k z B ` ` B s s M } ` ` } ` } } } } } } ` M j n } } } } } Z l l l X   w %.6                     ",
"                      # .     , l l z L } ` R B } } B k n ` } } } ` } } ` h s s } } } } Z z l l ,       +                       ",
"                                g l l z T } } } } } z s s N } } j s x } } n s x } } ` L z z l d                                 ",
"                                0 v l l z B } } } } M f f ` } T s s j } } W } } } } B z k k v 0                                 ",
"                              2 e.q.v l l l n ` } } } } } } } } n z V } } } } } ` M k k z v w.8.2                               ",
"                        @ & 2 8.e.8.q d l l l z M ` } } } } } } } } } } } } } M z k k z d 5 8.8.r.0 & @                         ",
"                      . 6.e.e.e.8.2     , z l l l z m N ` ` } ` } W } W B n z l l l z ,     2 8.e.r.r.4..                       ",
"                      . 4.9.e.9.0         X d l l l l l z z x n n n z l k l k l l d X         2 e.e.r.2..                       ",
"                        & 4.e.e.&           . :.b z l l l l l l j l l l l l z b <.+           & e.e.4.%                         ",
"                          & 2.4.@         w ..&.%.1 > < h l z l l z l h < > * &.&.X.y         @ 4.2.&                           ",
"                            . .         + %.%.%.%.1         : e.e.:         - %.&.%.&.#         . .                             ",
"                                          7 #.%.%. .        : e.e.:         u &.&.%.7                                           ",
"                                            . 1 t =         : e.e.:         $ e 3 .                                             ",
"                                                            : e.e.:                                                             ",
"                                                          ; 4.e.e.8.;                                                           ",
"                                                          r e.e.e.e.r                                                           ",
"                                                          O i p p i O                                                           ",
"                                                                                                                                ",
"                                                                                                                                ",
"                                                                                                                                ",
"                                                                                                                                ",
"                                                                                                                                "
};
