/* XPM */
static char * sprite_xpm[] = {
"64 64 190 2",
"  	c None",
". 	c #000000",
"+ 	c #091B30",
"@ 	c #2C598E",
"# 	c #3971B2",
"$ 	c #30619C",
"% 	c #0F2642",
"& 	c #122C4A",
"* 	c #3265A0",
"= 	c #3870B2",
"- 	c #295588",
"; 	c #061527",
"> 	c #020712",
", 	c #356AA8",
"' 	c #498EDF",
") 	c #4486D3",
"! 	c #488DDD",
"~ 	c #3D79BF",
"{ 	c #041121",
"] 	c #3F7DC4",
"^ 	c #488CDC",
"/ 	c #4586D3",
"( 	c #498EDE",
"_ 	c #31639E",
": 	c #0A1E35",
"< 	c #478BDA",
"[ 	c #3A73B7",
"} 	c #0E2540",
"| 	c #30639C",
"1 	c #498FE0",
"2 	c #244E7D",
"3 	c #295486",
"4 	c #2D5B90",
"5 	c #4688D6",
"6 	c #030C18",
"7 	c #1A3A5F",
"8 	c #4A8FE1",
"9 	c #0D243E",
"0 	c #4689D8",
"a 	c #3B75B9",
"b 	c #040E1C",
"c 	c #4485D2",
"d 	c #051324",
"e 	c #30629C",
"f 	c #143150",
"g 	c #234B79",
"h 	c #254E7D",
"i 	c #3A73B6",
"j 	c #478AD9",
"k 	c #091A2F",
"l 	c #356AA9",
"m 	c #2A578C",
"n 	c #1E406A",
"o 	c #264F80",
"p 	c #498EE0",
"q 	c #224876",
"r 	c #2B588D",
"s 	c #214672",
"t 	c #254E7C",
"u 	c #254F7E",
"v 	c #285385",
"w 	c #204671",
"x 	c #244B7A",
"y 	c #244C7B",
"z 	c #1B3B61",
"A 	c #2E5E96",
"B 	c #030B18",
"C 	c #122B49",
"D 	c #1A3A60",
"E 	c #2C5A90",
"F 	c #32649F",
"G 	c #3467A5",
"H 	c #3468A6",
"I 	c #2C598F",
"J 	c #234B78",
"K 	c #1A395E",
"L 	c #112A47",
"M 	c #030B17",
"N 	c #498DDE",
"O 	c #132C4A",
"P 	c #2A568B",
"Q 	c #1E416A",
"R 	c #1D3F67",
"S 	c #0A1D32",
"T 	c #3B76BA",
"U 	c #4384D0",
"V 	c #4A90E2",
"W 	c #4384CF",
"X 	c #3C78BD",
"Y 	c #2F6099",
"Z 	c #173456",
"` 	c #3265A1",
" .	c #07172B",
"..	c #4587D5",
"+.	c #4383CE",
"@.	c #01040A",
"#.	c #376FAF",
"$.	c #488CDB",
"%.	c #061628",
"&.	c #3D78BE",
"*.	c #4486D2",
"=.	c #4281CB",
"-.	c #041021",
";.	c #407FC8",
">.	c #417FC8",
",.	c #3971B3",
"'.	c #0A1C33",
").	c #08192D",
"!.	c #4383CF",
"~.	c #488DDE",
"{.	c #275183",
"].	c #285386",
"^.	c #0B1E35",
"/.	c #4689D7",
"(.	c #366CAC",
"_.	c #3469A7",
":.	c #3366A3",
"<.	c #376EAF",
"[.	c #3B75BA",
"}.	c #4485D1",
"|.	c #478ADA",
"1.	c #2E5D94",
"2.	c #214773",
"3.	c #3E7BC2",
"4.	c #020812",
"5.	c #1B3D64",
"6.	c #051121",
"7.	c #061324",
"8.	c #122D4C",
"9.	c #153051",
"0.	c #183558",
"a.	c #163354",
"b.	c #143051",
"c.	c #0D233C",
"d.	c #041020",
"e.	c #08192E",
"f.	c #234B7A",
"g.	c #163355",
"h.	c #4282CD",
"i.	c #040E1D",
"j.	c #244B79",
"k.	c #3C76BB",
"l.	c #3F7CC3",
"m.	c #4281CC",
"n.	c #4587D4",
"o.	c #3E7BC3",
"p.	c #3A74B7",
"q.	c #295488",
"r.	c #295589",
"s.	c #2D5C92",
"t.	c #3E7AC1",
"u.	c #3C77BC",
"v.	c #2A5588",
"w.	c #244D7C",
"x.	c #030A18",
"y.	c #386FB0",
"z.	c #091C31",
"A.	c #183659",
"B.	c #20446F",
"C.	c #254E7E",
"D.	c #2F6098",
"E.	c #2D5B92",
"F.	c #1F446E",
"G.	c #081A2E",
"H.	c #3469A6",
"I.	c #0C213A",
"J.	c #30629D",
"K.	c #214774",
"L.	c #1C3E65",
"M.	c #19395D",
"N.	c #18375A",
"O.	c #1D3F66",
"P.	c #3164A0",
"Q.	c #3972B4",
"R.	c #07182B",
"S.	c #0A1D33",
"T.	c #356BAA",
"U.	c #061627",
"V.	c #020912",
"W.	c #254D7C",
"X.	c #407EC6",
"Y.	c #224873",
"Z.	c #091B31",
"`.	c #264F7F",
" +	c #071628",
".+	c #01050A",
"++	c #163253",
"@+	c #376DAD",
"#+	c #2F5F97",
"$+	c #142E4E",
". . . . . . . . . . . . . . . . . . . . . . . . . . . . . . . . . . . . . . . . . . . . . . . . . . . . . . . . . . . . . . . . ",
". . . . . . . . . . . . . . . . . . . . . . . . . . . . . . . . . . . . . . . . . . . . . . . . . . . . . . . . . . . . . . . . ",
". . . . . . . . . . . . . . . . . . . . . . . . . . . . . . . . . . . . . . . . . . . . . . . . . . . . . . . . . . . . . . . . ",
". . . . . . . . . . . . . . . . . . . . . . . . . . . . . . . . . . . . . . . . . . . . . . . . . . . . . . . . . . . . . . . . ",
". . . . . . . . . . . . . . . . . . . . . . . . . . . . . . . . . . . . . . . . . . . . . . . . . . . . . . . . . . . . . . . . ",
". . . . . . . . . . . . . . . . . . . . . . . . . . . . . . . . . . . . . . . . . . . . . . . . . . . . . . . . . . . . . . . . ",
". . . . . . . . . . . . . . . . . . . . . . . . . . . . . . . . . . . . . . . . . . . . . . . . . . . . . . . . . . . . . . . . ",
". . . . . . . . . . . . . . . . . . . . . . . . . . . . . . . . . . . . . . . . . . . . . . . . . . . . . . . . . . . . . . . . ",
". . . . . . . . . . . . . . . . . . . . . . . . . . . . . . . . . . . . . . . . . . . . . . . . . . . . . . . . . . . . . . . . ",
". . . . . . . . . . . . . . . . . . . . . . . . . . . . . . . . . . . . . . . . . . . . . . . . . . . . . . . . . . . . . . . . ",
". . . . . . . . . . . . . . . . . . . . . . . . . . . . . . . . . . . . . . . . . . . . . . . . . . . . . . . . . . . . . . . . ",
". . . . . . . . . . . . . . . . . . . . . . . . . . . . . . . . . . . . . . . . . . . . . . . . . . . . . . . . . . . . . . . . ",
". . . . . . . . . . . . . . . . . . . . . . . . . . . . . . . . . . . . . . . . . . . . . . . . . . . . . . . . . . . . . . . . ",
". . . . . . . . . . . . . . . . . . . . . . . . . . . . . . . . . . . . . . . . . . . . . . . . . . . . . . . . . . . . . . . . ",
". . . . . . . . . . . . . . . . . . . . . . . . . . . . . . . . . . . . . . . . . . . . . . . . . . . . . . . . . . . . . . . . ",
". . . . . . . . . . . . . . . . . . . . . . . . . . . . . . . . . . . . . . . . . . . . . . . . . . . . . . . . . . . . . . . . ",
". . . . . . . . . . . . . . . . . . . . . . . . . . . . . . . . . . . . . . . . . . . . . . . . . . . . . . . . . . . . . . . . ",
". . . . . . . . . . . . . . . . . . . . . . . . . . . . . . . . . . . . . . . . . . . . . . . . . . . . . . . . . . . . . . . . ",
". . . . . . . . . . . . . . . . . . . . . . . . . . . . . . . . . . . . . . . . . . . . . . . . . . . . . . . . . . . . . . . . ",
". . . . . . . . . . . . . . . . . . . . . . . . . . . . . . . . . . . . . . . . . . . . . . . . . . . . . . . . . . . . . . . . ",
". . . . . . . . . . . . . . . . . . . . . . . . . . . . . . . . . . . . . . . . . . . . . . . . . . . . . . . . . . . . . . . . ",
". . . . . . . . . . . . . . . . . . . . . . . . . . . . . . . . . . . . . . . . . . . . . . . . . . . . . . . . . . . . . . . . ",
". . . . . . . . . . . . . . . . . . . . . . . . . . . . . . . . . . . . . . . . . . . . . . . . . . . . . . . . . . . . . . . . ",
". . . . . . . . . . . . . . . . . . . . . . . . . . . . . . . . . . . . . . . . . . . . . . . . . . . . . . . . . . . . . . . . ",
". . . . . . . . . . . . . . . . . . . . . . . . . . . . . . . . . . . . . . . . . . . . . . . . . . . . . . . . . . . . . . . . ",
". . . . . . . . . . . . . . . . . . . . . . . . . . . . . . . . . . . . . . . . . . . . . . . . . . . . . . . . . . . . . . . . ",
". . . . . . . . . . . . . . . . . . . . . . . . . . . . . . . . . . . . . . . . . . . . . . . . . . . . . . . . . . . . . . . . ",
". . . . . . . . . . . . . . . . . . . . . . . . . . . . . . . . . . . . . . . . . . . . . . . . . . . . . . . . . . . . . . . . ",
". . . . . . . . . . . . . . . . . . . . . . . . . . . . . . . . . . . . . . . . . . . . . . . . . . . . . . . . . . . . . . . . ",
". . . . . . . . . . . . . . . . . . . . . . . . . . . . . . . . . . . . . . . . . . . . . . . . . . . . . . . . . . . . . . . . ",
". . . . . . . . . . . . . . . . . . . . . . . . . . . . . . . . . . . . . . . . . . . . . . . . . . . . . . . . . . . . . . . . ",
". . . . . . . . . . . . . . . . . . . . . . . . . . . . . . . . . . . . . . . . . . . . . . . . . . . . . . . . . . . . . . . . ",
". . . . . . . . . . . . . . . . . . . . . . . . . . . . . . . . . . . . . . . . . . . . . . . . . . . . . . . . . . . . . . . . ",
". . . . . . . . . . . . . . . . . . . . . . . . . . . . . . . . . . . . . . . . . . . . . . . . . . . . . . . . . . . . . . . . ",
". . . . . . . . . . . . . . . . . . . . . . . . . . . . . . . . . . . . . . . . . . . . . . . . . . . . . . . . . . . . . . . . ",
". . . . . . . . . . . . . . . . . . . . . . . . . . . . . . . . . . . . . . . . . . . . . . . . . . . . . . . . . . . . . . . . ",
". . . . . . . . . . . . . . . . . . . . . . . . . . . . . . . . . . . . . . . . . . . . . . . . . . . . . . . . . . . . . . . . ",
". . . . . . . . . . . . . . . . + @ # $ % . . . . . . . . . . . . . . . . . . . . . & * = - ; . . . . . . . . . . . . . . . . . ",
". . . . . . . . . . . . . . . > , ' ) ! ~ { . . . . . . . . . . . . . . . . . . . + ] ^ / ( _ . . . . . . . . . . . . . . . . . ",
". . . . . . . . . . . . . . . : < [ } | 1 2 . . . . . . . . . . . . . . . . . . . 3 1 4 % ~ 5 6 . . . . . . . . . . . . . . . . ",
". . . . . . . . . . . . . . . 7 8 @ . 9 0 a . . . . . . . . . . . . . . . . . . b ~ c d . e ( f . . . . . . . . . . . . . . . . ",
". . . . . . . . . . . . . . . g 1 h . > i j k . . . . . . . . . . . . . . . . . % ^ l . . m ' n . . . . . . . . . . . . . . . . ",
". . . . . . . . . . . . . . . o p q . . r p s . . . . . . . . . . . . . . . . . t 1 u . . v p w . . . . . . . . . . . . . . . . ",
". . . . . . . . . . . . . . . x 1 y . . z 8 A . B C D y E F G l H _ I J K L M . * N O . . P ' Q . . . . . . . . . . . . . . . . ",
". . . . . . . . . . . . . . . R 8 P . . S ^ T _ ~ U ! V V V V V V V V V ^ W X e ~ 0 . . . Y ( Z . . . . . . . . . . . . . . . . ",
". . . . . . . . . . . . . . . } p ` . .  ...V V V V V V V V V V V V V V V V V V V +.. . @.#.$.{ . . . . . . . . . . . . . . . . ",
". . . . . . . . . . . . . . . %.U &.. .  .*.V V V V V V V V V V V V V V V V V V V =.. . -.;.>.. . . . . . . . . . . . . . . . . ",
". . . . . . . . . . . . . . . > ,.j '.. ).5 V V V V V V V V V V V V V V V V V V V !.. . & ~., . . . . . . . . . . . . . . . . . ",
". . . . . . . . . . . . . . . . {.1 ].. ^.N V V /.W ] [ (._.` _ :., <.[.>.}.|.V V j > . 1.p 2.. . . . . . . . . . . . . . . . . ",
". . . . . . . . . . . . . . . . ^./ 3.4.5.V V ' 5.6.7.9 8.9.Z 0.a.b.& c.d.e.f.V V ( g.e.=.h.i.. . . . . . . . . . . . . . . . . ",
". . . . . . . . . . . . . . . . @._ ' j.1.V V 8 k.a l.m.c n./.j /.n.c =.o.p.~ V V 1 q.r.1 s.. . . . . . . . . . . . . . . . . . ",
". . . . . . . . . . . . . . . . . % ) =.t.V V V V V V V V V V V V V V V V V V V V V u.c h.e.. . . . . . . . . . . . . . . . . . ",
". . . . . . . . . . . . . . . . . . v.p 8 V V 0 }./.^ p V V V V V V V ' $.5 }.j V V 8 ! w.. . . . . . . . . . . . . . . . . . . ",
". . . . . . . . . . . . . . . . . . x.y.V V 1 r z.A.B.C.- s.Y Y D.E.q.h F.Z G.D.V V 8 H.. . . . . . . . . . . . . . . . . . . . ",
". . . . . . . . . . . . . . . . . . . I.&.V V W = J.- K.L.D M.N.M.D O.q P P.Q.*.V 8 i R.. . . . . . . . . . . . . . . . . . . . ",
". . . . . . . . . . . . . . . . . . . . % u.8 V V V V V 8 ^ ^ < ^ ! 8 V V V V V 1 i S.. . . . . . . . . . . . . . . . . . . . . ",
". . . . . . . . . . . . . . . . . . . . . S.T.^ V V V V V V V V V V V V V V V < ` U.. . . . . . . . . . . . . . . . . . . . . . ",
". . . . . . . . . . . . . . . . . . . . . . V.W.X.' V V V V V V V V V V V N ] Y.. . . . . . . . . . . . . . . . . . . . . . . . ",
". . . . . . . . . . . . . . . . . . . . . . . . Z.v ~ 5 ' V V V V V ' ..k.`. +. . . . . . . . . . . . . . . . . . . . . . . . . ",
". . . . . . . . . . . . . . . . . . . . . . . . . . .+++C.Y _.@+_.#+w.$+. . . . . . . . . . . . . . . . . . . . . . . . . . . . ",
". . . . . . . . . . . . . . . . . . . . . . . . . . . . . . . . . . . . . . . . . . . . . . . . . . . . . . . . . . . . . . . . ",
". . . . . . . . . . . . . . . . . . . . . . . . . . . . . . . . . . . . . . . . . . . . . . . . . . . . . . . . . . . . . . . . ",
". . . . . . . . . . . . . . . . . . . . . . . . . . . . . . . . . . . . . . . . . . . . . . . . . . . . . . . . . . . . . . . . ",
". . . . . . . . . . . . . . . . . . . . . . . . . . . . . . . . . . . . . . . . . . . . . . . . . . . . . . . . . . . . . . . . "};
