/* XPM */
static char * hud_xpm[] = {
"64 64 83 1",
" 	c None",
".	c #FF0000",
"+	c #653830",
"@	c #663931",
"#	c #653931",
"$	c #040101",
"%	c #0B0302",
"&	c #070202",
"*	c #0E0403",
"=	c #673A32",
"-	c #9E685E",
";	c #4E241C",
">	c #4D231B",
",	c #673A31",
"'	c #51281D",
")	c #BE8753",
"!	c #BE8854",
"~	c #BE8754",
"{	c #683B32",
"]	c #51271D",
"^	c #653831",
"/	c #4F261C",
"(	c #BF8955",
"_	c #C08956",
":	c #BD8753",
"<	c #4F251C",
"[	c #EDC299",
"}	c #EEC39A",
"|	c #FEEDDE",
"1	c #231B1C",
"2	c #BF8855",
"3	c #4C231B",
"4	c #160F09",
"5	c #EEC49B",
"6	c #FEFDFD",
"7	c #292EBB",
"8	c #EDC29A",
"9	c #140E09",
"0	c #ECC299",
"a	c #DEA26A",
"b	c #EEC399",
"c	c #DEA36B",
"d	c #010101",
"e	c #1D1209",
"f	c #323C39",
"g	c #3B3F3A",
"h	c #DEA36A",
"i	c #373E3A",
"j	c #323B38",
"k	c #1D2925",
"l	c #15100B",
"m	c #140F09",
"n	c #EBC198",
"o	c #1B130C",
"p	c #020202",
"q	c #1A130B",
"r	c #B18051",
"s	c #0C0703",
"t	c #0C0603",
"u	c #B28052",
"v	c #0D0703",
"w	c #B38153",
"x	c #0D0804",
"y	c #150D05",
"z	c #150C05",
"A	c #F5D6B8",
"B	c #B38254",
"C	c #EEC39B",
"D	c #F4D5B7",
"E	c #15110E",
"F	c #15110D",
"G	c #0C0602",
"H	c #171512",
"I	c #171411",
"J	c #010100",
"K	c #000000",
"L	c #181511",
"M	c #514A23",
"N	c #524B24",
"O	c #514A24",
"P	c #090702",
"Q	c #050401",
"R	c #3B3512",
"................................................................",
".                                                              .",
".                                                              .",
".                             +@@#                             .",
".                              #@@#                            .",
".                             $%#@@&                           .",
".                            #@#%@@#&+                         .",
".                          #@@@#%@@#%@@#                       .",
".                         #@@@@*#@@*#=@@                       .",
".                        #@@=@@@@@@@=-=@                       .",
".                       #@@=-===@@==-=@@#                      .",
".                       @@@@=---==-==@;@#                      .",
".                       @@@@@===--=@@;@@>                      .",
".                       @@@,,,@@==@,,,@>>                      .",
".                       @@')!~{@@@')!)]>>                      .",
".                       ^/)((_:]<]:_(()<>                      .",
".                       ><([}|1!2!1|}[(<>                      .",
".                       34[}5678}8765}[43                      .",
".                        9[}}58}}}85}}[9                       .",
".                         0}}}}}}}}}}}0                        .",
".                          ab}}}}}}}ba                         .",
".                           c}}}}}}}c                          .",
".                           ab}}}}}ba                          .",
".                            ab}}}ba                           .",
".                           deab}baed                          .",
".                       ffffffgahagffffff                      .",
".                     fffffffffiiifffffffjk                    .",
".                     fffffffffffffffffkkkk                    .",
".                      lffffffffffffffkkkm                     .",
".                      nopffffffffffffkdqn                     .",
".                      [rsffffffffffffktr[                     .",
".                      [uvffffffffffffktu[                     .",
".                      [uvffffffffffffktu[                     .",
".                      [wvfffffffffffkktw[                     .",
".                      [[offfffffffffkkq[[                     .",
".                      [}rxfffffffffkksr}[                     .",
".                     0}}wyfffffffffkkzw}}0                    .",
".                     [}}[rxfffffffkksr[}}[                    .",
".                     [}}ABvffffffkkktBA}}[                    .",
".                     [}}CDEffffkkkkkFDC}}[                    .",
".                     [}}}wGHHHHIIIIIGw}}}0                    .",
".                     0}}[rGIIIIJIIIIGr[}[                     .",
".                      0[u KIIIIKIIIIK rur                     .",
".                           IIIIKIIII                          .",
".                           IIIIKIIII                          .",
".                           IIIIKIIII                          .",
".                           IIIIKIIII                          .",
".                           IIIIKIIII                          .",
".                           IIIIKIIII                          .",
".                           IIIIKIIII                          .",
".                           IIIIKIIII                          .",
".                           LLLI ILLL                          .",
".                          MNNO   ONNM                         .",
".                         MPNNNO ONNNPM                        .",
".                        ONNNNNNQNNNNNNO                       .",
".                        RNNNNNO ONNNNNR                       .",
".                         RRRRR   RRRRR                        .",
".                                                              .",
".                                                              .",
".                                                              .",
".                                                              .",
".                                                              .",
".                                                              .",
"................................................................"};
