/* XPM */
static char *sprite[] = {
/* columns rows colors chars-per-pixel */
"3 3 2 1 ",
"  c None",
". c #0029FF",
/* pixels */
".  ",
"   ",
"  ."
};
