/* XPM */
static char * sprite3_xpm[] = {
"64 64 100 2",
"  	c None",
". 	c #000000",
"+ 	c #3F546E",
"@ 	c #64768B",
"# 	c #3F546F",
"$ 	c #405671",
"% 	c #687A8F",
"& 	c #67798F",
"* 	c #687A90",
"= 	c #66798F",
"- 	c #68798F",
"; 	c #6A7C91",
"> 	c #677990",
", 	c #A7B8CB",
"' 	c #B0C1D4",
") 	c #667990",
"! 	c #8DA4BE",
"~ 	c #93A9C3",
"{ 	c #789BC8",
"] 	c #7496C4",
"^ 	c #91AFD4",
"/ 	c #9BB8DA",
"( 	c #C1DBF0",
"_ 	c #DBF2FF",
": 	c #7599C7",
"< 	c #A7C4E1",
"[ 	c #7297C6",
"} 	c #7FA0CA",
"| 	c #A2C0DF",
"1 	c #9AB8DA",
"2 	c #7397C6",
"3 	c #90AFD3",
"4 	c #D4ECFB",
"5 	c #7499C7",
"6 	c #7D9BC6",
"7 	c #7A9CC7",
"8 	c #D1E8F9",
"9 	c #CCE5F6",
"0 	c #9EBBDC",
"a 	c #95B4D7",
"b 	c #B8D2EB",
"c 	c #92B1D6",
"d 	c #CEE7F8",
"e 	c #7B9CC8",
"f 	c #AFCBE6",
"g 	c #AFC2DD",
"h 	c #D8E2EF",
"i 	c #7697C5",
"j 	c #81A1CB",
"k 	c #9AB9DA",
"l 	c #A4C1E0",
"m 	c #BBCCE2",
"n 	c #EAEFF6",
"o 	c #7899C6",
"p 	c #7E9FCA",
"q 	c #CAE2F5",
"r 	c #7799C6",
"s 	c #A6C3E1",
"t 	c #C2DCF1",
"u 	c #90AFD4",
"v 	c #88A8D0",
"w 	c #ACC7E4",
"x 	c #DAF0FE",
"y 	c #DAF1FF",
"z 	c #CDE6F7",
"A 	c #8AAAD1",
"B 	c #B6D1EA",
"C 	c #9DBDDC",
"D 	c #D1ECFC",
"E 	c #88A9D0",
"F 	c #83A3CC",
"G 	c #7698C5",
"H 	c #7598C5",
"I 	c #C1DDF3",
"J 	c #A4C6E4",
"K 	c #B5DDF5",
"L 	c #B1D8F2",
"M 	c #A9C5E3",
"N 	c #98BEDF",
"O 	c #B5DCF5",
"P 	c #799BC7",
"Q 	c #87A7CF",
"R 	c #A1C7E6",
"S 	c #9EC3E4",
"T 	c #87AAD2",
"U 	c #B4DDF5",
"V 	c #9FC5E4",
"W 	c #9AC0E1",
"X 	c #B1DAF2",
"Y 	c #AAD1ED",
"Z 	c #95BBDE",
"` 	c #86AAD1",
" .	c #88ACD3",
"..	c #789AC6",
"+.	c #A1C7E5",
"@.	c #92B6DA",
"#.	c #AED6F0",
"$.	c #AAD2ED",
"%.	c #7D9FCA",
"&.	c #89AAD1",
". . . . . . . . . . . . . . . . . . . . . . . . . . . . . . . . . . . . . . . . . . . . . . . . . . . . . . . . . . . . . . . . ",
". . . . . . . . . . . . . . . . . . . . . . . . . . . . . . . . . . . . . . . . . . . . . . . . . . . . . . . . . . . . . . . . ",
". . . . . . . . . . . . . . . . . . . . . . . . . . . . . . . . . . . . . . . . . . . . . . . . . . . . . . . . . . . . . . . . ",
". . . . . . . . . . . . . . . . . . . . . . . . . . . . . . . . . . . . . . . . . . . . . . . . . . . . . . . . . . . . . . . . ",
". . . . . . . . . . . . . . . . . . . . . . . . . . . . . . . . . . . . . . . . . . . . . . . . . . . . . . . . . . . . . . . . ",
". . . . . . . . . . . . . . . . . . . . . . . . . . . . . . . . . . . . . . . . . . . . . . . . . . . . . . . . . . . . . . . . ",
". . . . . . . . . . . . . . . . . . . . . . . . . . . . . . . . . . . . . . . . . . . . . . . . . . . . . . . . . . . . . . . . ",
". . . . . . . . . . . . . . . . . . . . . . . . . . . . . . . . . . . . . . . . . . . . . . . . . . . . . . . . . . . . . . . . ",
". . . . . . . . . . . . . . . . . . . . . . . . . . . . . . . . . . . . . . . . . . . . . . . . . . . . . . . . . . . . . . . . ",
". . . . . . . . . . . . . . . . . . . . . . . . . . . . . . . . . . . . . . . . . . . . . . . . . . . . . . . . . . . . . . . . ",
". . . . . . . . . . . . . . . . . . . . . . . . . . . . . . . . . . . . . . . . . . . . . . . . . . . . . . . . . . . . . . . . ",
". . . . . . . . . . . . . . . . . . . . . . . . . . . . . . . . . . . . . . . . . . . . . . . . . . . . . . . . . . . . . . . . ",
". . . . . . . . . . . . . . . . . . . . . . . . . . . . . . . . . . . . . . . . . . . . . . . . . . . . . . . . . . . . . . . . ",
". . . . . . . . . . . . . . . . . . . . . . . . . . . . . . . . . . . . . . . . . . . . . . . . . . . . . . . . . . . . . . . . ",
". . . . . . . . . . . . . . . . . . . . . . . . . . . . . . . . . . . . . . . . . . . . . . . . . . . . . . . . . . . . . . . . ",
". . . . . . . . . . . . . . . . . . . . . . . . . . . . . . . . . . . . . . . . . . . . . . . . . . . . . . . . . . . . . . . . ",
". . . . . . . . . . . . . . . . . . . . . . . . . . . . . . . . . . . . . . . . . . . . . . . . . . . . . . . . . . . . . . . . ",
". . . . . . . . . . . . . . . . . . . . . . . . . . . . . . . . . . . . . . . . . . . . . . . . . . . . . . . . . . . . . . . . ",
". . . . . . . . . . . . . . . . . . . . . . . . . . . . . . . . . . . . . . . . . . . . . . . . . . . . . . . . . . . . . . . . ",
". . . . . . . . . . . . . . . . . . . . . . . . . . . . . . . . . . . . . . . . . . . . . . . . . . . . . . . . . . . . . . . . ",
". . . . . . . . . . . . . . . . . . . . . . . . . . . . . . . . . . . . . . . . . . . . . . . . . . . . . . . . . . . . . . . . ",
". . . . . . . . . . . . . . . . . . . . . . . . . . . . . . . . . . . . . . . . . . . . . . . . . . . . . . . . . . . . . . . . ",
". . . . . . . . . . . . . . . . . . . . . . . . . . . . . . . . . . . . . . . . . . . . . . . . . . . . . . . . . . . . . . . . ",
". . . . . . . . . . . . . . . . . . . . . . . . . . . . . . . . . . . . . . . . . . . . . . . . . . . . . . . . . . . . . . . . ",
". . . . . . . . . . . . . . . . . . . . . . . . . . . . . . . . . . . . . . . . . . . . . . . . . . . . . . . . . . . . . . . . ",
". . . . . . . . . . . . . . . . . . . . . . . . . . . . . . . . . . . . . . . . . . . . . . . . . . . . . . . . . . . . . . . . ",
". . . . . . . . . . . . . . . . . . . . . . . . . . . . . . . . . . . . . . . . . . . . . . . . . . . . . . . . . . . . . . . . ",
". . . . . . . . . . . . . . . . . . . . . . . . . . . . . . . . . . . . . . . . . . . . . . . . . . . . . . . . . . . . . . . . ",
". . . . . . . . . . . . . . . . . . . . + + + + + . . . . . . . . . . . . . . . . . . . . . . . . . . . . . . . . . . . . . . . ",
". . . . . . . . . . . . . . . . . . . + + @ @ @ + # . + + + + $ + + # . . . . . . . . . . . . . . . . . . . . . . . . . . . . . ",
". . . . . . . . . . . . . . . . . . + + % & * * & # # + = = = = = = # . . . . . . . . . . . . . . . . . . . . . . . . . . . . . ",
". . . . . . . . . . . . . . . . . . + & = = # - = = ; ; = & > > & = # . . . . . . . . . . . . . . . . . . . . . . . . . . . . . ",
". . . . . . . . . . . . . . . . . . # # - + # + + % - & = , ' ' , = # . . . . . . . . . . . . . . . . . . . . . . . . . . . . . ",
". . . . . . . . . . . . . . . . . . . # + + . . + + # # ) ! ~ ~ ! ) # . . . . . . . . . . . . . . . . . . . . . . . . . . . . . ",
". . . . . . . . . . . . . . . . . . . . . . . . . { ] ] ] ] ] ] ] ] ] ] { . . . . . . . . . . . . . . . . . . . . . . . . . . . ",
". . . . . . . . . . . . . . . . . . . . . . . . . { ] ^ / / / / / / ^ ] { . . . . . . . . . . . . . . . . . . . . . . . . . . . ",
". . . . . . . . . . . . . . . . . . . . . . . . . { ] ( _ _ _ _ _ _ ( ] { . . . . . . . . . . . . . . . . . . . . . . . . . . . ",
". . . . . . . . . . . . . . . . . . . . . . . . . : ] / < < < < < < / ] : . . . . . . . . . . . . . . . . . . . . . . . . . . . ",
". . . . . . . . . . . . . . . . . . . . . . . ] ] [ [ [ [ [ [ [ [ [ [ [ [ [ [ . . . . . . . . . . . . . . . . . . . . . . . . . ",
". . . . . . . . . . . . . . . . . . . . . . ] } < | 1 1 1 1 1 1 1 1 1 1 | < 2 [ . . . . . . . . . . . . . . . . . . . . . . . . ",
". . . . . . . . . . . . . . . . . . . . . ] 3 4 _ _ _ _ _ _ _ _ _ _ _ _ _ _ 4 5 [ . . . . . . . . . . . . . . . . . . . . . . . ",
". . . . . . . . . . . . . . . . . . . . 6 7 8 _ _ _ 9 0 a b _ _ _ _ _ _ _ _ _ 8 [ [ . . . . . . . . . . . . . . . . . . . . . . ",
". . . . . . . . . . . . . . . . . . . . ] c _ _ _ d e ] ] ] f _ _ _ _ _ _ _ _ _ c ] . . . . . . . . . . . . . . . . . . . . . . ",
". . . . . . . . . . . . . . . . . . . . ] / _ _ _ < ] g h i j _ _ _ _ _ _ _ _ _ / [ . . . . . . . . . . . . . . . . . . . . . . ",
". . . . . . . . . . . . . . . . . . . . ] k _ _ _ l ] m n o p _ _ _ _ _ _ _ _ _ k [ . . . . . . . . . . . . . . . . . . . . . . ",
". . . . . . . . . . . . . . . . . . . . ] k _ _ _ q r ] ] ] s _ _ _ _ _ _ _ _ _ k [ . . . . . . . . . . . . . . . . . . . . . . ",
". . . . . . . . . . . . . . . . . . . . ] k _ _ _ _ t u v w x _ _ _ _ 4 y _ _ _ k ] . . . . . . . . . . . . . . . . . . . . . . ",
". . . . . . . . . . . . . . . . . . . . ] k _ _ _ _ _ _ _ _ _ _ _ z A ] e B _ _ k ] . . . . . . . . . . . . . . . . . . . . . . ",
". . . . . . . . . . . . . . . . . . . . ] C D D D D D D D D D D D E ] F G H I D C ] . . . . . . . . . . . . . . . . . . . . . . ",
". . . . . . . . . . . . . . . . . . . . ] J K K K K K K K K K K L ] F _ M ] N K J ] . . . . . . . . . . . . . . . . . . . . . . ",
". . . . . . . . . . . . . . . . . . . . ] J K K K K K K K K K K O P G M Q ] R K J ] . . . . . . . . . . . . . . . . . . . . . . ",
". . . . . . . . . . . . . . . . . . . . ] J K K K K K K K K K K K S H ] ] T O K J ] . . . . . . . . . . . . . . . . . . . . . . ",
". . . . . . . . . . . . . . . . . . . . ] J K K K K K U V W X K K K Y N R O K K J ] . . . . . . . . . . . . . . . . . . . . . . ",
". . . . . . . . . . . . . . . . . . . . [ J K K K K K Z ] ] ` K K K K K K K K K J ] . . . . . . . . . . . . . . . . . . . . . . ",
". . . . . . . . . . . . . . . . . . . . [ J K K K K K  .] ] ..K K K K K K K K K J ] . . . . . . . . . . . . . . . . . . . . . . ",
". . . . . . . . . . . . . . . . . . . . [ J K K K K K +.i ] @.K K K K K K K K K J ] . . . . . . . . . . . . . . . . . . . . . . ",
". . . . . . . . . . . . . . . . . . . . [ J K K K K K K #.$.K K K K K K K K K K J ] . . . . . . . . . . . . . . . . . . . . . . ",
". . . . . . . . . . . . . . . . . . . . ] J K K K K K K K K K K K K K K K K K K J ] . . . . . . . . . . . . . . . . . . . . . . ",
". . . . . . . . . . . . . . . . . . . . ] %.&.&.&.&.&.&.&.&.&.&.&.&.&.&.&.&.&.&.%.] . . . . . . . . . . . . . . . . . . . . . . ",
". . . . . . . . . . . . . . . . . . . . { [ [ [ [ [ [ [ [ [ [ [ ] ] [ [ [ [ [ [ [ { . . . . . . . . . . . . . . . . . . . . . . ",
". . . . . . . . . . . . . . . . . . . . . . . . . . . . . . . . . . . . . . . . . . . . . . . . . . . . . . . . . . . . . . . . ",
". . . . . . . . . . . . . . . . . . . . . . . . . . . . . . . . . . . . . . . . . . . . . . . . . . . . . . . . . . . . . . . . ",
". . . . . . . . . . . . . . . . . . . . . . . . . . . . . . . . . . . . . . . . . . . . . . . . . . . . . . . . . . . . . . . . ",
". . . . . . . . . . . . . . . . . . . . . . . . . . . . . . . . . . . . . . . . . . . . . . . . . . . . . . . . . . . . . . . . "};
