/* XPM */
static char * tex_xpm[] = {
"64 64 347 2",
"  	c None",
". 	c #6E6E6E",
"+ 	c #868686",
"@ 	c #4D4D4D",
"# 	c #4D4D4E",
"$ 	c #4E4D4E",
"% 	c #4E4E4E",
"& 	c #4E4D4D",
"* 	c #4D4E4D",
"= 	c #4E4E4D",
"- 	c #4D4E4E",
"; 	c #4F4F4F",
"> 	c #504F4F",
", 	c #4F504F",
"' 	c #505050",
") 	c #343434",
"! 	c #958F8F",
"~ 	c #E71C1C",
"{ 	c #F49501",
"] 	c #28941D",
"^ 	c #FCF2F2",
"/ 	c #4B4B4B",
"( 	c #494949",
"_ 	c #4A4949",
": 	c #4A4A49",
"< 	c #494A49",
"[ 	c #454645",
"} 	c #464646",
"| 	c #454545",
"1 	c #444444",
"2 	c #424242",
"3 	c #424142",
"4 	c #454546",
"5 	c #444443",
"6 	c #414241",
"7 	c #414142",
"8 	c #3E3D3E",
"9 	c #3E3D3D",
"0 	c #3E3E3E",
"a 	c #3C3C3C",
"b 	c #3A3A3A",
"c 	c #3E3E3D",
"d 	c #3A3A39",
"e 	c #393A3A",
"f 	c #363636",
"g 	c #323232",
"h 	c #303030",
"i 	c #2E2E2E",
"j 	c #2C2C2D",
"k 	c #2B2B2A",
"l 	c #2B2B2B",
"m 	c #2C2C2C",
"n 	c #2A2A2B",
"o 	c #2A2B2A",
"p 	c #282829",
"q 	c #272627",
"r 	c #262627",
"s 	c #272727",
"t 	c #252525",
"u 	c #232323",
"v 	c #272726",
"w 	c #262727",
"x 	c #252524",
"y 	c #212121",
"z 	c #F59600",
"A 	c #1F201F",
"B 	c #1F1F1F",
"C 	c #20201F",
"D 	c #1E1E1D",
"E 	c #1B1B1B",
"F 	c #1A1A1A",
"G 	c #1D1D1D",
"H 	c #1B1B1C",
"I 	c #1C1B1C",
"J 	c #1A1919",
"K 	c #19191A",
"L 	c #181818",
"M 	c #181817",
"N 	c #161616",
"O 	c #151414",
"P 	c #121213",
"Q 	c #171717",
"R 	c #141414",
"S 	c #121212",
"T 	c #131212",
"U 	c #131213",
"V 	c #111111",
"W 	c #101111",
"X 	c #101110",
"Y 	c #111011",
"Z 	c #0F0F0F",
"` 	c #0D0D0E",
" .	c #0C0B0C",
"..	c #0C0C0C",
"+.	c #7C7C7C",
"@.	c #6D6E6E",
"#.	c #6E6D6E",
"$.	c #6D6D6D",
"%.	c #7D7D7D",
"&.	c #313132",
"*.	c #313131",
"=.	c #323131",
"-.	c #313231",
";.	c #323132",
">.	c #313232",
",.	c #323231",
"'.	c #2F3030",
").	c #2F2F2F",
"!.	c #2F302F",
"~.	c #302F30",
"{.	c #2F2F30",
"].	c #302F2F",
"^.	c #30302F",
"/.	c #2E2D2E",
"(.	c #2D2D2D",
"_.	c #2D2D2E",
":.	c #2E2E2D",
"<.	c #2D2E2D",
"[.	c #2E2D2D",
"}.	c #2D2E2E",
"|.	c #31A1F1",
"1.	c #2C2B2C",
"2.	c #2C2B2B",
"3.	c #000000",
"4.	c #2B2B2C",
"5.	c #2B2C2C",
"6.	c #77BFF3",
"7.	c #2C2C2B",
"8.	c #2B2C2B",
"9.	c #292929",
"0.	c #2A2929",
"a.	c #961C1C",
"b.	c #0047FF",
"c.	c #2A2A29",
"d.	c #2A2A2A",
"e.	c #2A292A",
"f.	c #292A2A",
"g.	c #272728",
"h.	c #282828",
"i.	c #282728",
"j.	c #272828",
"k.	c #252626",
"l.	c #562900",
"m.	c #262626",
"n.	c #262526",
"o.	c #262625",
"p.	c #252625",
"q.	c #242323",
"r.	c #F5BE39",
"s.	c #F7D074",
"t.	c #242424",
"u.	c #232424",
"v.	c #242423",
"w.	c #222221",
"x.	c #222121",
"y.	c #222222",
"z.	c #212222",
"A.	c #1F2020",
"B.	c #202020",
"C.	c #1E1E1E",
"D.	c #06319F",
"E.	c #9ACCF1",
"F.	c #1C1C1B",
"G.	c #1C1B1B",
"H.	c #1C1C1C",
"I.	c #191A1A",
"J.	c #1B1A1A",
"K.	c #2A85C8",
"L.	c #171818",
"M.	c #181918",
"N.	c #181819",
"O.	c #171617",
"P.	c #161717",
"Q.	c #171616",
"R.	c #161617",
"S.	c #151415",
"T.	c #151514",
"U.	c #131313",
"V.	c #121312",
"W.	c #111110",
"X.	c #0D0D0D",
"Y.	c #0D0E0D",
"Z.	c #0E0D0D",
"`.	c #0E0E0D",
" +	c #0B0B0C",
".+	c #0C0C0B",
"++	c #0B0C0B",
"@+	c #0B0B0B",
"#+	c #090A09",
"$+	c #090909",
"%+	c #090A0A",
"&+	c #0A0909",
"*+	c #070707",
"=+	c #070807",
"-+	c #080707",
";+	c #080807",
">+	c #050505",
",+	c #060505",
"'+	c #050506",
")+	c #060605",
"!+	c #050606",
"~+	c #060506",
"{+	c #060606",
"]+	c #6F6F6F",
"^+	c #6E6F6F",
"/+	c #6F6E6E",
"(+	c #6F6F6E",
"_+	c #7D7E7D",
":+	c #7D7D7E",
"<+	c #4F504E",
"[+	c #959693",
"}+	c #979894",
"|+	c #3E3F3E",
"1+	c #3F3F3F",
"2+	c #3E3F3F",
"3+	c #2B2A2B",
"4+	c #50504F",
"5+	c #50514F",
"6+	c #40403F",
"7+	c #484C40",
"8+	c #8F967D",
"9+	c #9BA08A",
"0+	c #8C947B",
"a+	c #393B34",
"b+	c #474C40",
"c+	c #393C35",
"d+	c #272626",
"e+	c #484C41",
"f+	c #393B35",
"g+	c #3A3C35",
"h+	c #484D41",
"i+	c #393C36",
"j+	c #3A3C36",
"k+	c #282928",
"l+	c #292928",
"m+	c #292828",
"n+	c #222323",
"o+	c #3A461E",
"p+	c #83964B",
"q+	c #A2AD76",
"r+	c #7D9240",
"s+	c #2F3620",
"t+	c #222223",
"u+	c #3B461E",
"v+	c #303721",
"w+	c #3B471F",
"x+	c #303722",
"y+	c #3B4720",
"z+	c #252424",
"A+	c #1E1F1E",
"B+	c #1F1E1E",
"C+	c #39461B",
"D+	c #84984B",
"E+	c #2D341D",
"F+	c #3A461B",
"G+	c #2D351D",
"H+	c #3A471B",
"I+	c #2D351E",
"J+	c #2E351D",
"K+	c #201F20",
"L+	c #2E351E",
"M+	c #202120",
"N+	c #3A471C",
"O+	c #2E351F",
"P+	c #2E361E",
"Q+	c #212120",
"R+	c #1A1B1B",
"S+	c #20241B",
"T+	c #748A35",
"U+	c #9FAC73",
"V+	c #9FAB72",
"W+	c #6D8526",
"X+	c #21241B",
"Y+	c #21241A",
"Z+	c #21241C",
"`+	c #21251C",
" @	c #21251B",
".@	c #22251C",
"+@	c #1D1C1D",
"@@	c #1D1D1E",
"#@	c #171817",
"$@	c #1E2217",
"%@	c #7A8E4E",
"&@	c #AAACA2",
"*@	c #728A36",
"=@	c #1E2218",
"-@	c #1F2318",
";@	c #202419",
">@	c #202418",
",@	c #181919",
"'@	c #191919",
")@	c #1A1A19",
"!@	c #131414",
"~@	c #141413",
"{@	c #141314",
"]@	c #131314",
"^@	c #1B2013",
"/@	c #728936",
"(@	c #1B2014",
"_@	c #1C2114",
":@	c #1C2014",
"<@	c #1C2015",
"[@	c #1D2115",
"}@	c #151515",
"|@	c #151615",
"1@	c #0F1010",
"2@	c #101010",
"3@	c #191E10",
"4@	c #191D10",
"5@	c #191E0F",
"6@	c #191E11",
"7@	c #1A1E10",
"8@	c #1A1E11",
"9@	c #1B1E11",
"0@	c #1B1F11",
"a@	c #121211",
"b@	c #121111",
"c@	c #111211",
"d@	c #0C0C0D",
"e@	c #171C0C",
"f@	c #798E41",
"g@	c #A5AD89",
"h@	c #71892D",
"i@	c #171C0D",
"j@	c #181C0E",
"k@	c #181D0E",
"l@	c #0E0E0E",
"m@	c #0D0E0E",
"n@	c #0E0D0E",
"o@	c #080908",
"p@	c #080808",
"q@	c #141A09",
"r@	c #798F37",
"s@	c #738C26",
"t@	c #141A08",
"u@	c #151A08",
"v@	c #151B09",
"w@	c #151A0A",
"x@	c #151A09",
"y@	c #151B0A",
"z@	c #0A0A0A",
"A@	c #0A0B0B",
"B@	c #0B0A0A",
"C@	c #797F6F",
"D@	c #718A28",
"E@	c #7A7E74",
"F@	c #79806F",
". . . . . . . . . . . . . . . . . . . . . . . . . . . . . . . . . . . . . . . . . . . . . . . . . . . . . . . . . . . . . . . . ",
"+ + + + + + + + + + + + + + + + + + + + + + + + + + + + + + + + + + + + + + + + + + + + + + + + + + + + + + + + + + + + + + + + ",
"+ + + + + + + + + + + + + + + + + + + + + + + + + + + + + + + + + + + + + + + + + + + + + + + + + + + + + + + + + + + + + + + + ",
"@ @ @ # # $ @ # % @ & # & # % * @ & $ * * * @ # & # # # @ & @ * * & # & # # * * * = * @ = @ & @ @ @ # $ @ @ = * $ @ * = @ & & & ",
"$ & * & * * * @ * * * # & # @ * = - - * $ # # $ @ = @ - - * * - & & # * @ @ = = @ * & $ * * # & - @ & * @ * * @ @ & @ @ # @ # & ",
"@ - - @ & @ & & ; > , * @ # @ * # & & $ @ @ & * @ @ @ @ & ' @ & @ * & & # @ = # * # = - * @ @ $ & & - # @ @ @ # @ * @ @ = % # @ ",
"# * @ ) ) ) ) ) ) ) ) @ @ = ) ) ) ) ) ) ) ) @ * @ @ - & ) ) ) ) ) ) ) ) * * = $ = @ ) ) ) ) ) ) ) ) * @ * ) ) ) ) ) ) ) ) # @ & ",
"* % ) ) ! ! ! ! ! ! ) ) * ) ) ! ! ! ! ! ! ) ) & * @ & ) ) ! ! ! ! ! ! ) ) @ @ # @ ) ) ! ! ! ! ! ! ) ) $ ) ) ! ! ! ! ! ! ) ) * @ ",
"@ % ) ) ! ) ) ) ) ! ) ) = ) ) ! ) ) ) ) ! ) ) @ $ & * ) ) ! ) ) ) ) ! ) ) - @ & & ) ) ! ) ) ) ) ! ) ) @ ) ) ! ) ) ) ) ! ) ) # @ ",
"$ # ) ) ) ) ) ) ) ) ) ) * ) ) ) ) ) ) ) ) ) ) @ @ # * ) ) ) ) ) ) ) ) ) ) # @ @ * ) ) ) ) ) ) ) ) ) ) @ ) ) ) ) ) ) ) ) ) ) # @ ",
"* = ) ~ ~ ~ ~ ~ ~ ~ ~ ) @ ) ~ ~ ~ ~ ~ ~ ~ ~ ) @ % # # ) { { { { { { { { ) @ # = $ ) ] ] ] ] ] ] ] ] ) & ) ] ] ] ] ] ] ] ] ) * @ ",
"@ @ ) ~ ~ ~ ~ ~ ~ ~ ^ ) @ ) ~ ~ ~ ~ ~ ~ ~ ^ ) @ * @ $ ) { { { { { { { ^ ) @ @ @ * ) ] ] ] ] ] ] ] ^ ) @ ) ] ] ] ] ] ] ] ^ ) = @ ",
"@ * ) ~ ~ ~ ~ ~ ~ ~ ^ ) @ ) ~ ~ ~ ~ ~ ~ ~ ^ ) @ @ & & ) { { { { { { { ^ ) & @ $ @ ) ] ] ] ] ] ] ] ^ ) / ) ] ] ] ] ] ] ] ^ ) ( _ ",
"@ @ ) ~ ~ ~ ~ ^ ^ ^ ~ ) / ) ~ ~ ~ ~ ^ ^ ^ ~ ) : < < _ ) { { { { ^ ^ ^ { ) [ [ } | ) ] ] ] ] ^ ^ ^ ] ) 1 ) ] ] ] ] ^ ^ ^ ] ) 2 3 ",
"4 | ) ~ ~ ^ ^ ^ ^ ~ ~ ) 5 ) ~ ~ ^ ^ ^ ^ ~ ~ ) 6 3 2 7 ) { { ^ ^ ^ ^ { { ) 8 9 0 9 ) ] ] ^ ^ ^ ^ ] ] ) a ) ] ] ^ ^ ^ ^ ] ] ) b b ",
"c 0 ) ~ ^ ^ ^ ~ ~ ~ ~ ) a ) ~ ^ ^ ^ ~ ~ ~ ~ ) d e e b ) { ^ ^ ^ { { { { ) f f f f ) ] ^ ^ ^ ] ] ] ] ) ) ) ] ^ ^ ^ ] ] ] ] ) g g ",
"f f ) ^ ~ ~ ~ ~ ~ ~ ~ ) ) ) ^ ~ ~ ~ ~ ~ ~ ~ ) g g g h ) ^ { { { { { { { ) i i i i ) ^ ] ] ] ] ] ] ] ) j ) ^ ] ] ] ] ] ] ] ) k l ",
"i i ) ^ ~ ~ ~ ~ ~ ~ ~ ) m ) ^ ~ ~ ~ ~ ~ ~ ~ ) n l o p ) ^ { { { { { { { ) q r s s ) ^ ] ] ] ] ] ] ] ) t ) ^ ] ] ] ] ] ] ] ) u u ",
"v w ) ~ ~ ~ ~ ~ ~ ~ ~ ) x ) ~ ~ ~ ~ ~ ~ ~ ~ ) u u y y ) { { { { { { z { ) A B B C ) ] ] ] ] ] ] ] ] ) D ) ] ] ] ] ] ] ] ] ) E F ",
"B B ) ) ~ ~ ~ ~ ~ ~ ) ) G ) ) ~ ~ ~ ~ ~ ~ ) ) H I J K ) ) { { { { { { ) ) L L M L ) ) ] ] ] ] ] ] ) ) N ) ) ] ] ] ] ] ] ) ) O P ",
"Q M L ) ) ) ) ) ) ) ) N N N ) ) ) ) ) ) ) ) R R S S T U ) ) ) ) ) ) ) ) V V W V X Y ) ) ) ) ) ) ) ) Z Z Z ) ) ) ) ) ) ) ) `  ...",
"+.+.+.. . . @.#.. . . +.+.+.$.$.$.$.$.$.$.$.+.+.+.+.+.+.$.$.$.$.$.$.$.$.+.+.+.+.+.+.$.$.$.$.$.$.$.$.+.+.+.$.$.$.$.$.$.$.$.+.+.+.",
"%.%.%.%.%.%.%.%.%.%.%.%.%.%.%.%.%.%.%.%.%.%.%.%.%.%.%.%.%.%.%.%.%.%.%.%.%.%.%.%.%.%.%.%.%.%.%.%.%.%.%.%.%.%.%.%.%.%.%.%.%.%.%.%.",
"$.$.$.$.$.$.$.$.$.$.$.$.$.$.$.$.$.$.$.$.$.$.$.$.$.$.$.$.$.$.$.$.$.$.$.$.$.$.$.$.$.$.$.$.$.$.$.$.$.$.$.$.$.$.$.$.$.$.$.$.$.$.$.$.",
"&.&.*.*.=.*.*.*.*.*.*.&.*.-.*.&.*.=.g ;.g -.&.-.-.g >.*.g ,.,.g ,.>.g ,.&.>.,.g g >.>.g >.*.&.>.,.&.;.&.>.>.*.g ;.>.>.g =.;.>.;.",
"'.'.).!.!.~.).!.{.).~.).).{.].).).].^.h ~.h h h ].h h {.{.'.!.h h h ^.~.'.~.~.~.~.'.h {.h h ].h '.h ].!.).].^.!.~.h ^.{.h '.h h ",
"/.(._.(.(.(.:.(.<.(.(._.(./.(.(.:.[.}./.i _._.[.i }./.i i :.}.}.i <./.i i /./.i i }./.i <._.}._./.}.<.<.|.|.|.|.|.|.|.}.}./.}.i ",
"1.2.3.3.3.3.3.3.3.3.3.3.3.3.3.3.3.3.3.3.3.3.3.3.3.3.3.3.3.3.3.3.3.3.3.3.3.3.3.3.3.3.3.3.3.3.3.4.m 5.1.2.|.6.6.6.6.6.|.m 7.m m 8.",
"9.0.3.a.~ ~ b.b.b.b.b.b.b.b.b.b.b.b.b.b.b.~ ~ a.3.a.~ ~ b.b.b.b.b.b.b.b.b.b.b.b.b.b.b.~ ~ a.3.c.d.d.e.c.c.|.6.6.6.|.d.0.f.f.0.0.",
"s s 3.~ ~ b.b.b.b.b.b.b.b.b.b.b.b.b.b.b.b.b.~ ~ 3.~ ~ b.b.b.b.b.b.b.b.b.b.b.b.b.b.b.b.b.~ ~ 3.g.h.h.h.h.h.|.6.6.6.|.g.i.h.h.j.j.",
"k.t 3.~ b.b.b.b.b.b.b.l.l.l.l.l.l.b.b.b.b.b.b.~ 3.~ b.b.b.b.b.b.b.l.l.l.l.l.l.b.b.b.b.b.b.~ 3.m.k.n.m.o.|.6.6.6.6.6.|.m.p.n.m.n.",
"q.q.3.b.b.b.b.b.b.l.l.r.l.s.s.r.s.l.b.b.b.b.b.b.3.b.b.b.b.b.b.l.l.r.l.s.s.r.s.l.b.b.b.b.b.b.3.t.t.u.v.|.6.6.6.6.6.6.6.|.t.t.t.v.",
"w.x.3.b.b.b.b.b.l.r.s.l.s.r.l.s.l.s.l.b.b.b.b.b.3.b.b.b.b.b.l.r.s.l.s.r.l.s.l.s.l.b.b.b.b.b.3.y.y.z.|.6.6.6.6.6.6.6.6.6.|.z.y.y.",
"A.A 3.b.b.b.b.b.l.l.s.r.s.s.s.r.s.r.l.b.b.b.b.b.3.b.b.b.b.b.l.l.s.r.s.s.s.r.s.r.l.b.b.b.b.b.3.B.B.|.6.6.6.6.6.6.6.6.6.6.6.|.C C ",
"C.G 3.~ b.b.b.b.D.l.l.s.r.l.s.s.l.l.D.b.b.b.b.~ 3.~ b.b.b.b.D.l.l.s.r.l.s.s.l.l.D.b.b.b.b.~ 3.C.C.|.|.E.E.E.E.E.E.E.E.E.|.|.C.C.",
"F.G.3.~ ~ b.b.b.b.D.D.l.l.l.l.l.D.D.D.b.b.b.~ ~ 3.~ ~ b.b.b.b.D.D.l.l.l.l.l.D.D.D.b.b.b.~ ~ 3.H.H.H.|.6.6.6.6.6.6.6.6.6.|.H.H.H.",
"I.F 3.a.~ ~ b.b.b.b.D.D.D.D.D.D.D.b.b.b.b.~ ~ a.3.a.~ ~ b.b.b.b.D.D.D.D.D.D.D.b.b.b.b.~ ~ a.3.J.F |.6.6.6.6.6.6.6.6.6.6.6.K.F F ",
"L L.3.3.3.3.3.3.3.3.3.3.3.3.3.3.3.3.3.3.3.3.3.3.3.3.3.3.3.3.3.3.3.3.3.3.3.3.3.3.3.3.3.3.3.3.3.L M.|.|.E.E.E.E.E.E.E.E.E.|.|.N.L ",
"N N 3.a.~ ~ b.b.b.b.b.b.b.b.b.b.b.b.b.b.b.~ ~ a.3.a.~ ~ b.b.b.b.b.b.b.b.b.b.b.b.b.b.b.~ ~ a.3.O.P.Q.|.6.6.6.6.6.6.6.6.6.|.O.R.Q ",
"R O 3.~ ~ b.b.b.b.b.b.b.b.b.b.b.b.b.b.b.b.b.~ ~ 3.~ ~ b.b.b.b.b.b.b.b.b.b.b.b.b.b.b.b.b.~ ~ 3.S.R |.6.6.6.6.6.6.6.6.6.6.6.|.S.T.",
"T U.3.~ b.b.b.b.b.b.b.l.l.l.l.l.l.b.b.b.b.b.b.~ 3.~ b.b.b.b.b.b.b.l.l.l.l.l.l.b.b.b.b.b.b.~ 3.P U.|.|.E.E.E.E.E.E.E.E.E.|.|.U.V.",
"V V 3.b.b.b.b.b.b.l.l.r.l.s.s.r.s.l.b.b.b.b.b.b.3.b.b.b.b.b.b.l.l.r.l.s.s.r.s.l.b.b.b.b.b.b.3.V W.V |.6.6.6.6.6.6.6.6.6.|.V V V ",
"Z Z 3.b.b.b.b.b.l.r.s.l.s.r.l.s.l.s.l.b.b.b.b.b.3.b.b.b.b.b.l.r.s.l.s.r.l.s.l.s.l.b.b.b.b.b.3.Z Z |.6.6.6.6.6.6.6.6.6.6.6.|.Z Z ",
"X.Y.3.b.b.b.b.b.l.l.s.r.s.s.s.r.s.r.l.b.b.b.b.b.3.b.b.b.b.b.l.l.s.r.s.s.s.r.s.r.l.b.b.b.b.b.3.Z.`.|.|.E.E.E.E.E.E.E.E.E.|.|.Y.X.",
".. +3.~ b.b.b.b.D.l.l.s.r.l.s.s.l.l.D.b.b.b.b.~ 3.~ b.b.b.b.D.l.l.s.r.l.s.s.l.l.D.b.b.b.b.~ 3. +...+|.6.6.6.6.6.6.6.6.6.|.++@+ +",
"#+$+3.~ ~ b.b.b.b.D.D.l.l.l.l.l.D.D.D.b.b.b.~ ~ 3.~ ~ b.b.b.b.D.D.l.l.l.l.l.D.D.D.b.b.b.~ ~ 3.%+#+|.6.6.6.6.6.6.6.6.6.6.6.|.#+&+",
"*+*+3.a.~ ~ b.b.b.b.D.D.D.D.D.D.D.b.b.b.b.~ ~ a.3.a.~ ~ b.b.b.b.D.D.D.D.D.D.D.b.b.b.b.~ ~ a.3.=+-+|.6.6.6.6.6.6.6.6.6.6.6.|.;+=+",
">+,+3.3.3.3.3.3.3.3.3.3.3.3.3.3.3.3.3.3.3.3.3.3.3.3.3.3.3.3.3.3.3.3.3.3.3.3.3.3.3.3.3.3.3.3.3.'+>+)+|.|.|.|.|.|.|.|.|.|.|.!+~+{+",
"%.%.]+]+^+/+. (+]+(+]+]+]+]+]+]+]+]+]+]+]+]+]+]+]+]+]+]+]+]+]+]+]+]+]+]+]+]+]+]+]+]+]+]+]+]+]+%.%.%.%.%.%._+%.%.%.%.%.%.:+%.%.:+",
"%.%.%.%.%.%.%.%.%.%.%.%.%.%.%.%.%.%.%.%.%.%.%.%.%.%.%.%.%.%.%.%.%.%.%.%.%.%.%.%.%.%.%.%.%.%.%.%.%.%.%.%.%.%.%.%.%.%.%.%.%.%.%.%.",
"$.$.$.$.$.$.]+]+]+$.$.$.]+]+]+$.$.$.]+]+]+$.$.$.]+]+]+$.$.$.]+]+]+$.$.$.]+]+]+$.$.$.]+]+]+$.$.$.]+]+]+$.$.$.]+]+]+$.$.$.$.$.$.$.",
"e.f.f.c.d.<+[+}+[+|+c.<+[+}+[+1+k <+[+}+[+2+3+4+[+}+[+2+d.<+[+}+[+1+l 5+[+}+[+1+l 4+[+}+[+1+8.4+[+}+[+1+1.5+[+}+[+6+m m m m m m ",
"o.m.m.m.m.7+8+9+0+a+m.b+8+9+0+c+v 7+8+9+0+c+d+7+8+9+0+a+w e+8+9+0+f+q 7+8+9+0+g+i.h+8+9+0+i+h.h+8+9+0+i+j.e+8+9+0+j+k+9.9.l+m+h.",
"y.y.y.y.n+o+p+q+r+s+t+u+p+q+r+v+u w+p+q+r+v+u w+p+q+r+v+u w+p+q+r+v+u w+p+q+r+x+u.w+p+q+r+x+u.y+p+q+r+x+t.y+p+q+r+x+t t z+t x z+",
"A+B+B C.A+C+D+q+r+E+A+F+D+q+r+G+B F+D+q+r+G+A H+D+q+r+I+A H+D+q+r+J+K+H+D+q+r+L+M+N+D+q+r+O+B.N+D+q+r+P+Q+N+D+q+r+L+B.y y y y x.",
"E R+E E S+T+U+q+V+W+X+T+U+q+V+W+Y+T+U+q+V+W+Z+T+U+q+V+W+`+T+U+q+V+W+ @T+U+q+V+W+.@T+U+q+V+W+.@T+U+q+V+W+`+T+U+q+V+W++@H.@@G G G ",
"Q Q Q #@$@%@&@&@&@*@=@%@&@&@&@*@$@%@&@&@&@*@-@%@&@&@&@*@-@%@&@&@&@*@-@%@&@&@&@*@;@%@&@&@&@*@>@%@&@&@&@*@;@%@&@&@&@*@,@'@'@)@F F ",
"!@~@{@]@^@%@&@&@&@/@(@%@&@&@&@/@(@%@&@&@&@/@_@%@&@&@&@/@:@%@&@&@&@/@<@%@&@&@&@/@:@%@&@&@&@/@[@%@&@&@&@/@[@%@&@&@&@/@}@}@}@|@N N ",
"1@1@2@2@3@%@&@&@&@/@4@%@&@&@&@/@5@%@&@&@&@/@6@%@&@&@&@/@7@%@&@&@&@/@7@%@&@&@&@/@8@%@&@&@&@/@9@%@&@&@&@/@0@%@&@&@&@/@S a@b@c@b@P ",
"..d@..d@e@f@g@g@g@h@e@f@g@g@g@h@e@f@g@g@g@h@i@f@g@g@g@h@i@f@g@g@g@h@i@f@g@g@g@h@i@f@g@g@g@h@j@f@g@g@g@h@k@f@g@g@g@h@l@l@m@l@m@n@",
";+o@o@p@q@r@q+q+q+s@t@r@q+q+q+s@u@r@q+q+q+s@v@r@q+q+q+s@w@r@q+q+q+s@x@r@q+q+q+s@w@r@q+q+q+s@y@r@q+q+q+s@y@r@q+q+q+s@z@z@A@z@B@B@",
"+.+.+.+.+.C@D@D@D@E@+.C@D@D@D@E@+.C@D@D@D@E@+.C@D@D@D@E@+.C@D@D@D@E@+.C@D@D@D@E@+.C@D@D@D@E@+.F@D@D@D@E@+.C@D@D@D@E@+.+.+.+.+.+.",
"+.+.+.+.+.+.+.+.+.+.+.+.+.+.+.+.+.+.+.+.+.+.+.+.+.+.+.+.+.+.+.+.+.+.+.+.+.+.+.+.+.+.+.+.+.+.+.+.+.+.+.+.+.+.+.+.+.+.+.+.+.+.+.+.",
"$.$.$.$.$.$.$.$.$.$.$.$.$.$.$.$.$.$.$.$.$.$.$.$.$.$.$.$.$.$.$.$.$.$.$.$.$.$.$.$.$.$.$.$.$.$.$.$.$.$.$.$.$.$.$.$.$.$.$.$.$.$.$.$."};
