/* XPM */
static char *_ac4a8a8ca2a408dd2c95fb02d49171ejFF4Ds9zw6v9k0HS[] = {
/* columns rows colors chars-per-pixel */
"64 64 8 1 ",
"  c #684400",
". c #7B5205",
"X c #644917",
"o c #535049",
"O c gray37",
"+ c #6F6E6C",
"@ c #875E12",
"# c #9A7228",
/* pixels */
"oooooooooooooooooooooooooooooooooooooooooooooooooooooooooooooooo",
"oooooooooooooooooooooooooooooooooooooooooooooooooooooooooooooooo",
"oooooooooooooooooooooooooooooooooooooooooooooooooooooooooooooooo",
"ooooOooooOooooooooooooooooooooooooooooOoooooooooOooooooooooooooo",
"ooOOOOOOOOOOooooOOOOOOOooooOOOooooOOOOOOOooooooOOOOOooooOooooOoo",
"oOOOOOOOOOOOOOOOOOOOOOOOOOOOOOOOOOOOOOOOOOOOOOOOOOOOOOOOOOOOOOOo",
"OOOOOOOOOOOOOOOOO+OOOOOOOOOO++OOOOOOOOOOOOOOOOOOOOOOOOOOOOOOOOOO",
"OOOOOO+++OO++OOO++++OO++++OO++OOOO+++++++OO+++++++++++++++++++OO",
"+++++++.+++.+++++++++++..++++++++++.....++++   +++++.+++..++++++",
"  ++ ..........         .................       +++..++..     ++",
"                                ........                        ",
"                                                                ",
"                                                                ",
"                                                                ",
"                                                                ",
"         ..............                              .....      ",
"        ................                            .......     ",
"        ..#####..........                           .......     ",
"        ..XXXXXX....@....                    ..............     ",
"        ......##...##....                   ...#...........     ",
"         .....XXX..X#....                 .....##...##....      ",
"           ......  X#....      ................X#...X##...      ",
"                    X...      .................X##...X#..       ",
"                              .....##..........XX###.....       ",
"                              .....XX....##......XXX....        ",
"                              ...........XX............         ",
"       .....                  ................   .....          ",
"      .......                  ....                             ",
"     .................                                          ",
"    ...................                                         ",
"   ....................                                         ",
".....#..#####.....##...                                         ",
"....##..XXXX#.....XX...                                         ",
".####X......X..##.....                                          ",
"..XXX..........XX.....     .........                            ",
".........#..............  ...............   ........            ",
".........##..................................................   ",
"     ....X####......##.......#####.........#..................  ",
"     ....XXXXXX.....X###.....#XXXX.........X##....##..........  ",
"      ..............XXX#.....#X.............X##...#X..........  ",
"                  ....X##....XX  .....#..##.XXXX.#X...........  ",
"                    ..XXX.....    ....##.XX.....##X..........   ",
"                         ......  .....X#........XXXX....        ",
"                        ..............X##............           ",
"                ....... ...............XXX.........             ",
"             ....................................               ",
"          ......................................       ....     ",
"      ..............##...............                 ..........",
"    ................X###............                 ...........",
"   .................XXX####........                 ............",
"  .........##.........XXXXX........                .............",
"  .........X##..................##..........     .....###.......",
"  .........XXX..................X##..........  .......#XX....#..",
"  ..............................XX##..................XX.....X..",
"   ....................   .......XX##....................       ",
"                             .....XX#....#######........        ",
"                              .....XX....XXXXXXX......          ",
"                               ......................           ",
"                ..............  ......   ..........             ",
" ......        ................                                 ",
"........     .....########.....                          ...... ",
"..###..#.. ......XXXXXXXXX.....                         ........",
"..XX#..X.....#...##............                         ...####.",
"....X........X...XX...........                          ...XXXX."
};
