/* XPM */
static char *_c7bcf8725764079a66fcf7d229dfbc9oRaTbhKvApbL3YB7[] = {
/* columns rows colors chars-per-pixel */
"64 64 197 2 ",
"   c #792825",
".  c #7F282F",
"X  c #6E2C33",
"o  c #712735",
"O  c #782B32",
"+  c #7B2834",
"@  c #7C3335",
"#  c #7D353C",
"$  c #76383C",
"%  c #743239",
"&  c #792F40",
"*  c #743641",
"=  c #773E47",
"-  c #7D3B42",
";  c #7D3445",
":  c #774045",
">  c #784349",
",  c #831C1F",
"<  c #862125",
"1  c #85242C",
"2  c #852C2E",
"3  c #842B34",
"4  c #82353B",
"5  c #8C323A",
"6  c #833A3D",
"7  c #883939",
"8  c #933036",
"9  c #9B3435",
"0  c #91363A",
"q  c #9D3D3D",
"w  c #A82F2C",
"e  c #A83432",
"r  c #A23F3C",
"t  c #AF3E3F",
"y  c #A63635",
"u  c #9C423E",
"i  c #AA413D",
"p  c #843141",
"a  c #853C42",
"s  c #823E4B",
"d  c #8C3945",
"f  c #9C3F43",
"g  c #903E4A",
"h  c #9B3C4A",
"j  c #A43E44",
"k  c #A43F4A",
"l  c #844045",
"z  c #8B4243",
"x  c #84414A",
"c  c #8B444B",
"v  c #8E4E4F",
"b  c #944343",
"n  c #9B4345",
"m  c #93474B",
"M  c #9C464B",
"N  c #954C4F",
"B  c #9B4B4D",
"V  c #96504D",
"C  c #99504A",
"Z  c #844757",
"A  c #8B4553",
"S  c #804D57",
"D  c #8D4C53",
"F  c #80475A",
"G  c #994552",
"H  c #964E54",
"J  c #9A4D54",
"K  c #964D5A",
"L  c #9A4F5A",
"P  c #954551",
"I  c #8E5353",
"U  c #86525C",
"Y  c #8D5258",
"T  c #8E595B",
"R  c #965056",
"E  c #985156",
"W  c #955A57",
"Q  c #985856",
"!  c #965259",
"~  c #9A515D",
"^  c #9C505D",
"/  c #9C505F",
"(  c #9D525E",
")  c #98555D",
"_  c #9A525B",
"`  c #94585D",
"'  c #99595F",
"]  c #A34244",
"[  c #AD4244",
"{  c #A3454A",
"}  c #AA464D",
"|  c #A2494B",
" . c #AC4A4D",
".. c #B24A4A",
"X. c #BC4B4D",
"o. c #B74347",
"O. c #BB514E",
"+. c #A34B53",
"@. c #AB4B52",
"#. c #A24E5B",
"$. c #AC4D5A",
"%. c #B34C54",
"&. c #B74859",
"*. c #B44651",
"=. c #AC5356",
"-. c #AC545B",
";. c #AC595B",
":. c #AA5858",
">. c #B3545D",
",. c #B75F5F",
"<. c #BC535B",
"1. c #8E5361",
"2. c #8F5B62",
"3. c #8F5A6A",
"4. c #975562",
"5. c #955562",
"6. c #9A5361",
"7. c #985562",
"8. c #995565",
"9. c #9A5462",
"0. c #945963",
"q. c #9A5A63",
"w. c #96576A",
"e. c #9B566A",
"r. c #955969",
"t. c #995B69",
"y. c #B45D63",
"u. c #976067",
"i. c #9E6167",
"p. c #9D636A",
"a. c #9E696E",
"s. c #9F6672",
"d. c #9F6870",
"f. c #A0666D",
"g. c #A1686E",
"h. c #AC6166",
"j. c #BE6464",
"k. c #A36D72",
"l. c #A26572",
"z. c #A87176",
"x. c #A77379",
"c. c #AA767B",
"v. c #AC7B7B",
"b. c #A37074",
"n. c #C7534F",
"m. c #C35657",
"M. c #C7535C",
"N. c #C45B5B",
"B. c #CB5C5D",
"V. c #C95954",
"C. c #CA625E",
"Z. c #D3635B",
"A. c #C15960",
"S. c #CE5D63",
"D. c #D75F66",
"F. c #C76164",
"G. c #CA6364",
"H. c #C0666C",
"J. c #CB6D69",
"K. c #D36464",
"L. c #D6676C",
"P. c #D76B6F",
"I. c #DC6D6C",
"U. c #D56765",
"Y. c #D3706E",
"T. c #D46E72",
"R. c #D87073",
"E. c #E0676A",
"W. c #EC6A68",
"Q. c #EB766F",
"!. c #EB7372",
"~. c #EB7E7C",
"^. c #F27779",
"/. c #F27C7A",
"(. c #F37773",
"). c #DB8079",
"_. c #EA837B",
"`. c #B27E83",
"'. c #BC7F84",
"]. c #ED7D81",
"[. c #F27D80",
"{. c #AF8184",
"}. c #AE838B",
"|. c #B6898C",
" X c #B98A8C",
".X c #B28386",
"XX c #B68A92",
"oX c #BA8D92",
"OX c #BC9194",
"+X c #CD8B96",
"@X c #C09397",
"#X c #CA9090",
"$X c #CF969C",
"%X c #EA8285",
"&X c #EC8B85",
"*X c #E48682",
"=X c #EDA7A1",
/* pixels */
"R R R R J R ! H ! ! R ! H H ! H E E ! R H R R H R ! R R K R H R R H H H ! ! H ! J ~ 6.8.8.0.5.6.M ] k G H ! W ! R R ! ! ) ! M r ",
"! R R ! ^ ! ! E H ! ! ) ! H ! ! E ! ! J R E ) ! E E H ! ! ~ E ! ! R H H ! E R ! ! ~ 6.8.8.6./ 5.7.5.9.^ J H R R H m J ) ! J L e.",
"! ! E ^ 6.! ^ ! ! ^ #.+.H R R L L ! ! ! ! Q ~ ~ ) ! ! ! ! Q ^ ! ! ! ! ! ! ! ! ! Q ! ~ ^ ~ ) ) ) 0.r.8.6.H J B $.B.B.r 6 D E 9.e.",
"L L L ^ L L L L L L ^ L J R R J L ! R J R ! ! H ! R H H H E R ! R H H ! ! ! H ! R ! R ! H H H H ! ! R H ! K P %.W.W.y X S ! ! ! ",
"^ L ^ 9.^ #.^ L 6.L ) ! I I v ! ) Q ~ ! ! Q ! ! ^ ! ! ! ) ! E ! ! ! ! H ! Q ! ! E Q ! ! R ) R E ! ) ! ! Q ! K -.L.K.M = U ) ! E ",
"^ ^ ^ 9.^ ^ ~ 6./ 6.D = $ 6 4 D 7.! ! ! ! E ^ ! ~ Q ! ! E ) ! H E R ! ) ^ E ! ! E ! L E ) R ) ! ! E ! ! ! ! 6./ k j J 0.0.Q ^ ! ",
"L L L #.~ ~ ~ L L L D > # < < g 9.^ R E J ! ! ! ! ! R H R ! ! H R R ! ! ! ! ! E H R R ! R R R R E ! K R ! R ) 8.#.G L ) ) ! J ! ",
"L L ^ L ^ ^ L L L ~ D $ 0 m.S.%.G ! ! K ! ! ! ! ! ! R ! ! E E ! J ! ! J ! E ! ! ! R R R R R R ) Q ! ! K L R H ! ! L L 6.~ ! ! ! ",
"L L L 9.L ( L L L 9.A + 9 I.~.<.h J ! K ! ! ! R R E H R R B H H ! R B n M J K ) H B R E ! R R R R R H R H H H E ! ) G | J R R ) ",
"6.#.^ ( ( ( 9.9.( 9.K 5 9 G.Y.>.L Q ) Q ! ) ~ Q Q ) ~ ! Q L E 0.! b t o.*.L 7.0.B B E Q ( ! E ) Q ) ) ) ) Q 7.e.8.^ E | #.E ! Q ",
"L L / ^ L ( ~ L L L 9.^ n r q J 5.R R R E E R ! ! ! ! ! ! B E W = 1 O.~.D.+.Y 0.E G ! ! ! ! R ! ! ! ! H ! ! ) 8.6.6.L { J ! ! Q ",
"L L L / / / L L L 9.( e.L | G L 5.! R R H R R E E L H J J J E R - . <.%XG.+.Y T ' ^ E E R H H H ! ! R H H K ~ ^ ~ L L L E R K ) ",
"L L 6.~ ! ^ L L ! #.8.0.~ J L 5.) R R H ! ! ! ! ! ! ! R ! J E Y Y m @.&.@.B W 1.0.6.J ! ! R R ! ! J H J R R E ^ L L L 6.! E ! E ",
"L L 6.L ~ ^ L L L L ! R H ! ! R R E H R H H R E J R H R R ^ ! R E ! L K K H T I ) ~ H J R H R R ! ! R ! E E H G L K / 8.~ R J ! ",
"~ L ^ ^ ^ ^ 9.L L #.E J B E J J E ^ ! ! ! ! ! ! Q ! R ! E ^ Q R R ) 9.8.r.0.I V G L ^ Q ~ R ) ! ! ! ! H D 9.h.;.L L 8.8.4.) ) Q ",
"L J J 4.~ ^ ! R L ~ E R R R E R E ! ! H E E ! R L ! K E ! ! ! R R ) ~ ~ ) ! R Q E E ! ! ) ! R R E 4.0.= X ;.*XK.} L 0.! R J ! ! ",
"J u n ! ( Q ! ! R ! R R R ) ! ! ! R E R H E ! E ! ! R H ! ! R E H R ! ! R R ! ! R ! R ! ! R E R E ) r.> O :._.K.+.5.0.N J E ) ! ",
"#.F.R.$.p c ! ~ R ) ) R R R ! R ! ! R R R ! ! E ! ! ! ! ! ) ! R ! E E H E ! ! ! ! ! ! ! ! R E R J Q w.F # n ..=.e.e.! B E R ! R ",
"#.P.].&.. a R R ! R R ! H R R H E R R H J E E E R R R H ! E J K H E H ! R R R R E R ! R E H R H J E 5.s # z J 6.e.w.! N J ! E ! ",
"+.m.K.$.d c R R ! R R ! R R ! R E ! E E ! ! ! ! ! ! ! ! ! ! ! ! ! R ! H R R ! ! ! ! H ! ! J ! R J E K A s D ) 0.0.K ! K ! ! E ! ",
"L q f L 4.Q ! H H ! R ! ! H R R ! ! ! H R ! ! R ! E ! J E ! R H H ! R H R ! J R R ! R ! J H ! H N J H ! 4.4.! R N H L ! ! R R R ",
"J B B 4.4.! ) J K ) ~ ~ ) E R R ! ) ! L H E ! ! E ! ! R E ! ! ! ! ! ! ! ! E E R ! R R ! ! ! ! R V E J J ` ) E J B B H ! ) R ) Q ",
"^ L L 6.L L L L / L e.e.L J J R 0.e.6.J { B ^ E ! ! R E ! Q ! ! ! ! ! J E R E ! ! ! ! ! R E ! R E ! ! ! ! ! R ! ! ^ ^ ^ ~ ! K ! ",
"J L L ^ L L L L L L 6./ J M N ! r.w.L B M J ~ L R H H ! ! K K ! H H H ! R ! H H H R J E ! H H R R R H ! K H L ^ ^ L L L ! H R ! ",
"^ ^ ^ ( 9.#.^ ^ ^ 9.^ #.G +.( Q 7.e.^ J L ^ 9.~ ) ) E E Q ^ ^ Q ) ! ! ! ) Q ^ E E E E Q ! ! Q ~ E ^ ~ Q ) ! ^ ^ ^ #.#.9.( E Q ) ",
"L L ^ ^ L ^ ^ ~ ~ ^ E B B L ~ L B L ^ ^ / / L J E ! E E E ! ! R ! ! H H E J H ! ! R E E E J K H ! ! H R E E ! ^ ^ ! L L ^ R E E ",
"/ L ~ ^ L ^ L L L ^ E E ! L B ] ] | L 5.5.8.6.! ! ! ! E ! ! ! H H ! ! ! R ! R ! ! ! E ! ! H ! ! ! ^ H R E R L ~ ^ L L L ! ! E E ",
"L L L 9.L ~ ^ L L L ! ) ` K { N.R.y.5 s 5.e.L ! ! ! ! H ! ! ! ! ! R J H ! ! ! R ! R H R J ! ! ! Q E H ! ! R L ^ ^ J L ~ ~ R ! ! ",
"L ! L ! L L ~ ! L L ~ 0.0.L f B.&Xj.3 ; 5.e.~ ! ! R ! ! ! ! ! H R K ! L L L L L ^ ~ R L ! R R ! ! L R ! ! R L ^ L L L L ! E E ! ",
") ! Q ) ( #.#.^ 9.#.) ' 8.L { X.G.,.c A 0.e.) ~ ) ) ! ! ! ! ~ ) Q Q E ! 9.9.^ ^ ^ ^ ! Q Q ! ! E ^ Q E ! ) ! ~ 9.9.^ 9.^ ^ ! ^ ! ",
"E R ! L ^ 9.L L L L L M J L +.f b B ^ 6.5.8.L ! ! ! ! R ! Q ! J L H K L L ~ ~ ^ L 6.! ! L R R ! R E R R R ! L 9.L L L ^ ! R E E ",
"E R ! ! ^ ^ L L L L L | G J L J J ~ L L L / / K ! ! E J E ! ) H H ! R ! ~ ~ L L L ! J ! ! H R ! E R R J ! R L ^ ^ #.L L ! R R R ",
"R R ! ! ! ~ L L L 6.^ L J B H R 0.4.~ J J L ! R ! ! R H E ! R J ! H H ~ ^ L L L ~ ! R ! J ! R R ! ) R H R R E ~ ^ L L L J R ! ! ",
"R R R R L L ~ L L L 6.8.! N N W 0.e.~ +.{ J ^ R R ! ! E ! E E ! ! ! R K L 9.L K P K ! R R H R R ! ! R R R R J ~ L L L ! ! ! ! H ",
"E E Q ~ ~ 9.^ ~ L ^ 0.8.~ E E R 0.t.9.G B +.^ ) Q ~ ! ! ! Q ! ! ! ! ! ! ^ L +.y.j.;.R ` ) ` K E E ) ) R ) R L L ~ ! ~ ~ ^ ! E ! ",
"E H R J J ! R R J ! ! ) ! R H R ! ! E H R R R E ! R H H H L E H J H ! ) 4.J j K.(.V.m ! ) ! H n E ! H R R B { J ` T R H J ! ~ Q ",
"! E R ! ) R ! ! ! E ! E R ! R R R ! ! E R ! ) ! ! ^ E ! ! E ! E R R ! ! 0.J } F.E.n.i { L R R R R ) R R R H J ! ! N { [ { ! ~ ! ",
"! E ~ Q ! ! ) R R ) ~ Q R R ! ! ! ! ! ! R L ! ! ! ! ! ! ! E ! ! ! ! ! ) ) ! L 5 1 o.!.U. .H 0.0.) E ! ! ! ! 7.5.# 2 m.!.N.J ) Q ",
"! H H ! ! ! ! H H ) ! R H ! ! R J R E R ! ! ! R J ! R H R E R H R R R R E Q ! s # $._.I.@.P ` 1.) R ! ! ! R 4.1.$ 2 N.^.N.H H ! ",
"! ! ! ! R ! ! H ! R ! ! ! R R R ! ! E E E ! ! ! ! ! R R R R R R R R R R R R R x $ b .. .G R ! H R R R ! ! H E H c c =.N.@.H ! ! ",
"H R R ! E ! ! H N N R ) R R R H H E E J ! R R ! R ! R R R R R R R ! ! R R R V u X %   $ Y 4.m C E ! H R R J B | W T R m m R R ) ",
"0.! R 4.4.) 7.J } o.| V R R B B J R ! ! R ) ! E ) ! ! ! R ) E R R ! ! ! ! ! R z $ u # z ! ) E J E ! ! ! R E J E ) ! R R R ' ) ) ",
"0.! R ) ! R H | G.Q.,.H W R ! ~ ~ E R ! E ! ! R R R R R R ! R R ! ! ! H E E ! ! ) Q R R ! R ! ! Q ~ R ! E ! ! ! R R R ) R R R R ",
"Y R H ) H B n ] U._.V.h P ~ w.w.0.! R R R ! ! R R R R H R E E E R H ! H ! R H H R E R W ! H H J H ! H E R E ! ! ! R H R E R ) E ",
"0.! R q.0.) E G { ] X.D.M.} J ! ) Q ! ! R E Q ! ! ^ E ) 4.Q E ! ! ) ! ! ) ) ! ! Q ! E Q ~ ! ! ) ~ Q ! ! ! ! Q ! ) ! ! E ' Q ! ( ",
"1.W B ~ r.0.t.) s o @.^.I.t q M H E R H H E ! ! E R R ) ! R R H R ! ! R R ! ! J J ! ! R ! H ! H E E H L ! H K ! ! R R ! R R R ) ",
"1.! N ~ 0.` E J a * L T.S.+.B H H K H H R H ! ! ! ! H ! ! E R R R ! ! R R K R R ! K E ! L H R R ! R R R ! R J ! ! R R E R R ! ! ",
"! R L 0.! C B n 7 # a 1 5 K 8.5.! R H ! H H E J ! ! R H ! ! ! R ! H H H H ! H E ! ! R R R H E R Q ! H E E L ! ! ! H H R ) ! R ! ",
"H 5.8.8.! ! ! J a 4 a # a H ) ! E Q ! K H E E ! ! ! K ! L ! J R ! R ! J E E R E ! ! ! ! ! E R ! ! ! ! J E E J ^ ^ ^ ^ L ~ K E ! ",
"L L e.8.~ Q ) ! H m c 6 a K ) ! ! ) ~ Q ! ) ) ) ) Q ! ! ! Q ) ) ! ! ! ! ) ) ! ! ! ~ Q ) Q ! ! ! ~ ) Q ! ^ ! ~ 9.^ ^ ^ ^ ^ Q ! E ",
"L L L ~ ! ! R R ! ) c + # H ) H H ! R R ! ! R ! ! ! ! ! R ! R J E ! E R ! ! H ! E E ! H L ! R ! ! R ! K R H ! ^ ~ L ~ L ! R ! ! ",
"L L 9.) ! E R R ! ! H 6 z H R R ! ! R R E ! ! J ! ! ! J ! E R E ! R ! E ! ! R ! R H H ! ! H ! ! ! ! R ! ! R L ^ ^ L L L ^ R E ^ ",
"L L L +.! ! R R E ! ~ ! ! J ! ! Q ! K R R R ! ! R J R R ) R ! ! ! R E K R R R ! R R ! H H R ! ! ! J R R ! ! ! #.L L L ^ ! ! R Q ",
"6.L B J ! R R H R ! ! ! R ! ! ! R R R R H L ! ! ! R ! R K Q ! ! ! ! ! E E E ! R R ! ! ! ) R R ! E E ! R R J ^ ^ ^ L L ^ ^ E ~ ! ",
"L ~ ^ ^ ^ ^ ^ ^ 9.^ ^ Q ! ! ! ! ) ) ) ) R Q ) Q Q ~ ) ! ! B ' 0.A a H ) ! ^ ! ! E ! ^ 4.2.` ! J L #.) 4.E B ! 9.^ 9.9.#.^ ! Q ! ",
"L L 6.L ^ ^ ! ^ L L ! ! R R E E H ! R E K ! ! ! K ! R H J R 0.4.5 , d ! ! E ! Q R L H ` T ! m f { G 6.4.R B J ^ ^ L ^ L E R ! ! ",
"^ ^ ^ ^ ~ ^ ^ L 9.^ ) ! E E Q ~ ! ! ! ! ^ Q R ! ) ! ) ! ) T Y B e w -.s.! H t.a.) R ! ! D b [ n...{ L 8.4.~ ~ ^ ^ ~ L 9.^ ! ! ! ",
"L L ^ ^ L ^ ^ L L L ~ E ! ! ! ! ! E E ! J ! R ) g.i.D ! 6.U * 8 Z.&X+Xl.H R u.p.) ! q.! # < M.[.B.| G 0.0.7.! ! ^ ^ 9.L E J L Q ",
"L L ~ / L ~ / L L L ^ R ! R ! J ! ! ! E E R R ! v..X! H ! D % 5 J.=X$Xf.H R ` 0.R H ) Y 6 2 N.%XG.M J K ! ! L ~ ! L L L ! H R ) ",
"6.L ^ ^ L L L K L #.^ R H ! J ! ! ! R E K ! R R c.@Xv.! H B z ' '.#X Xp.H E R ' t.p.b.a.U D J =.@.J L 5.H H L ~ L L L L ! ! ! ! ",
"L L 9.L 5.6.~ ) ~ 6.~ K ! H H R K E E E ! R H ! c.oX Xc.V b W }.oX Xv.W H ! H t.a.a.f.p.u.! H N J 6.8.8.! H E ) ~ L J L ^ L J B ",
"6.L 9.9.( 4.7.) 7.7.) Q ! E ! ) Q E ! ! ! ! ! H f.|.OXoXk.q.v.OXOX`.q.H V Q R q.v.g.g.b.0.E E ! 5.6.4.6.7.) 8.e.e.^ L J 9.e.E B ",
"L L L L H N N N N B R R H ! E R H H R R R J R H D a. XOXXXXXoXoX{.0.H H R R J H q.p.u.0.R R R R E N H N N N ~ 8.^ ^ L B J W ' R ",
"^ ^ ^ #.H W R R H W ! ! H ! ! H H E ! R R ! ! R H H d. X XXXOX{.0.H K H ! ! H ) b.c.b.p.R H R ) R Y R R R R ! 9.^ L K J J R 2.3."
};
