/* XPM */
static char *e0ce05a5476a400985e42b38a6c7e4a1FskmNo0zYZS6huyF[] = {
/* columns rows colors chars-per-pixel */
"64 64 177 2 ",
"   c #0D0F12",
".  c #0C1016",
"X  c #0C121C",
"o  c #131619",
"O  c #250715",
"+  c #3A3310",
"@  c #0C1524",
"#  c #0B172B",
"$  c #0B182C",
"%  c #0B1A33",
"&  c #0A1D3C",
"*  c #222426",
"=  c #413611",
"-  c #074C08",
";  c #004C19",
":  c #005516",
">  c #005810",
",  c #006B08",
"<  c #22720F",
"1  c #38771B",
"2  c #0B5028",
"3  c #1B6124",
"4  c #5A561C",
"5  c #634D18",
"6  c #695219",
"7  c #72571C",
"8  c #7E691E",
"9  c #735B28",
"0  c #43652B",
"q  c #786828",
"w  c #676237",
"e  c #7B643B",
"r  c #0A1F42",
"t  c #0A2045",
"y  c #09224A",
"u  c #162948",
"i  c #203452",
"p  c #025D44",
"a  c #3C565B",
"s  c #056748",
"d  c #6D6445",
"f  c #706C49",
"g  c #556662",
"h  c #586965",
"j  c #636C73",
"k  c #B0120B",
"l  c #C60A1E",
"z  c #E90019",
"x  c #D83600",
"c  c #FF2521",
"v  c #845D1F",
"b  c #B15418",
"n  c #B45E25",
"m  c #EE4317",
"M  c #CF5320",
"N  c #C56D35",
"B  c #C96F36",
"V  c #A7304A",
"C  c #A74758",
"Z  c #FD7346",
"A  c #008502",
"S  c #008900",
"D  c #008008",
"F  c #148507",
"G  c #188C08",
"H  c #009400",
"J  c #028916",
"K  c #31991B",
"L  c #00A003",
"P  c #34942B",
"I  c #70A42E",
"U  c #45CE06",
"Y  c #00A65E",
"T  c #029F60",
"R  c #228F78",
"E  c #00A964",
"W  c #00BB67",
"Q  c #16BD72",
"!  c #2FA37E",
"~  c #36BB7C",
"^  c #53BE55",
"/  c #658E68",
"(  c #5DBF60",
")  c #00C064",
"_  c #01C06E",
"`  c #00CB7A",
"'  c #35C47F",
"]  c #00E06C",
"[  c #5AC161",
"{  c #949439",
"}  c #F3990A",
"|  c #D0B513",
" . c #E2AE20",
".. c #ECED03",
"X. c #FAD722",
"o. c #FEE728",
"O. c #B88153",
"+. c #ADAA70",
"@. c #DD9756",
"#. c #E79B57",
"$. c #E49D59",
"%. c #EC9E58",
"&. c #CCA55C",
"*. c #DBA15F",
"=. c #F3B64B",
"-. c #C28D6A",
";. c #C2916C",
":. c #C39470",
">. c #EDAD65",
",. c #F5AE64",
"<. c #E8A57B",
"1. c #FFBD70",
"2. c #FFB478",
"3. c #94D352",
"4. c #87EC50",
"5. c #9EC06E",
"6. c #B8C76F",
"7. c #FEC473",
"8. c #FFF763",
"9. c #D450B2",
"0. c #CB72C4",
"q. c #FC69CA",
"w. c #2CAE8B",
"e. c #33B087",
"r. c #6C949C",
"t. c #4DA687",
"y. c #53A996",
"u. c #0CCE8D",
"i. c #34CB81",
"p. c #72CAB9",
"a. c #00B3D2",
"s. c #74B3C9",
"d. c #00C3E3",
"f. c #8D9895",
"g. c #A78FBB",
"h. c #91A6AD",
"j. c #87B6AC",
"k. c #ABB1AF",
"l. c #B2B8B5",
"z. c #CF9398",
"x. c #DBB7B6",
"c. c #EDAABA",
"v. c #BBC3BC",
"b. c #AFE0B7",
"n. c #C9D297",
"m. c #EACF82",
"M. c #FFCA9C",
"N. c #D4C1A4",
"B. c #EAC9A7",
"V. c #EAD9B1",
"C. c #DCFAA7",
"Z. c #F1E8B7",
"A. c #BB8FCC",
"S. c #B7ACD0",
"D. c #D18ADB",
"F. c #EDBECA",
"G. c #D7B9E7",
"H. c #FAA6F0",
"J. c #A6D6CC",
"K. c #BADFDD",
"L. c #95C7E0",
"P. c #87D6E4",
"I. c #92D3EA",
"U. c #B1D3E6",
"Y. c #CED4CD",
"T. c #D2D7D0",
"R. c #D5D9D1",
"E. c #D8DDD5",
"W. c #E6DECC",
"Q. c #FFD6DC",
"!. c #EAF1C2",
"~. c #DEEAED",
"^. c #E0E0E7",
"/. c #E0F0F2",
"(. c #EFFEFF",
"). c #F3FCFB",
"_. c #FCFCFC",
/* pixels */
"y y y y y y y y y y y y y y y y y y y y y y r y y y y y y y y y y y y y y y y y r y y y y y r y y y y y y y y y y y y y y y y y ",
"t y t t t t t y t t r r y y r r r r y r r y y y r y y r r r r r r y r r y r r y r r y r r y a a a r r y r r r a a a r r r y y r ",
"t t r s s p p p s s s r r s s s p p s p s r r r { 6.{ r r r r { 6.{ r r r r { 6.{ r r r r r ~.).~.r r r r r r ~.).~.r r r r r r ",
"& & t ] Q y.t.t.y.~ ] & r ] Q y.t.t.y.Q ] r r r Z Z Z r r & r Z Z Z r r r r Z Z Z r & & r r ~.(.~.r r r & & r ~.).~.r & & r r r ",
"% & & W Q y.y.y.y.Q W & & W Q y.y.y.y.Q W % & & l z l & & & & l z l % & & % l z l & & & & & ~._.~.& & & % & & ~._.~.% & & % & & ",
"% % % E u.e.y.y.w.u.E % % E u.e.y.y.e.u.E % % % l z l % # # & l z l % % % % l z l % # % % % ~._.~.% % % % # % ~.).~.% % % % % % ",
"# # # E u.R y.y.R u.E # # E u.R y.y.R u.E # # # l z l % # # # l z l % % % % l z l % # # # # ~.).~.# # @ # @ # ~.).~.# # # # @ # ",
"@ @ @ Y u.w.y.y.w.u.T # @ T u.w.y.y.w.u.T @ # k z z z k # @ k z z z k @ @ k z z z k @ @ @ h.~./.~.h.# @ @ # h.~.).~.h.@ # @ @ @ ",
"X @ @ ) _ ` u.u.` W W X @ W _ ` u.u.` _ ) X X z m m m z @ X z m m m z @ @ z m m m z @ @ h.~./ / / ~.h.X X h.~./ / / ~.h.X X X X ",
". . . ) _ _ _ ) W W W o . W _ _ W W ` _ W X . z |  .| z . . z |  .| z X . z |  .| z . . ~./ - - - / ~.X X ~./ - - - / ~.  X X X ",
". .   ) E E Y Y E E W   . W E E Y Y Y E W . . l z  .z l . . l z  .z l .   l z  .z l .   r.~./ / / ~.h.    r.~./ / / ~.h.      X ",
"  .   ' ' ' ' ' e.i.i.    ' ' ~ ' ' ' ' i.      k z l         l z k         l z l         f.~.~.~.h.        f.~.~.~.h.          ",
"N.N.N.N.N.N.N.N.N.N.N.N.N.N.N.N.N.N.N.N.N.N.N.N.x.N.N.N.N.N.N.N.N.N.N.N.N.N.N.N.N.N.N.N.N.N.N.N.x.N.N.N.N.N.N.N.N.N.N.N.x.N.N.N.",
"g g g g g g g g g g g h g g g g g g g g g g g g g g g g g g g g g h g h g g g g g g g g g g g h g g g g g g g g g g g g g g g g ",
"t ! ! ! ! ! ! ! ! ! ! ! ! ! ! t V V V V V V V V V V V V V V t t r r Q.Q.r t t t Q.Q.t t t t Q.Q.t t & & H H H t t t t H H H & & ",
"& e.e.e.e.e.e.e.e.e.e.e.e.e.e.& C C C C C C C C C C C C C C r t r _._._._.t & _._._._.t & _._._.).& & [ ( ( ( ( r & ( ( ( [ [ & ",
"& j.J.J.J.J.J.J.G.J.J.g.g.K.j.& z.x.x.x.x.x.x.x.x.x.x.x.x.z.& & & Q.F.F.Q.& & Q.F.F.Q.& & Q.F.F.Q.& & [ p.p.p.[ & & [ p.p.p.[ & ",
"% j.J.J.J.J.J.J.G.G.G.J.g.K.j.% z.x.x.x.x.x.x.V.Z.V.E.x.x.z.% % % c.F.F.c.& % c.F.F.c.% % c.F.F.c.& % [ p.p.p.H & % [ p.p.p.H & ",
"% j.J.J.J.J.S.g.J.G.G.^.J.J.j.% z.x.x.x.x.x.6.x.W.Z.Z.E.x.z.% % # L.P.P.L.# # L.P.P.L.% % L.P.P.P.% % [ b.H H H $ % [ b.H H H % ",
"# j.J.J.J.J.J.0.g.J.J.G.G.J.j.# z.x.x.x.x.x.6.6.x.E.V.Z.x.z.$ $ # L.P.P.L.# # L.P.P.L.$ $ L.P.P.L.$ $ E.[ H H ^ $ $ E.[ H H ^ $ ",
"@ j.J.J.J.J.J.J.0.D.g.J.G.J.j.# z.x.x.x.x.x.n.5.6.x.W.V.x.z.@ @ # U.L.L.U.@ X U.L.L.U.# @ U.L.L.U.@ @ ~.H [ [ ~.@ @ /.H [ ( /.# ",
"X j.J.J.J.J.J.J.J.J.0.S.J.J.j.X z.x.x.x.x.x.6.+.6.6.x.W.x.z.@ @ @ )._._._.@ @ _._._._.X X )._._._.X @ ~.^ (.(./.X X ~.^ (.(./.X ",
"X j.J.J.J.J.J.J.J.J.J.S.J.J.j.X z.x.x.x.x.x.x.x.x.x.x.x.x.z.X X X _._._.).. . _._._._.. X _._._._.  X ~.~.(.(./.X X ~.~.(.(./.X ",
"X e.e.e.e.e.! w.e.e.e.e.e.e.e.. C C C C C C C C C C C C C C . .   _._._._.. . _._._.).  . _._._.).  . ~.(.(.(.~.X X ~.(.(.(./.. ",
". ! ! ! ! ! ! ! ! ! ! ! ! ! ! . V V V V V V V V V V V V V V       _._._._.  . )._._._.  . _._._._.  . ~.(.(.(./.  . ~.(.(.(./.  ",
"N.N.N.N.N.N.N.N.N.N.N.N.N.N.N.N.x.N.N.N.N.N.N.N.N.N.N.N.N.N.N.N.N.x.N.N.N.N.N.N.N.N.N.N.N.N.N.N.N.N.N.N.N.N.N.N.N.N.N.N.N.N.N.N.",
"g g g h f.v.R.R.v.f.h h g g g g g h f.N.R.R.v.f.g g g g g g g h f.v.Y.R.v.f.h g g g g g g g g g g g g g g g h g g g g g g g g g ",
"t t i l.E.E.E.E.E.E.l.i & t t t i l.E.E.E.E.E.E.l.i t t t y i l.R.R.E.E.E.E.l.i t t & = + + + + + + = t t + + + + + + + + & r r ",
"& t l.E.E.E.E.E.E.E.E.l.u & t t l.E.E.E.E.E.E.E.E.l.u r & t l.E.E.E.E.W.E.E.E.l.y & t v 9 f d d f 9 v & & v 9 f d d f q v & & & ",
"& j E.E.R.;.n n ;.R.E.E.j % & j E.E.T.;.n n ;.E.E.E.j & & j E.E.E.;.n n -.R.E.E.j % & 7 9 f f f f 7 7 & & 6 9 f f f f 9 7 & % & ",
"% k.E.E.;.b b b b :.E.E.k.% % k.E.E.:.b b b b :.E.E.k.% % k.E.E.;.b b b b :.E.E.k.% % 5 q w f f w q 5 % % 5 q d f f w q 5 % % % ",
"# R.E.E.n b Z.*.b n E.E.T.$ $ T.E.E.n b Z.*.b n E.E.T.$ # R.E.E.n b Z.*.b n E.E.R.$ $ 6 e 4 f f 4 q 6 # $ 5 q 4 f f 4 q 6 # $ # ",
"@ T.E.E.n b *.Z.b n E.E.T.@ @ R.E.E.n b *.Z.b n E.E.Y.@ @ T.E.E.n b *.Z.b n W.E.Y.@ @ 5 q q f f q q 4 @ @ 5 q q f f q q 4 @ @ @ ",
"X k.E.E.;.b b b b ;.E.E.k.X X k.E.E.;.b b b b ;.E.E.k.X X k.E.E.;.b b b b ;.E.E.k.. X 7 7 7 8 q 7 7 7 X X 7 7 7 8 8 8 7 6 X X @ ",
"X j E.E.W.;.n n ;.R.E.E.j .   h E.E.E.;.n n -.W.E.E.j . . j R.E.R.;.n n ;.E.E.E.j . . 7 7 7 7 7 7 7 6 . . 7 7 7 7 6 7 7 6 X X X ",
"  o l.E.E.E.E.E.E.E.E.l.o .     l.E.E.E.E.E.E.E.E.l.o .   o l.E.E.E.E.E.E.E.E.l.o     7 5 5 5 5 5 6 6 . . 6 5 5 5 5 5 5 6   X   ",
"    * k.E.E.E.E.E.E.l.*         * l.W.R.R.E.E.E.l.*         * l.E.E.E.E.E.E.l.*       e e e e e e e e     v e e e q e e v @     ",
"N.N.N.N.N.N.N.N.N.N.N.N.x.x.N.N.N.N.N.N.N.N.N.N.N.N.N.N.N.N.N.N.N.N.N.N.N.N.N.N.N.N.N.N.N.N.N.N.N.x.N.N.N.N.N.N.N.N.x.N.N.N.N.x.",
"g h g g g g g g g g g g g g g g g g g g g g g g g g g g g g g g g g g g g g g g g g g g g g g g g g g g h h g g g g g g g g g g ",
"t x x x x x x x x x x x x x x r a.a.a.a.a.a.a.a.a.a.a.a.a.a.r r , > : > , t t & , > ; > , r t t , > : > , y t t , > : > , t t & ",
"& M M M M M M M M M M M M M m r d.d.d.d.d.d.d.d.d.d.d.d.d.d.r S K O.;.O.K S & S K O.-.O.K A & S K O.:.B K S & A K O.B -.P D t r ",
"& <.B.B.B.B.B.B.B.B.B.B.B.B.<.r s.I.I.I.I.I.I.H.I.I.D.0.U.s.& G 7.M.2.M.m.G & G m.M.2.M.m.G & G 7.c.m.M.m.G & G 7.M.m.M.m.G & & ",
"% <.B.B.B.B.B.B.C.C.C.!.B.B.m.% s.I.I.I.I.S.I.H.H.H.I.0.U.s.t F &.=.=.=.&.F % < &.=.=.=.&.F % F &.=.=.=.&.F % F &.=.=.=.&.< % & ",
"% <.B.B.B.B.B.4.B.!.C.C.!.B.<.# s.I.I.I.I.S.A.I.H.H.Q.I.I.s.% A F 1 0 1 G S % A F 1 0 1 F A % A F K 0 1 F A % A H 1 0 1 H A % % ",
"# <.B.B.B.B.B.4.4.B.!.C.C.B.<.# s.I.I.I.I.I.9.0.I.I.H.H.I.s.# A S , : > S S # A A , : > S S # A D , : , S A $ A , , : , A A # # ",
"@ <.B.B.B.B.B.3.4.4.B.!.C.B.<.@ s.I.I.I.I.I.U.9.q.0.I.H.I.s.@ A G 1 0 1 G D @ A F 1 0 1 G S # S F 1 0 1 F A # A G 1 0 1 F S # @ ",
"o z.B.B.B.B.B.3.3.3.4.B.C.B.2.. s.I.I.I.I.I.L.L.I.9.S.I.I.s.@ F &.=.=.=.&.F @ F &.=.=.=.&.< @ F ;.=.=.=.&.F @ F &.=.=.=.&.F X @ ",
"o 2.B.B.B.B.B.V.B.B.B.B.B.B.z.o s.I.I.I.I.I.I.I.I.I.S.I.I.s.. G m.M.2.M.m.G X G m.M.2.M.m.G X G m.M.2.M.m.G X G m.M.2.M.m.G X X ",
"  M M M M M M M M M M M M M M . d.d.d.d.d.d.d.d.d.d.d.d.d.d.. S K O.-.O.K S . S K O.-.O.K S . S K O.-.O.K H . S K O.-.O.K S . . ",
"  x x x x x x x x x x x x x x . a.a.a.a.a.a.a.a.a.a.a.a.a.a..   , > ; > ,       , > ; > , .     , > : > ,   . . , > ; > ,   . . ",
"N.N.N.N.N.N.N.N.N.N.N.N.N.N.N.N.N.N.N.x.N.N.N.N.N.N.N.N.N.N.N.N.N.N.N.N.N.N.N.N.N.N.N.N.N.N.N.N.N.N.N.N.N.N.N.N.N.N.N.N.N.N.N.N.",
"g g g g g g g h g g g g g g g g g g g g g g g g g g g g g g g g g g g g g g g g g g g g g g g g g g g g g g g g g g g g g g g g ",
"r t u & & u t t y y & t t t t t t t t & ; ; r r % 2 r t r t t t t & v & & t t t t o.X.o.r t r r r r t t t t r r c c c c & t t t ",
"& & 4 2 2 K 5.& r { +.& L 2 & & 2 2 r < : 3 3 2 2 H r r r & & D 3.} } } } J & o.X.X.X.X.X.& r & & & & & & & c x k c c c c & & & ",
"& & 4 O O I 6.n.V.V.V.k.L L 2 r L L 2 3 < P : : L A & & % & J 3.} } } } } } 8.o.X.X.X.X.X.X.U & & u % & & c k k k | ..| c c & & ",
"% % O O O O O.n.V.V.V.V.n.L L L L H H 3 / P 3 L L % % % % J J } } } } } } } } o.X.X.U U U U U U K % % % & k k k ..........c % % ",
"% %.%.%.%.%.%.%.$.$.%.%.%.%.%.%.%.%.%.%.%.%.%.%.%.%.$ $ #.%.%.%.#.%.%.%.%.%.%.%.%.%.%.%.%.%.%.%.%.%.% $ %.%.%.%.%.%.%.%.%.%.$.$ ",
"# %.%.%.%.%.%.%.%.%.%.%.%.%.%.%.%.%.%.%.%.%.%.%.%.%.# # #.%.%.%.%.%.%.%.%.%.%.%.%.%.%.%.%.%.%.%.%.%.# # %.%.%.%.%.%.%.%.%.%.@.@ ",
"@ ,.,.,.,.,.,.,.,.,.,.,.,.,.,.,.,.,.,.,.,.,.,.,.,.,.X @ >.,.,.,.,.,.,.,.,.,.,.,.,.,.,.,.,.,.,.,.,.,.@ @ ,.,.,.,.,.,.,.,.,.>.>.X ",
". $.$.$.$.$.$.$.$.$.$.$.$.$.$.$.$.$.$.$.$.$.$.$.$.$.X . @.#.$.#.$.$.$.$.$.$.$.$.$.$.$.$.$.$.$.$.$.$.X X $.$.$.$.%.%.$.$.$.$.@.X ",
". B B B B B B B B B B B N B B B B B B B B B B B B B . . N N N B B B B B B N B B B B B B B B B B N B . . B B B B B B B B B B N . ",
". 7.7.7.1.1.1.1.1.1.1.1.2.1.1.1.1.1.1.1.1.1.1.1.7.7.. . 7.7.1.1.1.1.1.1.7.7.1.1.1.1.1.1.1.1.1.1.1.7.. . 7.1.1.1.1.1.1.7.1.1.>.  ",
"N.N.x.N.N.N.N.N.N.N.N.N.N.N.N.N.N.N.N.N.N.N.N.N.N.N.N.N.N.N.N.N.N.N.N.N.N.N.N.N.N.N.N.N.N.N.N.N.N.N.N.N.N.N.N.N.N.N.N.N.N.N.N.N.",
"g g g g g g g g g g g g g g g g g g g g g g g g g g g g g g g g g g g g g g g g g g g g g g g g g g g g g g g g g g g g g g g g "
};
