/* XPM */
static char *_f1f9c378d144fb585ce8b01395a1597B9hvoOWvW6fn1wxz[] = {
/* columns rows colors chars-per-pixel */
"64 64 179 2 ",
"   c #614F3F",
".  c #64523C",
"X  c #5E5144",
"o  c #5F554B",
"O  c #624D49",
"+  c #645446",
"@  c #685447",
"#  c #665846",
"$  c #6C5A43",
"%  c #64554B",
"&  c #69564B",
"*  c #66594D",
"=  c #6A5A4E",
"-  c #665651",
";  c #685657",
":  c #675B51",
">  c #6A5C52",
",  c #705F5C",
"<  c #6F604F",
"1  c #76634E",
"2  c #79644F",
"3  c #6E6054",
"4  c #6E6359",
"5  c #726355",
"6  c #7A6552",
"7  c #776957",
"8  c #7C6956",
"9  c #73645A",
"0  c #78675D",
"q  c #766A5E",
"w  c #7C6C5C",
"e  c #7D7058",
"r  c #776C62",
"t  c #7C6D63",
"y  c #786F68",
"u  c #7E7165",
"i  c #7E7369",
"p  c #816C54",
"a  c #836E5B",
"s  c #86735F",
"d  c #88745F",
"f  c #816E63",
"g  c #816F68",
"h  c #827265",
"j  c #8A7764",
"k  c #8C7966",
"l  c #827469",
"z  c #8A7768",
"x  c #86786F",
"c  c #8C7A6A",
"v  c #917B65",
"b  c #927E6D",
"n  c #857770",
"m  c #847B73",
"M  c #8A7E74",
"N  c #887E78",
"B  c #937E71",
"V  c #93806C",
"C  c #9A836C",
"Z  c #8D8176",
"A  c #8E837A",
"S  c #958373",
"D  c #9B8575",
"F  c #998774",
"G  c #9A8775",
"H  c #9A8776",
"J  c #9C8775",
"K  c #9A8673",
"L  c #988871",
"P  c #998873",
"I  c #9A8875",
"U  c #9B8876",
"Y  c #9D8876",
"T  c #9D8975",
"R  c #91867D",
"E  c #92887F",
"W  c #9D8B79",
"Q  c #9E8E78",
"!  c #9E8F7A",
"~  c #9C8A7C",
"^  c #9B8B7C",
"/  c #A48E75",
"(  c #A38F7B",
")  c #A5947E",
"_  c #A4917C",
"`  c #AA957D",
"'  c #AE9A7E",
"]  c #958A82",
"[  c #9C9185",
"{  c #9D958E",
"}  c #9E9691",
"|  c #A59481",
" . c #A59583",
".. c #A59581",
"X. c #A89585",
"o. c #AF9A83",
"O. c #AF9984",
"+. c #AD9B86",
"@. c #AD9A84",
"#. c #A4968D",
"$. c #A79A8F",
"%. c #AD9C89",
"&. c #B79F83",
"*. c #B79F84",
"=. c #B79F86",
"-. c #B19C84",
";. c #B99F83",
":. c #BA9F82",
">. c #B89F85",
",. c #B89F86",
"<. c #B49E8A",
"1. c #A59A93",
"2. c #AA9D92",
"3. c #B7A181",
"4. c #B6A083",
"5. c #B7A085",
"6. c #BAA083",
"7. c #B9A085",
"8. c #B9A086",
"9. c #BAA187",
"0. c #BBA486",
"q. c #BEA887",
"w. c #B7A288",
"e. c #B6A08F",
"r. c #B6A28C",
"t. c #B6A28C",
"y. c #B8A288",
"u. c #B9A489",
"i. c #BAA589",
"p. c #BAA48A",
"a. c #BCA58A",
"s. c #BFA98F",
"d. c #BEAA8D",
"f. c #BEA98C",
"g. c #ADA092",
"h. c #ABA29B",
"j. c #BCA591",
"k. c #BBA791",
"l. c #BFA990",
"z. c #BFA991",
"x. c #BCAA91",
"c. c #BFAA90",
"v. c #BFA992",
"b. c #BFAB92",
"n. c #BFAB94",
"m. c #BEA992",
"M. c #B2A59C",
"N. c #B4A89D",
"B. c #BFAF99",
"V. c #BEB09A",
"C. c #B4A9A1",
"Z. c #BEB0A2",
"A. c #C0A68C",
"S. c #C1A88D",
"D. c #C3A98F",
"F. c #C1AA8E",
"G. c #C0AA91",
"H. c #C2AB92",
"J. c #C0AA92",
"K. c #C0AC92",
"L. c #C0AA94",
"P. c #C2AD96",
"I. c #C5AF96",
"U. c #C1AB93",
"Y. c #C2AE9A",
"T. c #C4B197",
"R. c #C6B39D",
"E. c #C5B09E",
"W. c #C5B29D",
"Q. c #C6B4A1",
"!. c #C9B6A2",
"~. c #CAB9A6",
"^. c #C3B7A9",
"/. c #CCBCAA",
"(. c #CEBEB0",
"). c #D2C2AF",
"_. c #D3C4B2",
"`. c #D3C7BC",
"'. c #D7C9BB",
/* pixels */
"u : # Q i.>.*.7.7.7.7.7.y.,.,.,.7.y.j t l l l 3 % v j.>.3.3.w.w.5.>.7.7.7.@.h u x h t > + _ i.>.:.>.y.i.| t l l g r = = -.G.F + ",
"l : + | I.S.s.l.G.l.G.S.G.l.v.P.G.G.c f l l z > + B Y.P.s.s.v.l.l.l.s.G.K.p.u u l l i = + | I.D.S.G.v.G.-.t g x x r - & <.R.W + ",
"r > * x J F F F P F P F F F F F P P h h t 9 9 > & f ~ F C L F F P F C P P F h h t 5 5 = % c U C K J Y P B f z 0 9 4 : > S W z * ",
"> > - w a h t f u t h w w u t h u e h x w % & = = 9 t f h t h t u t u h r h h l 5 & > = % r f h f f h w f z l > % * : > t f 0 - ",
"> , > t t l t i u u l u t u u u u u u u w = > 5 > 0 h t t i l t t y t l t u t h 0 = = 5 > r f f f t g t t f z , : : 4 , g l w : ",
"5 l x 9 - > - : : : : : = = * < = = * = > = > h x w & > > > > - > > > > : : = = > : 5 l z , & = : : > : > > > > : 5 l l x h 0 - ",
"> l x 3 % & & & = & = & & * : 3 > = > > > > = l l 0 @ & & & > : : - > > > > : > > : > x n > $ < * : - > > - > > = 5 x l x l w * ",
"t 3 = ^ %.%.+.+.@.@.+.+.+.4 : 3 : = > : > > : , = c <.X.o.@.S w t t t 0 & : > > > > > > = ^ ' ' @.%.z w r & = > = > > 5 3 > 3 : ",
"i * + _ P.f.A.G.s.s.A.s.K.2 % = < o o * : : > > + b I.A.A.H.T 8 h l x 9 & - : - > = : > + ` S.F.P.I.V t w % = = = > * & > - ; > ",
"t = + / s.0.a.,.0.7.a.a.S.s 9 7 7 4 q q 9 : : > + b P.a.0.a.' D H h x t 5 5 0 9 , = > : # _ S.' _ _ b h r 9 w > = > 0 9 > > , > ",
"u > @ ( S.0.a.a.A.a.a.A.s.b h l h h x i r : > > + B H.f.A.a.G.L.e.s t x l l l x 0 * > > % _ K.@.7 u h h h l x 5 & 5 j h 3 : : : ",
"i > & ( H.0.a.a.f.a.a.,.p.c l l h h i x r : > > @ b K.0.A.9.0.f.t.h i n l l i l r : 3 > & _ K.-.u u l h l l l 3 = 6 z c 5 * : : ",
"i > & | G.0.A.a.A.0.' a h l l l h h l l r : > > % b G.0.A.a.0.S.i.h l i l h l l l l u : @ _ H.4.e l l h h h l 9 + h B.m.6 * < * ",
"t : @ ( G.0.0.f.0.f.X.t h h h l h i u l r ; > > % b P.0.,.j.f.0.5.s l l i h i h l h f > @ _ K.o.u l h h u h l 3 @ s P.S.1 * < * ",
"f > + ( S.0.a.f.0.S.@.f l u h l u h h l r = > > % V P.0.a.a.f.f.w.h f l i i u u l l t = & _ F.-.u l l h h u l 3 @ h B.0.6 o 3 : ",
"g - + ( S.a.y.f.0.s.@.t h h l l l h u l r * : > % V b.0.a.p.f.0.t.a f l l i l l l l t : + _ F.-.t h h h h l l 9 + d b.d.1 o 3 * ",
"l > @ ( D.0.f.a.S.s.@.f l l l l l l l x r : > > % c B.i.0.f.f.f.y.V S c h l l l x h h = @ ) K.o.h l l h h r t 5 & j P.a.p , 3 * ",
"f : + ( S.0.a.a.0.0.@.t u l h l h l h l w * > > % V b.0.a.f.f.i.0.G.I.Y e u l u l l t = + ) F.o.f l l h w % = > + s H.A.z l r * ",
"i : & ( S.9.a.a.A.s.@.f l l l l h l l l y > > > % V P.0.a.a.a.0.0.f.P.F e i l l l h t > # _ K.4.u l h l w & : , % s G.a.k i r = ",
"g : @ _ G.a.a.a.0.f.%.f l l l j l x l l r > > > % V b.i.f.j.j.0.a.f.K.Y u l h l x l h > + ` F.-.h h l j t > > > * j P.f.k l r = ",
"u : + ( S.0.0.f.0.S.@.f g l h l h g g i r - > : % b b.0.a.f.0.i.a.0.P.J t h h l h h u * @ _ F.o.t h l h w & : > % s P.a.k i r @ ",
"l : + ( S.0.y.f.0.q.@.f l l h z l h l x t - : : % c b.0.a.p.s.i.a.7.j.J w i u l x h u = + _ F.-.t l j h t 0 w > @ h G.f.k l r * ",
"t : + ( G.0.0.f.0.S.' w a f h l h h h l r : > 3 + b G.9.a.a.s.0.f.0.G.J t h l h l h u = + _ F.o.t l h l l g x , + h P.f.z l r & ",
"l > & _ H.0.y.a.0.0.o.j k j l c l l l x t : : 3 % b P.a.a.j.0.a.0.0.G.Y e l l l x l u = & _ F.-.f l l l j x x , % h K.A.c l r & ",
"i : % ( S.0.0.a.a.9.s.x.x.c u l g l g l r : : > % V K.0.a.j.a.y.p.0.L.J a i l l l h u = % _ I.@.u h h h h g x 4 % d P.A.k i r = ",
"t : + ( D.9.f.a.a.a.f.p.s.c u l j f h l w & > = + b P.0.a.a.f.a.y.f.G.K w i t h l h u = % _ H.O.8 e l l h h i 3 % s G.A.k i r % ",
"u : + _ A.a.a.a.j.a.a.a.A.c t x f l l l h r w 5 + V K.0.a.a.f.i.a.a.G.J w i l l l l f > & / S.a.' ' M f h l h 4 + s G.0.k i r % ",
"u : + ) Y.G.p.a.a.a.a.a.j.c t l l f l f l l l 5 + b P.0.f.p.f.0.a.y.L.J w u i h l h u > @ ` S.0.F.K.B f h f l 4 + h H.A.k l r % ",
"i : & c Q _ f.a.j.a.a.a.A.c t x f l g h l u l > + c K.0.A.f.f.i.0.0.G.J t l l u l l u = @ ` A.A.' F.C s h h h 4 % d G.S.s q 4 * ",
"i * = =   2 G.y.p.,.a.a.j.c h l g h i h l u l > + V K.f.a.p.i.y.f.a.G.J a i h l l h t = + ) S.A.F.F.b w h h l 3 + s P.0.1 % 3 : ",
"u : = > & 8 G.!.Q.P.,.a.f.c u x j l h l l h l > + b j.7.0.a.p.f.p.f.l.J e i l l l h f > % ( s.y.0.s.V h l h l 5 + h b.s.6 : < : ",
"u : : 3 * 8 Y._._.!.j.A.j.c i l f l h h l l l 3 = < < 1 p.f.f.p.f.y.P.Y u h l h l l h > > > $ a K.0.i.0.` w l x t V b.d.5 : : : ",
"i > : : * 8 B._._.Q.,.a.d.c u l h h i l h h l 5 = = % < p.a.f.p.a.a.L.K a t l h l h u = : : o 8 K.7.K.F.-.t g l g S G.f.5 = > : ",
"t : > : % 0 Y._._.Q.a.a.d.c u l l h u u l h l > = > = > <.a.f.0.9.y.G.K t l h l l l t : = : * w l.s./ P B g l n f C A.f.2 & > : ",
"i : - : % 7 B._._.R.y.f.p.l u u a h l h h l l > & = : > p.A.a.y.0.0.P.J w i i h h h u = = * * w G.G.v w g g x l t D H.G.6 : > : ",
"1.] N 9 + w Y._._.Q.i.0.t. .} } 1.A h l l t f > = > : > p.a.a.f.0.S.P.F f i l l x h u > = 3 * e G.G.b f g x g x t B <.<.6 : > : ",
"h.{ } { i 7 Y._._.!.y.y.Q.C.h.M.] f h l w * & > = > : 1 p.a.a.p.f.0.G.T w i l h l l u = < * % a L.G.b u h h l l i u f s > : > = ",
"[ ] { } m 7 B.).).R.t.~.`.C.h.A f l l l t = : > > = * 3 j.0.0.f.0.0.S.T f l h l l h u = = : * w L.A.b t h h l l l u h l , = > * ",
"r = n x o 7 Y._.(./.^.M.C.g.M u l l l x r : : 3 3 > : 3 a.A.f.y.0.0.G.Y t l i l x l f > : > % w L.G.b f l l l l h l h l 5 : 3 > ",
"h * * + . 1 Y._.)._./.#.#.l w l g l g l r = 3 : : > = = <.a.a.a.i.S.I.W t i h l l l t > > > * p G.j.b t f u l l h h h l 3 : > : ",
"t : % l V C B.).(._./.Q.M.l f x h g h l w = > : > > = 5 y.0.a.a.i./ ( B u h h h l h u = > > * w v.l.V w l u l l u h h h < = > > ",
"f : + ) T.f.s.)._.~.(._.'.$.g l l h l l r - : : : = : = p.A.f.a.5.p w u u h l u l l u = > > % w l.l.V t u u h l l h h l > = > : ",
"f * 9 g.p.7.s._._.E.y./._.N.%.m f l l l r : > 3 > > : > p.a.a.a.y.a l x h h i l l h u = > > * 8 v.v.V u l h h h t h l j , = > > ",
"N m ] ^./.7.k._._.!.y.f./.N.2.2.x f l l r : > > = > : 1 e.f.0.f.y.h l l u h h l x h u = > : * w G.j.V t l i l 5 * 5 l l > = > : ",
"2.{ [ ^./.7.l._._.Q.y.0.e.g.h.h.1.x u l r : > > > > & > <.A.f.0.y.h g n g l f l l h u = = : * w P.G.v 0 t f l , % 5 l l 5 = = = ",
"h.{ E 2.0.0.x._._.Q.7.0.d.c { h.h.1.m u w & > > : > : > p.a.f.a.7.d g g l g i l l l u = = : * e G.f.-.+.[ f n , % 5 l l < = > = ",
"M 9 % Q S.a.y.p.p.p.0.i.s.l u x l x l l r : > ; > > > > p.a.a.a.a.a f z g t l i l l u = < : o u G.a.L.P.<.w l 4 * 5 l l > & = = ",
"r : + _ S.a.y.i.0.i.f.q.F.k u h s h h l r : > > > : = > <.A.f.f.,.B D c g l l l l h u = = < o e G.A.o.X.Q a l 3 * 5 l l 9 5 5 = ",
"t > @ ( s.0.0.f.a.a.f.0.j.c u l h f h l r * > > > > : > j.a.a.p.f.S.I.Y w i i h l h f = = 3 % w G.A.v 8 h h l 3 * 3 h h x x 8 * ",
"t : % ^ d.w.i.i.0.7.p.0.s.c r l M Z M l r = > > > > : > <.a.A.0.0.0.S.P t l l h l l h > = : * w G.D.b f l i l 9 = 5 l h h x r * ",
"Z y 9 9 m S V.x.i.T.Y.p.p.^ A n l M M l w = = > = > : 5 p.a.0.s.f.a.P.Y s i l l l l h : 3 > * w G.G.b h u : 4 4 * h s.t.c l t = ",
"Z ] 4 Z 4 h ).r.E.p.k.Y.B.[ M n f f u l r = = = = = = = p.a.f.p.0.y.l.U w i l i l h t : > > * p G.j.b f q * ; > % h K.S.k u r & ",
"y x 9 i o 9 Q.t.~.x.v.Y.e.^ A m h l h l w = = : = = : 3 w.0.0.p.f.0.P.J w i l h l l t = > ; % w G.j.b u w * > : @ j P.a.k i r = ",
"Z ] 4 m 9 l ).t.W.e.k.v.v.R A ] f h h h w = = = = = : = p.0.i.i.0.a.G.J w l l l l h u = : : % p G.G.b u r * > > % h G.f.k u r & ",
"Z r 4 y i Z ^.u.p.B.Y.p.x.^ A x l l l l r > 5 = = > : 1 e.S.s.s.a.f.P.J u l l l l l u = > , * a G.j.V h t = : 4 % h I.f.k l r = ",
"y % : y i A B.5.0.7.a.0.p.k t l l h l h l l u 3 = < : 5 e.0.0.i.a.a.G.J e h h l l h u = : > % 8 G.G.V h t = > > % h G.f.k l r & ",
"f > : % + 6 G.j.s.y.a.a.j.b f x l h h l l h l 3 = = : 1 p.A.0.a.9.0.P.D 8 f l h l l h = = > * w S.S.b h u * : 4 % h K.0.c i r = ",
"l : = F @.O.A.A.f.0.f.a.G.z g l h h l l l l h 3 = > : > j.0.0.i.f.0.f.<.O.X.h l l l u = > > ; a d.G.b h r ; : : % d P.s.k l r = ",
"t : + ( Y.j.,.a.f.<.A.p.j.c g l u h h h l l l 3 = = : > t.a.a.a.0.a.a.f.s.r.f u l h h = > = O 8 d.b.B t r = > 4 * s T.0.j l r & ",
"i = $ _ H.0.a.a.a.a.A.f.j.c g l u h l l h 0 q 3 = = : > p.a.a.a.f.a.a.0.i.*.t h l h u : & h k C i.s.b u w = > > % h b.f.k l r & ",
"u % . / D.9.0.a.a.a.0.A.l.c x l u h l l w & = > = = = = j.a.a.f.A.0.a.a.0.<.h h l u u = . ` T.F.q.d.V u t & : > + d P.a.k i r & ",
"u < $ ) D.9.f.a.a.a.f.9.p.c g x h l l l w = > > = 5 : 3 <.A.a.0.0.0.a.A.A.,.h h x h u = % _ d.0.i.e.V h t = > 3 % l P.f.k l r = ",
"7 m.i.i.a.a.a.a.f.A.o.a h h g x h l l l r = > > > : : 5 p.a.0.a.f.f.f.f.A.<.h l l l u : # ) F.4.s l l l t : > > - l P.a.c l r = ",
"7 G.S.0.a.a.a.a.a.A.+.t f l f l l u u l w = > > : = * < p.a.f.a.a.y.0.A.0.-.h u l h u = + ) T.-.e u h l r : > > * s G.f.v g r * "
};
