/* XPM */
static char *_2c4026a8c774482a8a2d55b3b55bc01zNkaax4VWs0GUUxc[] = {
/* columns rows colors chars-per-pixel */
"64 64 183 2 ",
"   c #513D30",
".  c #544636",
"X  c #55463B",
"o  c #56493B",
"O  c #5B4B3C",
"+  c #614E3C",
"@  c #65543F",
"#  c #69533E",
"$  c #564C43",
"%  c #5A4E44",
"&  c #564F48",
"*  c #5B4E49",
"=  c #575045",
"-  c #5C5146",
";  c #5D534A",
":  c #5F5651",
">  c #634F43",
",  c #645445",
"<  c #695544",
"1  c #675B47",
"2  c #6C5A45",
"3  c #63554B",
"4  c #69564D",
"5  c #65594E",
"6  c #6A5B4D",
"7  c #705B47",
"8  c #725D4D",
"9  c #635651",
"0  c #695652",
"q  c #665B52",
"w  c #6A5C53",
"e  c #675D59",
"r  c #6A5D59",
"t  c #715E52",
"y  c #6D604E",
"u  c #75634C",
"i  c #7A644F",
"p  c #6D6155",
"a  c #6E6359",
"s  c #736354",
"d  c #7A6653",
"f  c #776854",
"g  c #7C6A55",
"h  c #73655B",
"j  c #7A665B",
"k  c #76685D",
"l  c #7C6C5C",
"z  c #746660",
"x  c #7F6661",
"c  c #766A62",
"v  c #7C6D63",
"b  c #746E68",
"n  c #7D6F69",
"m  c #7E7165",
"M  c #7E7269",
"N  c #806A55",
"B  c #816D5D",
"V  c #84725D",
"C  c #88735E",
"Z  c #816E63",
"A  c #816F69",
"S  c #837365",
"D  c #897564",
"F  c #857967",
"G  c #8D7A66",
"H  c #82746C",
"J  c #85756E",
"K  c #85766D",
"L  c #83746A",
"P  c #8A7769",
"I  c #85786C",
"U  c #8D7A69",
"Y  c #89796C",
"T  c #8C7B6B",
"R  c #937D65",
"E  c #927D6B",
"W  c #837471",
"Q  c #857972",
"!  c #8F7D70",
"~  c #957F71",
"^  c #947E72",
"/  c #94836D",
"(  c #9A846E",
")  c #9D8A6F",
"_  c #8A8076",
"`  c #8B8278",
"'  c #978371",
"]  c #978472",
"[  c #958372",
"{  c #998571",
"}  c #9B8571",
"|  c #9A8574",
" . c #998976",
".. c #988A77",
"X. c #9C8A74",
"o. c #91867E",
"O. c #998778",
"+. c #9D8B7A",
"@. c #A18C74",
"#. c #A08B7D",
"$. c #A28E7B",
"%. c #A29079",
"&. c #A6947F",
"*. c #A5927C",
"=. c #A9947D",
"-. c #AF997E",
";. c #938C82",
":. c #9B8F85",
">. c #958F88",
",. c #97918C",
"<. c #9B948C",
"1. c #9E9891",
"2. c #A88F80",
"3. c #A69280",
"4. c #A59481",
"5. c #AA9682",
"6. c #AF9A87",
"7. c #AE9F85",
"8. c #AE9A84",
"9. c #A2978D",
"0. c #AD9C8A",
"q. c #B39D85",
"w. c #B39E8A",
"e. c #A59D93",
"r. c #A79F98",
"t. c #B6A187",
"y. c #B8A183",
"u. c #B7A089",
"i. c #B7A68A",
"p. c #B7A08C",
"a. c #B5A28C",
"s. c #BFA68D",
"d. c #BDA78F",
"f. c #BFA68E",
"g. c #BAA58C",
"h. c #BBAB8E",
"j. c #BFA98E",
"k. c #BEA88D",
"l. c #BEA98D",
"z. c #ABA39F",
"x. c #B4A191",
"c. c #B5A493",
"v. c #BEA690",
"b. c #BBA691",
"n. c #B7A992",
"m. c #BDA891",
"M. c #BFAA94",
"N. c #BDAA96",
"B. c #BDAA93",
"V. c #BEAD99",
"C. c #ACA6A0",
"Z. c #BEB4AB",
"A. c #C0A78F",
"S. c #C1A68D",
"D. c #C1A88E",
"F. c #C1AA8F",
"G. c #C1AB91",
"H. c #C1AB93",
"J. c #C1A991",
"K. c #C0AB95",
"L. c #C2AA94",
"P. c #C1AD96",
"I. c #C3AC93",
"U. c #C3AE99",
"Y. c #C1AD9B",
"T. c #C3AE9A",
"R. c #C8AF99",
"E. c #C6B292",
"W. c #C4B296",
"Q. c #C3B09B",
"!. c #C7B39D",
"~. c #C5B29B",
"^. c #CAB49D",
"/. c #CCB89D",
"(. c #C3AFA0",
"). c #C7B6A2",
"_. c #C9B5A2",
"`. c #C9B9A5",
"'. c #C0B4A8",
"]. c #C9BCAE",
"[. c #CEC0B1",
"{. c #D3C8BD",
"}. c #DBCEC1",
/* pixels */
"w q p q p q q q 3 P T.M.U m h > < S W H L L L L A Z x A I p O ; y p q 3 d P.P.' v Z v S S S S l L 3 - 3 q q q q 3 % * ; % - & ; ",
"w q 5 ; 5 : ; q 3 D M.l.U v Y ] / j h v L n S Z ~ 2.#.Z M a = ; 5 5 q q d v.I.] v L S S c h k S S q % 3 p q 3 5 3 3 3 5 3 3 ; 9 ",
"w q ; = - - & 9 3 C M.l.G g  .!.P.u , s L S L v %.E.l.V M a & ; y 6 w 3 d A.A.] v S S F p , 6 D L e % ; q q = & 3 w w w 3 6 q w ",
"p w 3 ; q ; ; e 4 D G.l.R v O.w.u.N 8 l D S v c ..i.7.C L a ; 3 p 6 p q d A.A.} n H M M k u f D J w & q a q 3 ; q q 6 f d i i d ",
"q q w w q - ; : 3 S I.m.T m S Z V x.U.3.B m p : k S S S H p % - q y q 5 d v.I.] v n 4 , 4.T.0.V L 9 & ; r q p q w 6 1 x.M.v.A.l.",
"3 3 q q q = - 9 < D !.V.T l B A B c.R.4.l L q 4 k L M H Q a % = 5 5 4 4 d K.I.O.n n 4 , =.Q.7.l L w = 3 q q w w q , < c.M.m.s.I.",
"=.9.l e e q 3 w 0 s g g *.a.$.Z S E T U S L v c m M S 4 5 q q e p q w 0 r l B s 9 e m l G E U m L q % 3 w w 6 4 S 0.5.B g V R T ",
"E.!.l > e 6 w w w w 3 @ a.!.8.Z F S S K K H I M I I H % % 3 w w 9 3 3 < 4 6 3 ; $ : I L K S S L W 5 % 3 w w w , K R.P.7 > s L M ",
"=.=.T D V 1 6 q 9 9 q 1 ( @.T s z h z c h h a h k h h 3 3 6 w w K D D D P 6 q 9 : 9 h a c z z h c 5 ; 3 3 3 6 , D F.g.g a b W M ",
"B f t.^.8.1 5 ; * 3 w w 3 @ @ * * & & * % % & & - % = 6 w 6 3 u T.G.I.W.a.6 q a w q & = ; = * % = 5 p q * * 6 3 D G.s.T L M M M ",
"H Z 4.M.&.3 q ; * 3 w e e p 3 ; : ; ; ; - ; ; : : ; 3 w w t 6 f x.g.s.g.8.2 6 w w q = ; : = ; ; ; y q q - - 4 3 D G.g.F m M >.e.",
"M H w , 6 w p : - 3 ; * e q q q e e q p q q q a r w w 0 , O.n.a.D P s > 6 w 6 p w w q p p q w w q p r w w 6 , $ S I.m.6 = b ,.,.",
"H L 4 $ : p 5 = & ; * > 3 , 3 , , < , , , , , , q w w w < | P.u.C K r & * r w 4 , , < < 4 3 < , , 1 , 3 w w * X S /.T.3 X b ,.>.",
"S K q = ; 5 y 3 3 0 3 , [ +.X.} X.@.X.@.@.@.( @.S 9 6 w < ( I.w.2 w 9 q 3 e q Y X.) @.@.@.| } @.X.X.@.G 3 w 9 3 s U D w : 5 Q ;.",
"Z L 6 $ ; y 5 q q w 4 < w.R.U.L.I.I.I.I.F.I.I./.] * 3 w 3 } ~.a.O O 9 w w 3 , 4.~.F.E.L.K.A.G.G.I.W.~.&.> 3 w w 6 , 3 w q 5 ; y ",
"l n w ; 5 y q p q s N N =.8.6.q.8.8.q.q.-.q.q.q.( l g 1 3 E 7.$.3 3 9 w s B d $.t.8.q.5.g.g.g.-.q.q.q.@.N B t w w w w p q a o.;.",
"% * 9 w w p q q 3 F W.V.G g B l S Z v Z l l S f *.~.n.2 w q , 1 w w w 4 j M.R.] l Z V g -.I.-.g l m l ~ T.K.d 3 r w w p 6 a <.1.",
"* * 9 q p 5 p q , D M.m.G m L L L L S J L S S v +.I.g.2 < w w w w w 6 # u I.G.O.A L S g 8.T.0.S L I n [ Y.N.d 4 w 6 w w q h :.<.",
"0 w w w p 6 5 q 3 C I.m.T S v w p S L v r p M L I T G 8.u.U 4 w e 3 ( q.5.E T K Z T a.u.} U S w a M L Z 8 t 6 1 6 w w 9 % L ].].",
"6 w 3 3 4 3 , 4 , C W.G.U l h 9 q n J j , 3 m I F B V Q.`.[ 3 w e , X.R.w.Z n W L E W.I./ l l , q v K h O % 4 w w p 6 -   D }.{.",
"6 1 P E E / R d 3 j { / X.+.E s k M S U E T f s v D S T / l 6 t w , X.P.w.S L v h B $.$.U m n h h M M c - - q q w 6 6 P D [ '.Z.",
"4 , 5.^.I.F.~.N 6 w 3 @ q.!.8.B F m g X.~.P.2 , k F m . . , w 0 w 3 X.I.q.V S s 3 6 Z Z L m L L H H M c % & q e q 6 4 n.R.6.9.r.",
"s 2 *.u.u.u.n.l 4 r t 6 5.c.*.B S F v O.n.u.u w v K M ; - 9 w r p , @.D.t.V K h w s K J L M M M L L M k ; - w w p q 7 q.I.3.e.C.",
"V.V.E B P A L 4 * 4 0 4 8 4 t P L L S P Z S L H H M M ; & q w p w , X.I.q.Z S H S A Z P w % = - ; ; * , w w w 6 w q 2 q.A.3.e.z.",
"I.D./ S W H I 4 = 5 q q 1 4 h K S m l m m m L S K M H - = 4 q q 6 , $._.g.S D K K D L I q & & - - - = ; q p w q q q 1 n.!.0.e.z.",
"l.I.l 3 w q q ; = 3 5 , 6 6 r s s *.0. .v S m K k 5 q - = 4 p q w 1 h V l 4 q w q w q w w 3 5 4 q w 5 4 ; 3 ; 3 5 p y f f h >.<.",
"P.!.s $ - & % - = ; = - w w 0 6 1 c._.5.Z K J J h o & % % q w w w w 3 3 5 % & % % & = % 6 p 6 6 w w w q = = ; = ; a q O o O : 3 ",
"$.4.a & 5 3 ; 3 3 5 ; 3 w r t 6 6 +.&.E s c h c a ; ; 3 ; q 9 4 w w w e q ; ; 5 ; ; 3 3 4 3 4 w 6 w p 5 ; 3 ; ; 5 q q : ; 3 = ; ",
", , : p w q q q q w w w w w w 0 8 < , 3 = = & * q q q p q 5 & 3 w w w 0 w w w w w w 6 w ; % 3 w w w q w q w q q w w 6 r p w 5 p ",
"6 6 y w w 6 6 6 1 w w 2 2 1 w 0 t 0 q q ; ; : > q w w q q 5 > 3 6 6 t 0 w w 6 8 6 6 6 p 3 - 3 0 w p w w 6 6 6 6 w w w w 5 p I p ",
"6 w p 6 S g.q.y.u.y.q.y.y.s./ O ; : - 4 r w 0 6 r t w p q w 0 t w.n.P 4 w 6 w p 6 6 w 3 $.y.q.q.t.u.q.y.t.t.q.l.X.3 p w w : b b ",
"4 w , O N ~.I.I.I.I.I.G.I.`.+.. ; ; & 3 0 t w 6 w 6 w 5 p 6 , 7 P.!.U 0 p 6 1 p q 6 , + -.~.I.I.P.W.G.G.h.F.M.W.@.O , w p ; M M ",
"q 4 T ) } G G {  .X.X. .U D l , 3 0 3 w 0 6 6 w r r w w , D O.| @.@.j ; 9 q w p q h } ( | +.O.X.X.X.X.X.} X. .| | ( O.r q ; M a ",
"w 3 4.^.5.+ , k l v m S - o - r w w e w 6 4 9 q w 3 3 w , +.`.N.B Z 6 $ ; w q q 3 j T.!.' j l Z v S l m v v l j O.^.T.s ; q ` ` ",
"a 3 *.G.-.6 p m H L v n q ; 5 w w w w h l d j j B d l w 4 / a.4.Z n r - 3 e q k d D w.w.^ Z L L P K H W L L ! Y @.w.w.B f f v c ",
"r , *.G.8.S L M M v % = w w 3 = ; w 3 T W.S.l.v.v.L.c.6 4 w , 1 & * 3 w r w 5 &.R.q.B Z K S S Z L L M L S Z w.P.2.B B u.W.X.- q ",
"r < &.I.q.S M I I c = - q p : = * 6 > U P.l.l.s.A.M.c.6 w w w w 3 * 3 w r e 5 $.R.-.C A K Z L S L P L L S V a.~.4.l C t.I.} , q ",
"t < =.P.=., q q q q q 4 q a p 3 < $.8.$.R E E E E E T 3 ; e w w w w w w w 3 % @.F.q.B W K J n t s A H D S S B d S H D u.G.} 3 p ",
"y , 4._.&.. = = = ; p p q q 3 , # n.^.=.l A M M S v m % & 5 w r w w w w w - . +.G.q.Z H L J A > > A K M S S 6 , r S g n.!.X.O 3 ",
"q 5 ! +./ - 3 3 3 5 ; : q 6 h U G @.4.[ s c M M L L M a p q 5 3 w w w q w ; o $.P.q.B L L Z A R U l h m L m h a L X.X.%.%.) C G ",
"e q 3 3 4 w w q q 4 = = 4 , G _.Y.D m h 3 3 M m I M S S I a O - w 0 e 9 w * O $.R.q.B m S l / ~.~.g - a L M L S O.~.P.V i X.^.V.",
"s w y 8 t w w q e q ; , y 2 G M.c.D S l 2 u m F L m S D U h * 3 w w r 0 q ; % O.v.8.C D K S E g.h.g 3 h H S S Z ] s.c.T l X.l.u.",
"n.a.g.l.3.4 w w w r 0 6 8.m.*.B P D m ..M.w.u 9 c S D a.n.+.n n , - 4 w p q w 4 O f n.N.~ v S D F D m L L L S L P S L H M S S C ",
"(.P.l.I.5.1 w w w w < > 7.~.=.Z A S k +.!.P.2 , h K P v.P.+.v Z % O 3 w w w w 9 o y M.l./ Z A A L L S L m L S S S l B L M m S D ",
"| ' / X.T 3 ; 4 3 l &.@.} ( T D L M S D S C X.%.G p h | } U n S l h w - 3 w w q ; d A.S./ Z A A L L Z L M L h w D q.5.F m M m S ",
"v m l m c % = 5 , D R.P.U j L S S S S k - , n././ - 0 v l S L K K K p % - p w w 3 g R.G.E l A A L S S L S L 6 % K ~.P.U S L L S ",
"j c M H b * ; q < C I.g.U Z L M S M K v q p 4.t.G 6 h ^ / K v v L L w = ; p 6 w w d 5.=.} E ^ A L L S L L m a 6 P q.8.V k m v m ",
"% $ z L v > & e 3 D m.s.R Z M m m F M L L S S l L m P m.W.E , w S H w % ; q q p w 0 3 + =.!.0.l S L S M L m S L L N m y 5 6 3 4 ",
"% > k I m = 3 e 9 D P.s.R A H m S F M L V B S S H m D n.R.U 3 w L K w % 3 w w p q e p 3 &.R.0.g V F S L S S L L L S L t 4 4 6 w ",
"6 4 3 ; : y 4 w 0 S P.v.U S v r p L S O.v.w.D L H K L P K P Z Z K L m n v - ; q q y p : s t C u.a.l 6 s L D D S S L K K S S S S ",
"0 w ; = ; y q w < V S.A.G V c 3 1 g g X.!.V.C m L L Z Z Z J L J S L M L M % = w p q p y y - l _.!.l 4 k I K I L K K L F K F L K ",
"6 r q , ; y p w 3 D D.A.G S v h f ..X.@.X.X.D m L L Z L L v d j A S L H n = = q p : ; ; p 4 s / / p ; q a a a p h a a a a p a p ",
"< 4 q q y q q q , V T.M.T M S F S g.!.&.d l Z L L A Z A L j 3 8 L L L H m - - q p : = = 5 q q , , - - & % % % & % % = = $ $ $ % ",
"u d y y p p q q 5 S x.w.F v M S S q.c.:.l M M L L P P L L j w t S L n n m ; ; q q q 3 ; q e e q y 3 ; , 3 ; ; , ; , 3 3 ; 3 - 3 ",
"M.V.V 5 w w w w q w 3 1 , % w H S Z S c w q w 6 l K A S L P S L K H 0 % ; p : p q 5 5 p : - : a p 6 w w w w r w p w w r w w w w ",
"B.W.V 4 p q 6 w w w w w , $ w Q L L S l 3 6 1 3 s J S L A K L S L Q w % = : y p y y 5 y ; = ; e w 2 @ 1 , , , , 6 w 6 w w q p q ",
"/ ' r - q w w p w p 0 p 6 6 6 9 w S L L l m v v S L L L I I M M q q q q q w w a r w w r r 4 y e w X.=.*.=.*.*.-.E 4 p 5 ; 5 ; : ",
"n S 3 & - p w q w w w w r 6 3 % % m K H L L H L I L L L I I F M = $ 3 w w 3 3 3 < 4 r r r w 3 3 > w.W.I.I.I.G.~.@.O 4 = = & - ; ",
"S L a 5 q q 3 4 w w w w w q 4 3 3 h k k k h k k c k k k h k k a 3 3 4 w u F D D D B 1 w w w s D V $.5.&.=.=.&.=.) V K 4 : : ; q ",
"S m m F v % % 4 w p w 6 w 4 6 w 6 * $ - & % $ = = & % = = = O ; w w q , d Q.G.F.I.q.< 6 w 4 l Q.W.U j Z l Z l k } !.T.k q w w w ",
"A A L S v - - q 6 r w w w w 6 w w 3 > 3 * ; ; ; 3 ; 3 - - 3 = ; w w 0 2 d n.u.S.S.-.< w p 3 B G.l.E Z K L M L v O.A.g.s 3 w t 8 ",
"K H H M S S S 4 ; 6 6 0 w 6 6 w r w w 0 6 6 6 6 w 1 5 5 q w 6 w r 4 X.l.7.S D P P S * ; q 4 B D.l._ m K L L M L K P P 3 ; 3 0 8 ",
"V B A L L S I 3 $ 3 r w w w 6 5 w w 6 r 0 w w w w w p q q w 0 1 4 + @./.n.S m m m c = ; q 3 N A.l./ m L M M M m S n H 9 & 3 0 8 ",
"&.=.V r h s h h h a ; 3 9 3 5 w r r q p w w q w w q q q q w w s X.@.U Z S m m L D v = ; q 4 l I.l.G v L L S S S L m H 0 * 3 6 t "
};
